<svg width="53" height="52" viewBox="0 0 53 52" fill="none" xmlns="http://www.w3.org/2000/svg">
<path d="M23.4503 0.990004C23.3803 0.980004 23.1903 1.00001 22.8703 1.06001C22.6003 1.10001 22.3503 1.14001 22.3103 1.15001C22.2703 1.16001 22.1903 1.19999 22.1403 1.22999C22.0903 1.26999 22.0103 1.33 21.9803 1.36C21.9403 1.4 21.8903 1.45 21.8703 1.49C21.8503 1.52 21.7503 1.75999 21.6503 2.00999C21.5403 2.26999 21.4503 2.53001 21.4403 2.59001C21.4303 2.65001 21.4203 2.73999 21.4303 2.78999C21.4403 2.83999 21.4603 2.92999 21.4803 2.97999C21.4903 3.03999 21.5203 3.09999 21.5403 3.12999C21.5503 3.15999 21.7103 3.35999 21.8803 3.56999C22.0503 3.78999 22.2203 3.99 22.2503 4.02C22.2903 4.05 22.3503 4.09 22.4003 4.11C22.4503 4.13 22.5303 4.16001 22.5803 4.18001C22.6303 4.19001 22.7103 4.2 22.7603 4.2C22.8003 4.2 23.0703 4.16999 23.3503 4.12999C23.7803 4.05999 23.8703 4.04001 23.9603 4.00001C24.0303 3.97001 24.1103 3.90999 24.1703 3.84999C24.2303 3.79999 24.2903 3.72001 24.3203 3.68001C24.3403 3.65001 24.4403 3.39999 24.5503 3.12999L24.7403 2.65001V2.47999C24.7403 2.34999 24.7303 2.29 24.7003 2.2C24.6803 2.14 24.6303 2.04 24.5903 1.99C24.5503 1.93 24.3903 1.73001 24.2303 1.53001C23.9803 1.23001 23.9303 1.17 23.8403 1.11C23.7803 1.08 23.6903 1.04 23.6403 1.02C23.5903 1.01 23.5103 0.990004 23.4503 0.990004ZM30.1103 1.00999C30.0303 1.00999 29.7803 1.05 29.5403 1.08C29.2003 1.14 29.1003 1.16 29.0103 1.2C28.9503 1.23 28.8603 1.28999 28.8003 1.34999C28.7403 1.39999 28.6803 1.47999 28.6603 1.50999C28.6403 1.54999 28.5503 1.77 28.4603 1.99C28.3703 2.22 28.2903 2.44999 28.2803 2.50999C28.2703 2.57999 28.2703 2.64999 28.2803 2.72999C28.2903 2.78999 28.3103 2.89002 28.3303 2.94002C28.3503 2.99002 28.4003 3.08001 28.4503 3.15001C28.5003 3.21001 28.6403 3.38999 28.7603 3.53999C28.8903 3.69999 29.0103 3.84001 29.0503 3.87001C29.0803 3.89001 29.1503 3.94001 29.2103 3.96001C29.2703 3.99001 29.3703 4.02001 29.4303 4.03001L29.5503 4.05L30.0303 3.97999L30.5103 3.91002L30.6503 3.84999C30.7503 3.78999 30.8103 3.75002 30.8903 3.66002L31.0003 3.53999L31.1703 3.12999C31.2603 2.88999 31.3503 2.66999 31.3603 2.62999C31.3703 2.58999 31.3803 2.49 31.3803 2.42C31.3803 2.35 31.3703 2.26001 31.3603 2.22001C31.3503 2.18001 31.3303 2.11001 31.3003 2.06001C31.2803 2.01001 31.1303 1.79999 30.9703 1.59999C30.7303 1.29999 30.6503 1.21002 30.5703 1.16002C30.5203 1.12002 30.4303 1.07 30.3703 1.05C30.2803 1.02 30.2203 1.01 30.1103 1.02V1.00999ZM17.5903 1.97001C17.5303 1.97001 17.3603 1.97999 17.2103 2.00999C17.0003 2.03999 16.9303 2.06 16.8303 2.11C16.7703 2.14 16.6703 2.20001 16.6303 2.25001C16.5803 2.29001 16.5203 2.36001 16.5003 2.40001C16.4803 2.43001 16.4103 2.59999 16.3403 2.75999L16.2303 3.06001V3.21001C16.2303 3.29001 16.2403 3.40002 16.2503 3.44002C16.2603 3.48002 16.2903 3.54999 16.3103 3.59999C16.3303 3.63999 16.4403 3.79 16.5403 3.92C16.6903 4.1 16.7703 4.17999 16.8303 4.22999C16.8803 4.25999 16.9703 4.29999 17.0203 4.31999C17.1103 4.35999 17.1503 4.36 17.3003 4.36C17.4103 4.36 17.5703 4.33999 17.7203 4.31999C17.8803 4.28999 17.9903 4.25999 18.0503 4.22999C18.1003 4.19999 18.1803 4.15001 18.2303 4.12001C18.2803 4.08001 18.3403 4.01001 18.3803 3.96001C18.4103 3.91001 18.4903 3.75001 18.5503 3.59001L18.6703 3.31001V3.11C18.6703 2.94 18.6603 2.89001 18.6203 2.81001C18.6003 2.75001 18.5203 2.61999 18.4003 2.47999C18.3003 2.34999 18.1903 2.21 18.1403 2.17C18.1003 2.13 18.0303 2.08001 17.9803 2.06001C17.9303 2.03001 17.8503 2 17.8003 1.99C17.7403 1.97 17.6503 1.96001 17.5903 1.97001ZM36.1203 2.91002C36.0503 2.92002 35.8903 2.93001 35.7503 2.96001C35.6203 2.98001 35.4703 3.01 35.4203 3.02C35.3803 3.04 35.3103 3.06999 35.2703 3.09999C35.2203 3.12999 35.1503 3.19 35.1003 3.24C35.0503 3.29 35.0003 3.36001 34.9803 3.40001C34.9603 3.44001 34.9003 3.58999 34.8403 3.72999C34.7503 3.95999 34.7403 4.01 34.7303 4.14C34.7203 4.24 34.7303 4.31 34.7503 4.39C34.7703 4.45 34.7903 4.53001 34.8103 4.56001C34.8303 4.60001 34.9303 4.73999 35.0403 4.87999C35.1903 5.05999 35.2703 5.15002 35.3403 5.19002C35.4003 5.23002 35.4803 5.26999 35.5403 5.28999C35.5903 5.30999 35.6803 5.33 35.7403 5.33C35.8103 5.34 35.9603 5.33 36.1603 5.3C36.3303 5.27 36.5003 5.24002 36.5403 5.22002C36.5703 5.20002 36.6403 5.17 36.6803 5.14C36.7203 5.11 36.7903 5.04999 36.8303 5.00999C36.8703 4.96999 36.9103 4.90999 36.9303 4.87999C36.9503 4.84999 37.0103 4.7 37.0803 4.55C37.1703 4.3 37.1903 4.23999 37.2003 4.12999C37.2003 4.04999 37.2003 3.95001 37.1903 3.90001C37.1803 3.85001 37.1503 3.77001 37.1303 3.72001C37.1103 3.67001 36.9903 3.51999 36.8803 3.37999C36.7703 3.23999 36.6603 3.11001 36.6303 3.09001C36.6003 3.07001 36.5403 3.02999 36.5003 3.00999C36.4503 2.98999 36.3703 2.96002 36.3203 2.94002C36.2703 2.93002 36.1803 2.91002 36.1203 2.91002ZM25.5703 5.69002C25.4503 5.68002 25.2803 5.69999 24.8803 5.75999C24.5803 5.80999 24.3003 5.86001 24.2603 5.87001C24.2203 5.89001 24.1503 5.92 24.1003 5.95C24.0603 5.98 23.9803 6.04001 23.9403 6.09001C23.8903 6.14001 23.8403 6.21001 23.8203 6.25001C23.8003 6.29001 23.6903 6.56 23.5703 6.86C23.4103 7.28 23.3603 7.42999 23.3503 7.50999C23.3403 7.57999 23.3503 7.66 23.3603 7.74C23.3803 7.81 23.4003 7.90002 23.4203 7.94002C23.4403 7.98002 23.6303 8.23001 23.8403 8.50001C24.0803 8.81001 24.2603 9.01 24.3003 9.05C24.3503 9.08 24.4303 9.12001 24.4903 9.15001C24.5703 9.18001 24.6403 9.2 24.7403 9.2C24.8403 9.21 25.0103 9.19001 25.4403 9.12001C25.7603 9.08001 26.0503 9.02999 26.0903 9.00999C26.1303 8.99999 26.2003 8.96001 26.2403 8.93001C26.2903 8.91001 26.3603 8.83999 26.4103 8.78999C26.4603 8.73999 26.5203 8.65001 26.5403 8.59001C26.5703 8.53001 26.6803 8.25999 26.7903 7.97999L26.9903 7.47002L27.0003 7.31001C27.0003 7.20001 26.9903 7.12999 26.9603 7.03999C26.9303 6.94999 26.8903 6.88 26.8103 6.77C26.7503 6.7 26.5703 6.45999 26.4003 6.25999C26.1803 5.97999 26.0803 5.86999 26.0203 5.81999C25.9603 5.78999 25.8803 5.74999 25.8203 5.72999C25.7503 5.69999 25.6703 5.69002 25.5703 5.69002ZM13.4103 5.77C13.3103 5.77 13.1703 5.78001 12.9503 5.81001C12.7703 5.84001 12.5903 5.88 12.5403 5.89C12.4903 5.91 12.4203 5.94002 12.3803 5.97002C12.3503 5.99002 12.2903 6.03 12.2703 6.05C12.2403 6.07 12.1903 6.13 12.1503 6.17C12.1103 6.22 12.0503 6.33999 11.9403 6.62999C11.8303 6.90999 11.7803 7.04001 11.7803 7.12001C11.7703 7.18001 11.7703 7.28001 11.7903 7.34001C11.8003 7.40001 11.8203 7.49 11.8503 7.55C11.8703 7.6 12.0003 7.77 12.1403 7.95C12.3303 8.19 12.4103 8.28 12.4903 8.33C12.5503 8.37 12.6303 8.42001 12.6903 8.43001C12.7403 8.45001 12.8203 8.47002 12.8803 8.47002C12.9503 8.48002 13.1003 8.46001 13.3603 8.43001C13.5603 8.40001 13.7703 8.36001 13.8203 8.34001C13.8703 8.32001 13.9503 8.26999 14.0003 8.22999C14.0603 8.18999 14.1303 8.13001 14.1503 8.09001C14.1803 8.06001 14.2203 8.00002 14.2403 7.97002C14.2503 7.94002 14.3303 7.75999 14.4003 7.56999C14.5203 7.26999 14.5403 7.21001 14.5503 7.09001C14.5503 7.00001 14.5503 6.92999 14.5303 6.84999C14.5103 6.78999 14.4803 6.71 14.4703 6.67C14.4503 6.63 14.3203 6.45999 14.1803 6.28999C14.0103 6.06999 13.9003 5.96002 13.8403 5.91002C13.7903 5.88002 13.7003 5.83001 13.6503 5.81001C13.5803 5.79001 13.4903 5.78 13.4103 5.77ZM19.3103 5.92C19.2203 5.92 19.0903 5.93002 19.0003 5.94002C18.9203 5.96002 18.7403 5.98999 18.5903 6.00999C18.4003 6.03999 18.3103 6.05999 18.2203 6.09999C18.1403 6.13999 18.0703 6.19 18.0003 6.27C17.9303 6.33 17.8703 6.42001 17.8503 6.46001C17.8303 6.50001 17.7403 6.72001 17.6603 6.93001L17.5003 7.33V7.47999C17.5003 7.58999 17.5103 7.67001 17.5403 7.75001C17.5503 7.81001 17.5903 7.89001 17.6203 7.93001C17.6403 7.96001 17.7703 8.13 17.9003 8.3C18.0403 8.47 18.1803 8.64 18.2103 8.67C18.2503 8.7 18.3203 8.75 18.3703 8.77C18.4103 8.8 18.5003 8.83001 18.5503 8.84001C18.6003 8.86001 18.6903 8.87001 18.7303 8.87001C18.7803 8.87001 19.0103 8.84001 19.2303 8.81001C19.4503 8.77001 19.6703 8.74002 19.7103 8.72002C19.7503 8.71002 19.8403 8.66999 19.8903 8.62999C19.9403 8.59999 20.0203 8.53 20.0603 8.49C20.1003 8.45 20.1503 8.38001 20.1703 8.34001C20.1903 8.30001 20.2703 8.1 20.3603 7.89L20.5103 7.50001L20.5203 7.34999C20.5203 7.25999 20.5203 7.16 20.5103 7.11C20.5003 7.05 20.4703 6.97 20.4403 6.92C20.4203 6.88 20.2803 6.68 20.1203 6.49C19.9603 6.29 19.8103 6.12 19.7703 6.08C19.7203 6.05 19.6303 6.00002 19.5703 5.97002C19.4903 5.94002 19.4303 5.93 19.3103 5.92ZM42.1503 5.95C42.1103 5.95 41.9303 5.98001 41.7603 6.00001C41.5303 6.04001 41.4103 6.06001 41.3403 6.09001C41.2903 6.12001 41.2103 6.17 41.1603 6.2C41.1103 6.24 41.0403 6.30999 41.0103 6.34999C40.9703 6.40999 40.9003 6.57 40.8203 6.77C40.7503 6.95 40.6903 7.14002 40.6803 7.19002C40.6703 7.25002 40.6703 7.33 40.6803 7.39C40.6903 7.44 40.7003 7.50999 40.7003 7.53999C40.7103 7.55999 40.7303 7.62002 40.7603 7.66002C40.7803 7.71002 40.8903 7.87 41.0103 8.02C41.1603 8.21 41.2603 8.32 41.3203 8.36C41.3603 8.39 41.4503 8.43 41.5203 8.45C41.5803 8.48 41.6703 8.50001 41.7203 8.50001C41.7803 8.51001 41.9203 8.50001 42.1603 8.46001C42.4703 8.42001 42.5303 8.39999 42.6403 8.34999C42.7103 8.31999 42.7903 8.25002 42.8603 8.19002C42.9303 8.12002 42.9703 8.06001 43.0203 7.96001C43.0503 7.88001 43.1303 7.71 43.1803 7.58L43.2703 7.33V7.18001C43.2703 7.09001 43.2603 6.99002 43.2503 6.94002C43.2403 6.90002 43.2103 6.82001 43.1903 6.78001C43.1703 6.74001 43.0503 6.58001 42.9303 6.43001C42.7903 6.25001 42.6903 6.14 42.6303 6.11C42.5903 6.08 42.5303 6.04001 42.5003 6.03001C42.4703 6.01001 42.3903 5.98999 42.3403 5.97999C42.2803 5.95999 42.2003 5.95 42.1503 5.95ZM9.11028 6.34001C9.08028 6.34001 8.97029 6.35999 8.87029 6.37999C8.76029 6.38999 8.64027 6.42001 8.60027 6.43001C8.56027 6.44001 8.48029 6.46999 8.43029 6.50999C8.37029 6.53999 8.29028 6.62001 8.23028 6.68001C8.15028 6.77001 8.13029 6.81001 8.05029 7.00001C8.01029 7.12001 7.96031 7.24001 7.95031 7.28001C7.94031 7.32001 7.93029 7.39 7.93029 7.45C7.93029 7.5 7.94031 7.57999 7.95031 7.62999C7.96031 7.67999 7.99031 7.76001 8.01031 7.81001C8.03031 7.85001 8.1103 7.96999 8.1903 8.06999C8.2703 8.16999 8.36032 8.27001 8.40032 8.31001C8.44032 8.34001 8.5103 8.38001 8.5603 8.40001C8.6103 8.43001 8.69029 8.46002 8.74029 8.47002C8.78029 8.48002 8.86027 8.49 8.91027 8.49C8.95027 8.49 9.09032 8.48001 9.21032 8.46001C9.39032 8.43001 9.46029 8.41001 9.55029 8.37001C9.64029 8.32001 9.71028 8.28002 9.79028 8.19002C9.87028 8.10002 9.91031 8.04002 9.95031 7.94002C9.98031 7.87002 10.0303 7.75 10.0503 7.67C10.0903 7.56 10.1003 7.51 10.1003 7.39C10.1003 7.31 10.0903 7.21001 10.0803 7.15001C10.0603 7.10001 10.0303 7.03001 10.0203 7.00001C10.0003 6.96001 9.92032 6.86001 9.84032 6.75001C9.76032 6.65001 9.66028 6.53999 9.61028 6.50999C9.56028 6.46999 9.48029 6.43002 9.43029 6.41002C9.38029 6.39002 9.3003 6.36 9.2503 6.36C9.2003 6.35 9.14028 6.34001 9.11028 6.34001ZM31.8703 6.61C31.7903 6.61 31.7103 6.62001 31.6803 6.62001C31.6603 6.63001 31.3903 6.67001 31.0903 6.71001C30.6303 6.78001 30.5403 6.80001 30.4403 6.84001C30.3803 6.87001 30.3003 6.92999 30.2503 6.97999C30.2003 7.01999 30.1303 7.08999 30.1103 7.12999C30.0803 7.16999 29.9503 7.45999 29.8203 7.78999L29.5903 8.37999L29.5803 8.55C29.5803 8.68 29.5803 8.74 29.6103 8.83C29.6303 8.9 29.6703 8.99001 29.7103 9.03001C29.7403 9.08001 29.9303 9.32 30.1303 9.58C30.3503 9.86 30.5303 10.06 30.5803 10.1C30.6203 10.13 30.7103 10.18 30.7703 10.2C30.8703 10.24 30.9003 10.25 31.0603 10.25C31.2003 10.25 31.4003 10.23 31.8203 10.16C32.3203 10.08 32.4003 10.07 32.4903 10.02C32.5503 9.99 32.6403 9.93 32.6903 9.89C32.7403 9.84 32.8103 9.76001 32.8303 9.72001C32.8603 9.67001 32.9903 9.38 33.1203 9.05C33.3103 8.57 33.3503 8.43999 33.3603 8.34999C33.3603 8.26999 33.3603 8.19 33.3403 8.11C33.3303 8.04 33.3003 7.95002 33.2803 7.91002C33.2603 7.87002 33.0703 7.62 32.8603 7.36C32.6603 7.1 32.4603 6.87001 32.4303 6.84001C32.4003 6.81001 32.3503 6.75999 32.3103 6.72999C32.2703 6.70999 32.1903 6.67001 32.1203 6.65001C32.0403 6.62001 31.9803 6.61 31.8703 6.61ZM38.0803 8.22999C38.0203 8.22999 37.7003 8.27001 37.3803 8.31001C37.0603 8.36001 36.7603 8.42001 36.7203 8.43001C36.6803 8.45001 36.6003 8.49999 36.5403 8.53999C36.4803 8.57999 36.4003 8.66001 36.3703 8.71001C36.3103 8.77001 36.2403 8.95001 36.0603 9.40001L35.8203 10V10.2C35.8203 10.37 35.8203 10.42 35.8603 10.51C35.8903 10.59 35.9803 10.71 36.2703 11.08C36.4703 11.34 36.6803 11.59 36.7203 11.64C36.7603 11.68 36.8403 11.74 36.8903 11.77C36.9403 11.79 37.0303 11.83 37.0803 11.84C37.1303 11.86 37.2203 11.87 37.2803 11.87C37.3403 11.87 37.6503 11.83 37.9703 11.79C38.2903 11.74 38.5703 11.69 38.6103 11.68C38.6403 11.67 38.7003 11.64 38.7403 11.62C38.7803 11.6 38.8603 11.55 38.9103 11.5C38.9603 11.46 39.0203 11.39 39.0403 11.36C39.0703 11.32 39.2003 11.02 39.3203 10.7C39.4603 10.35 39.5603 10.07 39.5703 10.01C39.5903 9.93999 39.5803 9.87001 39.5703 9.78001C39.5603 9.71001 39.5303 9.61 39.5103 9.55C39.4803 9.49 39.3203 9.28 39.1003 8.99C38.9003 8.74 38.7003 8.50001 38.6703 8.46001C38.6303 8.42001 38.5503 8.36 38.5003 8.33C38.4403 8.3 38.3503 8.26001 38.2903 8.25001C38.2403 8.23001 38.1403 8.21999 38.0803 8.22999ZM9.1303 10.45C9.1003 10.45 8.91032 10.47 8.71032 10.5C8.50032 10.54 8.30032 10.57 8.27032 10.58C8.23032 10.59 8.16029 10.62 8.12029 10.65C8.08029 10.67 8.00031 10.73 7.95031 10.78C7.89031 10.83 7.8303 10.91 7.8103 10.94C7.7903 10.98 7.70029 11.18 7.62029 11.39C7.50029 11.71 7.47032 11.79 7.46032 11.89C7.46032 11.97 7.46028 12.05 7.48028 12.13C7.50028 12.19 7.53029 12.28 7.55029 12.32C7.57029 12.37 7.71027 12.55 7.85027 12.73C8.05027 12.98 8.13032 13.07 8.21032 13.12C8.27032 13.16 8.36027 13.2 8.41027 13.22C8.46027 13.23 8.56029 13.25 8.62029 13.26C8.71029 13.26 8.86031 13.25 9.14031 13.2C9.49031 13.15 9.55027 13.14 9.66027 13.08C9.73027 13.05 9.81029 12.99 9.87029 12.93C9.92029 12.88 9.98031 12.8 10.0103 12.75C10.0303 12.71 10.1203 12.52 10.1903 12.32L10.3303 11.96V11.77C10.3303 11.61 10.3303 11.56 10.2903 11.47C10.2703 11.39 10.1903 11.28 10.0103 11.05C9.87031 10.88 9.74031 10.71 9.70031 10.68C9.67031 10.64 9.59033 10.59 9.53033 10.56C9.46033 10.52 9.36028 10.48 9.29028 10.47C9.23028 10.46 9.1603 10.45 9.1303 10.45ZM21.1203 10.48C21.0503 10.48 20.9503 10.49 20.9003 10.5C20.8603 10.51 20.5703 10.55 20.2703 10.6C19.8303 10.66 19.6903 10.69 19.6203 10.72C19.5703 10.74 19.4903 10.8 19.4303 10.84C19.3803 10.88 19.3103 10.95 19.2903 11C19.2603 11.04 19.1303 11.35 18.9903 11.68C18.8603 12.01 18.7403 12.33 18.7303 12.39C18.7103 12.46 18.7103 12.53 18.7103 12.61C18.7203 12.68 18.7403 12.78 18.7603 12.84C18.7903 12.91 18.8303 12.98 18.8503 13.02C18.8803 13.06 19.0603 13.28 19.2503 13.52C19.4403 13.77 19.6303 14 19.6803 14.05C19.7303 14.1 19.8103 14.16 19.8603 14.19C19.9103 14.22 19.9903 14.26 20.0403 14.27C20.1003 14.29 20.1803 14.3 20.2403 14.3C20.2903 14.3 20.6203 14.25 20.9703 14.2C21.3103 14.15 21.6203 14.1 21.6403 14.1C21.6603 14.09 21.7303 14.06 21.7803 14.04C21.8403 14.01 21.9203 13.95 21.9703 13.91C22.0203 13.87 22.0803 13.8 22.1003 13.76C22.1303 13.72 22.2603 13.4 22.4003 13.06C22.5503 12.66 22.6503 12.39 22.6603 12.33C22.6703 12.27 22.6703 12.18 22.6603 12.11C22.6503 12.05 22.6303 11.96 22.6203 11.92C22.6003 11.88 22.5803 11.83 22.5603 11.8C22.5503 11.78 22.3603 11.54 22.1503 11.28C21.9403 11.01 21.7403 10.76 21.7003 10.71C21.6503 10.67 21.5803 10.61 21.5303 10.58C21.4703 10.56 21.3903 10.52 21.3403 10.51C21.2803 10.49 21.1903 10.48 21.1203 10.48ZM47.2403 10.48C47.2303 10.48 47.1503 10.49 47.0603 10.51C46.9403 10.52 46.8603 10.55 46.7703 10.59C46.6903 10.63 46.6103 10.69 46.5503 10.75C46.4903 10.8 46.4303 10.88 46.4103 10.92C46.3903 10.96 46.3503 11.06 46.3203 11.14C46.2703 11.27 46.2603 11.31 46.2603 11.44C46.2603 11.55 46.2703 11.63 46.2903 11.71C46.3103 11.77 46.3603 11.86 46.3903 11.91C46.4303 11.97 46.5003 12.06 46.5503 12.12C46.6303 12.2 46.6803 12.24 46.7803 12.29C46.8603 12.33 46.9603 12.37 47.0403 12.38C47.1303 12.4 47.1903 12.39 47.3303 12.37C47.4303 12.36 47.5403 12.34 47.5803 12.32C47.6103 12.31 47.6803 12.28 47.7203 12.25C47.7603 12.23 47.8203 12.18 47.8603 12.15C47.8903 12.11 47.9503 12.05 47.9703 12.01C48.0003 11.98 48.0503 11.88 48.0803 11.79C48.1103 11.71 48.1503 11.6 48.1603 11.54C48.1703 11.48 48.1703 11.4 48.1603 11.32C48.1503 11.25 48.1303 11.16 48.1103 11.12C48.1003 11.08 48.0603 11.01 48.0303 10.96C48.0003 10.91 47.9303 10.82 47.8703 10.76C47.7903 10.67 47.7303 10.63 47.6303 10.58C47.5403 10.54 47.4403 10.51 47.3803 10.5C47.3203 10.49 47.2603 10.48 47.2403 10.48ZM14.5603 10.61C14.4603 10.6 14.3003 10.62 13.9803 10.67L13.5403 10.73L13.4203 10.79C13.3403 10.83 13.2603 10.89 13.2003 10.95C13.1403 11 13.0803 11.08 13.0603 11.12C13.0403 11.15 12.9503 11.37 12.8603 11.6L12.7003 12.01L12.6903 12.16C12.6803 12.25 12.6903 12.35 12.7003 12.41C12.7103 12.46 12.7403 12.55 12.7703 12.6C12.8003 12.65 12.9503 12.86 13.1103 13.06C13.3403 13.34 13.4303 13.44 13.5103 13.49C13.5603 13.53 13.6503 13.57 13.7003 13.59C13.7503 13.61 13.8503 13.62 13.9103 13.63C13.9803 13.64 14.1503 13.62 14.4703 13.57C14.7103 13.53 14.9503 13.49 14.9903 13.48C15.0203 13.46 15.0903 13.43 15.1303 13.41C15.1703 13.38 15.2303 13.33 15.2703 13.3C15.3003 13.27 15.3603 13.21 15.3803 13.17C15.4103 13.13 15.5103 12.9 15.6003 12.66C15.7003 12.43 15.7803 12.19 15.7903 12.14C15.8103 12.06 15.8103 12 15.7903 11.9C15.7803 11.82 15.7503 11.72 15.7203 11.66C15.7003 11.6 15.5503 11.4 15.3703 11.17C15.1203 10.86 15.0503 10.78 14.9703 10.74C14.9203 10.71 14.8403 10.67 14.7903 10.65C14.7303 10.63 14.6403 10.61 14.5603 10.61ZM27.4103 10.82C27.3403 10.82 26.9303 10.87 26.5003 10.94C26.0703 11 25.6903 11.07 25.6403 11.08C25.5903 11.1 25.5203 11.14 25.4703 11.17C25.4203 11.2 25.3503 11.26 25.3003 11.31C25.2603 11.35 25.2103 11.42 25.1903 11.46C25.1703 11.5 25.0203 11.87 24.8603 12.29C24.6903 12.7 24.5503 13.09 24.5403 13.15C24.5303 13.22 24.5303 13.28 24.5403 13.38C24.5503 13.47 24.5803 13.56 24.6203 13.63C24.6503 13.69 24.8903 14.02 25.2003 14.4C25.6403 14.96 25.7503 15.08 25.8303 15.14C25.8803 15.17 25.9703 15.22 26.0403 15.24C26.1103 15.27 26.1803 15.28 26.2703 15.28C26.3403 15.28 26.7503 15.23 27.2003 15.16C27.6403 15.1 28.0203 15.03 28.0603 15.02C28.0903 15.01 28.1503 14.99 28.1903 14.96C28.2303 14.94 28.3003 14.89 28.3403 14.86C28.3803 14.83 28.4403 14.76 28.4703 14.72C28.5103 14.66 28.6303 14.36 28.8103 13.91C28.9703 13.52 29.1103 13.15 29.1303 13.08C29.1603 13 29.1803 12.92 29.1803 12.84C29.1803 12.78 29.1603 12.68 29.1503 12.63C29.1403 12.58 29.1103 12.5 29.0803 12.45C29.0603 12.41 28.8303 12.1 28.5703 11.78C28.3103 11.45 28.0703 11.15 28.0403 11.1C28.0003 11.05 27.9203 10.99 27.8603 10.95C27.8103 10.92 27.7103 10.87 27.6503 10.85C27.5803 10.83 27.5003 10.82 27.4103 10.82ZM43.6703 11.33C43.6403 11.33 43.4503 11.36 43.2403 11.39C42.9203 11.44 42.8403 11.45 42.7503 11.5C42.6703 11.54 42.6003 11.59 42.5203 11.68L42.4003 11.8L42.2403 12.19L42.0803 12.59V12.76C42.0803 12.88 42.0903 12.96 42.1103 13.02C42.1303 13.08 42.1603 13.14 42.1803 13.18C42.2003 13.21 42.3103 13.36 42.4403 13.52C42.5603 13.67 42.6903 13.82 42.7203 13.85C42.7503 13.88 42.8203 13.93 42.8603 13.95C42.9103 13.97 42.9803 14 43.0403 14.01C43.0903 14.03 43.1803 14.04 43.2303 14.04C43.2903 14.04 43.5003 14.02 43.6903 13.99C43.8703 13.96 44.0603 13.93 44.0903 13.92C44.1203 13.91 44.1803 13.88 44.2203 13.86C44.2603 13.84 44.3403 13.78 44.3803 13.74C44.4303 13.7 44.4903 13.63 44.5103 13.59C44.5403 13.55 44.6203 13.36 44.7003 13.17L44.8403 12.81L44.8503 12.65C44.8503 12.53 44.8503 12.46 44.8303 12.39C44.8103 12.33 44.7803 12.26 44.7603 12.22C44.7403 12.18 44.6203 12.02 44.4903 11.86C44.3703 11.7 44.2403 11.55 44.2103 11.53C44.1803 11.5 44.1003 11.45 44.0503 11.43C43.9903 11.4 43.9003 11.37 43.8403 11.35C43.7703 11.34 43.7003 11.33 43.6703 11.33ZM4.59032 11.47C4.52032 11.47 4.41032 11.48 4.34032 11.49C4.27032 11.5 4.1703 11.53 4.1303 11.54C4.0903 11.56 4.01032 11.61 3.96032 11.65C3.90032 11.69 3.83028 11.77 3.79028 11.81C3.76028 11.86 3.70028 11.97 3.67028 12.06C3.63028 12.14 3.60032 12.25 3.59032 12.31C3.58032 12.38 3.58032 12.46 3.59032 12.53C3.60032 12.6 3.62031 12.69 3.64031 12.74C3.66031 12.79 3.71031 12.89 3.76031 12.94C3.80031 13 3.87028 13.09 3.92028 13.14C3.97028 13.19 4.04032 13.24 4.09032 13.27C4.14032 13.29 4.22032 13.32 4.27032 13.34C4.32032 13.36 4.41029 13.37 4.49029 13.37C4.56029 13.37 4.6803 13.36 4.7503 13.34C4.8303 13.33 4.9403 13.29 5.0003 13.26C5.0603 13.23 5.15032 13.16 5.21032 13.1C5.28032 13.04 5.33029 12.96 5.37029 12.89C5.40029 12.83 5.44032 12.72 5.46032 12.64C5.50032 12.52 5.5103 12.49 5.5003 12.36C5.5003 12.28 5.48032 12.18 5.46032 12.13C5.45032 12.08 5.41029 12 5.37029 11.94C5.33029 11.89 5.26031 11.79 5.20031 11.73C5.14031 11.67 5.0603 11.6 5.0003 11.57C4.9503 11.54 4.8603 11.51 4.8103 11.49C4.7603 11.48 4.66032 11.46 4.59032 11.47ZM33.7703 11.96C33.7503 11.96 33.3703 12.01 32.9303 12.08L32.1303 12.2L32.0103 12.25C31.9403 12.28 31.8503 12.35 31.7903 12.4C31.7403 12.45 31.6703 12.53 31.6503 12.58C31.6203 12.62 31.4703 12.98 31.3203 13.37C31.1703 13.77 31.0303 14.13 31.0203 14.18C31.0103 14.23 31.0103 14.32 31.0103 14.39C31.0203 14.45 31.0403 14.54 31.0603 14.6C31.0703 14.65 31.1203 14.73 31.1503 14.78C31.1803 14.83 31.4203 15.13 31.6803 15.46C32.0503 15.93 32.1703 16.07 32.2403 16.12C32.2903 16.15 32.3803 16.19 32.4303 16.21C32.4803 16.23 32.5803 16.26 32.6503 16.26C32.7503 16.27 32.9303 16.24 33.5403 16.15C33.9603 16.09 34.3503 16.03 34.3903 16.02C34.4403 16 34.5303 15.96 34.5903 15.92C34.6503 15.88 34.7303 15.8 34.7803 15.75C34.8503 15.66 34.8903 15.56 35.1603 14.87L35.4703 14.1L35.4803 13.97C35.4803 13.87 35.4803 13.8 35.4603 13.72C35.4403 13.66 35.4203 13.58 35.4003 13.54C35.3803 13.51 35.1503 13.2 34.8903 12.87C34.6303 12.54 34.3803 12.24 34.3403 12.2C34.3003 12.16 34.2203 12.1 34.1603 12.06C34.0903 12.03 33.9903 11.99 33.9303 11.98C33.8603 11.97 33.7903 11.96 33.7703 11.96ZM39.7403 13.92V13.93C39.7203 13.93 39.4003 13.97 39.0303 14.03L38.3603 14.13L38.2403 14.18C38.1703 14.22 38.0903 14.27 38.0403 14.31C38.0003 14.35 37.9403 14.42 37.9103 14.46C37.8803 14.5 37.7403 14.82 37.6003 15.18C37.4203 15.64 37.3503 15.85 37.3403 15.92C37.3303 15.98 37.3403 16.07 37.3503 16.14C37.3603 16.21 37.3903 16.3 37.4203 16.36C37.4403 16.41 37.6503 16.69 37.8903 16.99C38.2403 17.43 38.3403 17.55 38.4103 17.6C38.4703 17.63 38.5603 17.68 38.6203 17.7C38.7003 17.73 38.7703 17.74 38.8603 17.74C38.9203 17.74 39.2603 17.7 39.6103 17.65C39.9603 17.6 40.2803 17.54 40.3203 17.53C40.3603 17.51 40.4303 17.48 40.4703 17.45C40.5203 17.42 40.5903 17.36 40.6403 17.31C40.6903 17.26 40.7403 17.19 40.7603 17.15C40.7803 17.11 40.9003 16.81 41.0303 16.47L41.2803 15.87V15.73C41.2903 15.65 41.2803 15.55 41.2703 15.5C41.2603 15.45 41.2303 15.37 41.2103 15.32C41.1903 15.28 41.0003 15.01 40.7803 14.74C40.5603 14.46 40.3503 14.21 40.3103 14.17C40.2803 14.13 40.1903 14.07 40.1303 14.03C40.0703 14 39.9603 13.96 39.9003 13.95C39.8403 13.93 39.7703 13.92 39.7403 13.92ZM16.6503 15.42C16.5803 15.42 16.2003 15.47 15.7903 15.53L15.0703 15.64L14.9403 15.7C14.8603 15.74 14.7803 15.79 14.7203 15.85C14.6603 15.91 14.6003 15.98 14.5803 16.02C14.5603 16.06 14.4203 16.42 14.2703 16.81L13.9803 17.51L13.9703 17.67C13.9703 17.8 13.9703 17.86 14.0003 17.94C14.0103 17.99 14.0403 18.07 14.0603 18.11C14.0903 18.15 14.3203 18.45 14.5803 18.78C14.8403 19.11 15.0903 19.41 15.1203 19.44C15.1603 19.46 15.2303 19.51 15.2903 19.54C15.3503 19.57 15.4503 19.6 15.5203 19.61L15.6303 19.63L16.4103 19.51C16.8403 19.45 17.2203 19.39 17.2703 19.38C17.3103 19.36 17.3903 19.32 17.4403 19.29C17.5003 19.25 17.5703 19.19 17.6103 19.15C17.6503 19.1 17.7003 19.04 17.7203 19C17.7403 18.96 17.8803 18.62 18.0203 18.24C18.1703 17.87 18.3003 17.53 18.3103 17.49C18.3203 17.46 18.3303 17.38 18.3303 17.33C18.3303 17.28 18.3203 17.19 18.3103 17.14C18.3003 17.09 18.2803 17.02 18.2603 16.97C18.2303 16.92 18.0103 16.62 17.7503 16.3C17.5003 15.98 17.2603 15.68 17.2203 15.64C17.1903 15.6 17.1103 15.55 17.0603 15.52C17.0103 15.49 16.9203 15.46 16.8703 15.44C16.8203 15.43 16.7303 15.42 16.6503 15.42ZM10.4303 15.61C10.3503 15.61 10.2003 15.62 10.0403 15.65C9.89028 15.67 9.6503 15.71 9.5003 15.73C9.2603 15.77 9.20027 15.78 9.10027 15.83C9.02027 15.87 8.9503 15.93 8.8803 16.01L8.77032 16.13L8.55029 16.66L8.33031 17.21V17.36C8.32031 17.45 8.33032 17.54 8.34032 17.6C8.35032 17.65 8.38032 17.74 8.40032 17.78C8.43032 17.83 8.60028 18.06 8.79028 18.31C9.08028 18.67 9.16029 18.76 9.24029 18.81C9.30029 18.85 9.3903 18.89 9.4403 18.91C9.4903 18.93 9.58031 18.95 9.64031 18.96C9.71031 18.96 9.89032 18.94 10.2703 18.89C10.5703 18.84 10.8503 18.79 10.9003 18.78C10.9503 18.76 11.0303 18.71 11.0903 18.67C11.1503 18.63 11.2203 18.56 11.2503 18.53C11.2803 18.49 11.3203 18.44 11.3303 18.41C11.3503 18.38 11.4503 18.13 11.5603 17.86C11.6703 17.57 11.7603 17.32 11.7703 17.26C11.7803 17.19 11.7803 17.12 11.7703 17.04C11.7603 16.98 11.7403 16.89 11.7203 16.84C11.7003 16.8 11.6603 16.73 11.6303 16.69C11.6103 16.65 11.4403 16.43 11.2603 16.21C11.0203 15.91 10.9203 15.8 10.8503 15.75C10.8003 15.72 10.7103 15.68 10.6603 15.65C10.6003 15.63 10.5003 15.61 10.4303 15.61ZM48.7503 15.65C48.6803 15.66 48.4803 15.68 48.3103 15.7C48.1303 15.73 47.9603 15.76 47.9203 15.77C47.8903 15.78 47.8203 15.81 47.7803 15.84C47.7403 15.86 47.6703 15.92 47.6203 15.97C47.5703 16.01 47.5103 16.08 47.4903 16.11C47.4703 16.14 47.3803 16.33 47.3103 16.53L47.1703 16.88L47.1603 17.03C47.1503 17.12 47.1603 17.22 47.1703 17.28C47.1803 17.33 47.2103 17.41 47.2303 17.46C47.2603 17.51 47.3803 17.67 47.5003 17.82C47.6203 17.98 47.7503 18.13 47.7803 18.16C47.8103 18.19 47.8803 18.24 47.9403 18.26C47.9903 18.29 48.0703 18.33 48.1203 18.34C48.1703 18.36 48.2603 18.37 48.3103 18.37C48.3603 18.37 48.5603 18.35 48.7503 18.32C48.9403 18.29 49.1203 18.26 49.1603 18.25C49.1903 18.24 49.2603 18.21 49.3103 18.18C49.3603 18.15 49.4403 18.09 49.4903 18.04C49.5403 17.99 49.6003 17.91 49.6203 17.87C49.6403 17.82 49.7203 17.63 49.7903 17.45C49.9103 17.15 49.9203 17.11 49.9303 16.98C49.9403 16.87 49.9303 16.8 49.9103 16.72C49.9003 16.66 49.8703 16.58 49.8403 16.54C49.8203 16.5 49.7103 16.35 49.5903 16.2C49.4703 16.05 49.3403 15.9 49.3003 15.86C49.2603 15.82 49.1903 15.77 49.1403 15.75C49.1003 15.73 49.0203 15.7 48.9703 15.68C48.9203 15.67 48.8203 15.65 48.7503 15.65ZM5.2503 15.8C5.1903 15.79 5.02033 15.81 4.78033 15.85C4.50033 15.89 4.37029 15.92 4.30029 15.95C4.25029 15.98 4.17029 16.02 4.12029 16.06C4.07029 16.1 4.00027 16.17 3.97027 16.22C3.93027 16.26 3.85032 16.44 3.77032 16.65C3.68032 16.86 3.62028 17.05 3.61028 17.12C3.59028 17.2 3.59028 17.27 3.61028 17.34C3.61028 17.4 3.63031 17.47 3.64031 17.5C3.65031 17.53 3.6703 17.59 3.6903 17.63C3.7203 17.67 3.83031 17.82 3.95031 17.97C4.07031 18.12 4.20029 18.27 4.24029 18.31C4.27029 18.34 4.36029 18.4 4.43029 18.43C4.50029 18.46 4.59027 18.49 4.66027 18.5C4.76027 18.52 4.84029 18.51 5.18029 18.46C5.51029 18.41 5.6003 18.39 5.6903 18.35C5.7503 18.32 5.84032 18.26 5.90032 18.2C5.96032 18.15 6.02028 18.07 6.04028 18.03C6.07028 17.99 6.15027 17.81 6.22027 17.62L6.36028 17.27L6.37029 17.13C6.37029 17.05 6.37027 16.95 6.35027 16.89C6.34027 16.84 6.32028 16.76 6.29028 16.71C6.27028 16.67 6.14031 16.49 6.01031 16.32C5.87031 16.15 5.74032 15.99 5.71032 15.97C5.68032 15.95 5.62032 15.91 5.58032 15.89C5.54032 15.88 5.47029 15.85 5.43029 15.83C5.38029 15.82 5.3003 15.8 5.2503 15.8ZM23.3303 15.92C23.2203 15.91 22.9903 15.94 22.2903 16.05L21.3903 16.18L21.2703 16.24C21.1903 16.28 21.1103 16.34 21.0503 16.4C20.9903 16.45 20.9303 16.52 20.9103 16.56C20.8903 16.6 20.7303 17.01 20.5403 17.48C20.3403 17.99 20.2003 18.36 20.1903 18.43C20.1803 18.5 20.1803 18.57 20.1903 18.65C20.2003 18.71 20.2303 18.81 20.2503 18.86C20.2703 18.93 20.4203 19.13 20.8503 19.67C21.1703 20.07 21.4503 20.42 21.4803 20.46C21.5203 20.49 21.6003 20.55 21.6803 20.59C21.7503 20.63 21.8603 20.66 21.9203 20.68L22.0403 20.7L22.9903 20.56L23.9403 20.42L24.0603 20.36C24.1303 20.33 24.2203 20.27 24.2803 20.21C24.3403 20.16 24.4003 20.08 24.4203 20.04C24.4503 19.99 24.6203 19.57 24.8003 19.11L25.1403 18.26V18.06C25.1403 17.88 25.1403 17.83 25.1003 17.75C25.0803 17.7 25.0203 17.6 24.9603 17.52C24.9103 17.45 24.6403 17.11 24.3603 16.76C23.9503 16.24 23.8403 16.11 23.7603 16.06C23.7103 16.03 23.6203 15.98 23.5603 15.96C23.5003 15.94 23.4103 15.92 23.3303 15.92ZM44.4303 16.29C44.3303 16.28 44.1703 16.3 43.8603 16.35C43.5003 16.4 43.3903 16.43 43.3103 16.47C43.2603 16.49 43.1803 16.54 43.1303 16.58C43.0903 16.61 43.0303 16.68 42.9903 16.72C42.9503 16.78 42.8903 16.92 42.7603 17.23C42.6703 17.47 42.5803 17.69 42.5703 17.72C42.5603 17.74 42.5503 17.83 42.5503 17.91C42.5503 17.99 42.5703 18.09 42.5803 18.14C42.6003 18.2 42.6303 18.27 42.6403 18.3C42.6603 18.33 42.8003 18.52 42.9603 18.73C43.1303 18.93 43.2803 19.11 43.3103 19.13C43.3403 19.16 43.3903 19.19 43.4203 19.21C43.4503 19.23 43.5303 19.26 43.5903 19.28C43.6703 19.31 43.7403 19.32 43.8303 19.32C43.9003 19.32 44.1503 19.29 44.3903 19.25C44.7703 19.2 44.8503 19.18 44.9403 19.13C45.0003 19.1 45.0803 19.05 45.1303 19.01C45.1803 18.96 45.2403 18.89 45.2703 18.85C45.3003 18.8 45.4003 18.57 45.4903 18.33L45.6703 17.9V17.75C45.6803 17.64 45.6703 17.57 45.6503 17.49C45.6403 17.43 45.6103 17.35 45.5903 17.32C45.5803 17.28 45.4203 17.08 45.2503 16.87C44.9903 16.54 44.9203 16.47 44.8403 16.42C44.7903 16.39 44.7103 16.35 44.6603 16.33C44.6003 16.31 44.5103 16.29 44.4303 16.29ZM29.8803 16.64C29.8503 16.64 29.3703 16.71 28.8203 16.79C28.2603 16.87 27.7703 16.95 27.7303 16.97C27.6903 16.98 27.6203 17.02 27.5703 17.05C27.5203 17.09 27.4503 17.15 27.4103 17.19C27.3703 17.23 27.3203 17.29 27.3003 17.33C27.2803 17.37 27.1003 17.84 26.8903 18.37L26.5103 19.33L26.5003 19.46C26.4903 19.53 26.5003 19.63 26.5103 19.69C26.5203 19.75 26.5503 19.84 26.5703 19.89C26.5903 19.93 26.9003 20.33 27.2503 20.78C27.6003 21.22 27.9103 21.61 27.9503 21.65C27.9803 21.68 28.0703 21.74 28.1403 21.78C28.2203 21.82 28.3203 21.85 28.3903 21.86L28.5003 21.88L29.5503 21.73C30.1303 21.64 30.6303 21.57 30.6703 21.56C30.7003 21.54 30.7603 21.52 30.8103 21.49C30.8603 21.47 30.9403 21.4 31.0103 21.34C31.0703 21.28 31.1303 21.2 31.1503 21.16C31.1603 21.12 31.3403 20.67 31.5503 20.16C31.7503 19.64 31.9303 19.19 31.9403 19.16C31.9503 19.12 31.9603 19.05 31.9603 18.99C31.9603 18.94 31.9503 18.86 31.9403 18.81C31.9303 18.76 31.9003 18.67 31.8703 18.61C31.8303 18.54 31.5703 18.2 31.1603 17.68C30.8103 17.23 30.4803 16.84 30.4503 16.81C30.4103 16.78 30.3503 16.75 30.3203 16.73C30.2803 16.71 30.2203 16.68 30.1903 16.67C30.1503 16.66 30.0803 16.65 30.0303 16.64C29.9803 16.64 29.9203 16.63 29.8803 16.64ZM36.3203 18.01C36.2703 18.02 35.8203 18.08 35.3203 18.15L34.4303 18.28L34.3203 18.34C34.2603 18.37 34.1703 18.43 34.1103 18.48C34.0603 18.53 33.9903 18.61 33.9703 18.65C33.9403 18.7 33.7703 19.11 33.5903 19.58L33.2503 20.43V20.59C33.2403 20.73 33.2503 20.78 33.2803 20.87C33.2903 20.94 33.3303 21.02 33.3603 21.06C33.3903 21.11 33.6603 21.46 33.9703 21.85C34.4003 22.39 34.5503 22.56 34.6203 22.61C34.6703 22.65 34.7503 22.69 34.8003 22.71C34.8603 22.73 34.9403 22.76 34.9903 22.76C35.0803 22.78 35.2103 22.76 36.0103 22.64C36.5203 22.57 36.9703 22.5 37.0203 22.48C37.0603 22.47 37.1403 22.43 37.1903 22.4C37.2403 22.37 37.3203 22.3 37.3703 22.24L37.4603 22.14L37.7103 21.53C37.8403 21.19 38.0003 20.78 38.0703 20.62L38.1803 20.31V20.16C38.1803 20.05 38.1703 19.97 38.1503 19.89C38.1303 19.83 38.0903 19.75 38.0703 19.72C38.0403 19.68 37.7803 19.34 37.4803 18.97C37.1903 18.6 36.9203 18.26 36.8903 18.23C36.8503 18.2 36.7803 18.15 36.7203 18.12C36.6703 18.09 36.5803 18.05 36.5303 18.04C36.4703 18.02 36.3803 18.01 36.3203 18.01ZM1.40032 18.06C1.32032 18.06 1.2403 18.08 1.1903 18.09C1.1403 18.11 1.06031 18.15 1.01031 18.18C0.970308 18.21 0.890325 18.28 0.840325 18.33C0.790325 18.38 0.74032 18.46 0.71032 18.51C0.69032 18.56 0.660322 18.65 0.650322 18.71C0.640322 18.79 0.640322 18.86 0.650322 18.94C0.660322 19.01 0.69032 19.1 0.71032 19.15C0.72032 19.2 0.760276 19.27 0.790276 19.3C0.810276 19.33 0.860312 19.39 0.890312 19.42C0.920312 19.45 0.990276 19.5 1.04028 19.52C1.10028 19.55 1.18029 19.58 1.24029 19.6C1.31029 19.62 1.38028 19.62 1.48028 19.62C1.59028 19.61 1.64029 19.6 1.74029 19.55C1.81029 19.52 1.91032 19.46 1.96032 19.41C2.00032 19.37 2.07032 19.3 2.09032 19.26C2.11032 19.22 2.15028 19.14 2.17028 19.09C2.19028 19.03 2.20031 18.97 2.20031 18.86C2.20031 18.77 2.19028 18.68 2.17028 18.61C2.15028 18.55 2.11032 18.47 2.09032 18.43C2.07032 18.39 2.01032 18.32 1.96032 18.28C1.92032 18.24 1.84029 18.18 1.80029 18.16C1.75029 18.14 1.67029 18.11 1.62029 18.09C1.57029 18.08 1.47032 18.06 1.40032 18.06ZM41.8303 20.27V20.28C41.7203 20.27 41.5303 20.29 41.0303 20.37C40.4503 20.46 40.3703 20.47 40.2803 20.52C40.2203 20.55 40.1303 20.61 40.0903 20.65C40.0403 20.69 39.9803 20.76 39.9503 20.81C39.9203 20.85 39.7803 21.17 39.6503 21.52L39.4003 22.14L39.3903 22.29C39.3803 22.37 39.3903 22.47 39.4003 22.53C39.4103 22.58 39.4403 22.66 39.4603 22.7C39.4803 22.75 39.7003 23.03 39.9303 23.33C40.2803 23.77 40.3903 23.89 40.4603 23.94C40.5203 23.98 40.6003 24.02 40.6503 24.04C40.7103 24.06 40.8003 24.08 40.8703 24.08C40.9603 24.09 41.1603 24.06 41.6503 23.99L42.3103 23.9L42.4403 23.84C42.5103 23.8 42.6003 23.75 42.6603 23.69C42.7103 23.64 42.7703 23.56 42.8003 23.51C42.8203 23.47 42.9503 23.16 43.0803 22.82L43.3303 22.21V22.07C43.3403 21.99 43.3303 21.89 43.3203 21.83C43.3103 21.78 43.2803 21.7 43.2603 21.65C43.2403 21.6 43.0303 21.32 42.7903 21.02C42.4503 20.59 42.3403 20.47 42.2703 20.42C42.2103 20.38 42.1203 20.33 42.0703 20.31C42.0103 20.29 41.9203 20.28 41.8303 20.27ZM12.7403 20.81C12.6703 20.8 12.4603 20.82 12.0403 20.89C11.7103 20.94 11.4003 20.99 11.3603 21C11.3203 21.01 11.2403 21.05 11.1903 21.08C11.1403 21.12 11.0703 21.18 11.0303 21.21C10.9903 21.25 10.9503 21.3 10.9203 21.34C10.9003 21.37 10.7803 21.66 10.6603 21.98C10.5303 22.3 10.4203 22.61 10.4103 22.66C10.4003 22.73 10.4003 22.8 10.4103 22.89C10.4203 22.97 10.4503 23.07 10.4703 23.13C10.5003 23.19 10.6703 23.42 10.8803 23.69C11.0803 23.94 11.2703 24.18 11.3203 24.22C11.3603 24.27 11.4403 24.33 11.4903 24.35C11.5403 24.38 11.6303 24.42 11.6803 24.43C11.7303 24.45 11.8203 24.46 11.8703 24.46C11.9303 24.46 12.2503 24.42 12.5903 24.37C13.1003 24.29 13.2203 24.27 13.3003 24.23C13.3503 24.2 13.4303 24.16 13.4803 24.12C13.5203 24.08 13.5903 24.02 13.6203 23.97C13.6703 23.91 13.7603 23.7 13.9203 23.28L14.1603 22.69L14.1703 22.54C14.1803 22.45 14.1703 22.35 14.1603 22.29C14.1503 22.23 14.1203 22.15 14.0903 22.1C14.0703 22.05 13.8703 21.79 13.6503 21.51C13.3203 21.1 13.2403 21 13.1503 20.95C13.1003 20.91 13.0003 20.86 12.9403 20.85C12.8803 20.83 12.7903 20.81 12.7403 20.81ZM18.9103 20.98C18.8703 20.98 18.4703 21.04 18.0203 21.11L17.1903 21.23L17.0603 21.3C16.9803 21.33 16.9003 21.39 16.8403 21.45C16.7903 21.51 16.7203 21.58 16.7103 21.62C16.6903 21.66 16.5303 22.04 16.3603 22.47L16.0503 23.25L16.0403 23.39C16.0403 23.49 16.0403 23.57 16.0603 23.65C16.0803 23.71 16.1103 23.79 16.1403 23.83C16.1603 23.88 16.4103 24.2 16.6903 24.55C16.9703 24.9 17.2303 25.21 17.2603 25.25C17.3003 25.28 17.3903 25.34 17.4503 25.37C17.5203 25.4 17.6203 25.43 17.6803 25.44C17.7603 25.45 17.8303 25.45 17.9203 25.44C17.9903 25.43 18.3903 25.38 18.8003 25.31L19.5403 25.21L19.6503 25.15C19.7103 25.12 19.8003 25.06 19.8603 25.01C19.9103 24.95 19.9803 24.88 20.0003 24.84C20.0203 24.8 20.1803 24.42 20.3503 23.99L20.6603 23.21L20.6703 23.06C20.6703 22.97 20.6703 22.86 20.6503 22.81C20.6403 22.76 20.6203 22.68 20.5903 22.63C20.5603 22.58 20.3103 22.24 20.0203 21.88C19.7303 21.51 19.4703 21.19 19.4303 21.17C19.4003 21.14 19.3303 21.1 19.2803 21.07C19.2303 21.05 19.1403 21.02 19.0803 21C19.0203 20.99 18.9403 20.98 18.9103 20.98ZM7.12029 21.04C7.05029 21.04 6.87032 21.06 6.52032 21.11L6.02032 21.18L5.90032 21.24C5.84032 21.27 5.75031 21.33 5.70031 21.37C5.66031 21.41 5.60031 21.48 5.57031 21.52C5.54031 21.56 5.44032 21.81 5.33032 22.07L5.14031 22.55L5.1303 22.7C5.1303 22.78 5.14032 22.88 5.15032 22.93C5.16032 22.98 5.18031 23.06 5.20031 23.11C5.22031 23.15 5.38028 23.36 5.54028 23.56C5.71028 23.77 5.88028 23.98 5.92028 24.01C5.96028 24.05 6.03032 24.1 6.08032 24.13C6.12032 24.15 6.2003 24.18 6.2503 24.19C6.3003 24.21 6.39031 24.22 6.45031 24.22C6.50031 24.22 6.7503 24.19 7.0003 24.15C7.2603 24.12 7.4803 24.08 7.5003 24.07C7.5303 24.07 7.59031 24.04 7.64031 24.02C7.69031 23.99 7.78032 23.93 7.83032 23.89C7.88032 23.85 7.94032 23.78 7.96032 23.74C7.99032 23.7 8.10031 23.45 8.20031 23.19L8.39031 22.7L8.40032 22.56C8.41032 22.46 8.4003 22.38 8.3803 22.31C8.3703 22.25 8.3403 22.16 8.3103 22.13C8.2903 22.09 8.13031 21.87 7.95031 21.65C7.69031 21.32 7.61033 21.23 7.53033 21.18C7.48033 21.15 7.39032 21.1 7.33032 21.08C7.27032 21.07 7.18029 21.05 7.12029 21.04ZM47.4303 21.12C47.3503 21.12 47.0203 21.16 46.6903 21.21L46.1003 21.3L45.9903 21.36C45.9303 21.39 45.8303 21.46 45.7803 21.51C45.7203 21.56 45.6603 21.64 45.6403 21.69C45.6203 21.73 45.5003 22.03 45.3703 22.34L45.1503 22.91L45.1403 23.06C45.1403 23.17 45.1403 23.25 45.1603 23.32C45.1803 23.38 45.2103 23.47 45.2403 23.51C45.2603 23.55 45.4603 23.8 45.6703 24.07C45.8803 24.34 46.0803 24.57 46.1103 24.6C46.1403 24.62 46.2003 24.66 46.2503 24.68C46.2903 24.71 46.3803 24.74 46.4303 24.75C46.4803 24.77 46.5603 24.78 46.6103 24.78C46.6603 24.78 46.9803 24.74 47.3203 24.69C47.6503 24.64 47.9603 24.59 48.0003 24.57C48.0403 24.56 48.1103 24.52 48.1603 24.48C48.2103 24.45 48.2803 24.39 48.3103 24.36C48.3503 24.32 48.3903 24.26 48.4203 24.22C48.4403 24.18 48.5603 23.88 48.6903 23.56C48.8803 23.09 48.9203 22.96 48.9303 22.87C48.9403 22.81 48.9303 22.71 48.9203 22.66C48.9103 22.61 48.8903 22.52 48.8703 22.47C48.8403 22.4 48.7303 22.25 48.4303 21.86C48.2003 21.58 47.9903 21.33 47.9603 21.3C47.9303 21.27 47.8603 21.23 47.8103 21.2C47.7503 21.18 47.6803 21.15 47.6403 21.14C47.6003 21.12 47.5103 21.12 47.4303 21.12ZM51.7303 21.63C51.6303 21.63 51.5003 21.64 51.3803 21.66C51.2503 21.68 51.1603 21.71 51.0803 21.74C51.0203 21.77 50.9303 21.84 50.8803 21.89C50.8203 21.95 50.7503 22.03 50.7303 22.08C50.7103 22.13 50.6503 22.25 50.6203 22.35C50.5703 22.48 50.5403 22.57 50.5403 22.65C50.5303 22.73 50.5403 22.81 50.5503 22.89C50.5703 22.95 50.6003 23.03 50.6203 23.07C50.6403 23.12 50.7203 23.23 50.8003 23.33C50.8903 23.44 50.9803 23.54 51.0403 23.58C51.0903 23.61 51.1703 23.66 51.2303 23.68C51.2903 23.7 51.3803 23.72 51.4403 23.72C51.5103 23.73 51.6203 23.72 51.7703 23.7C51.9303 23.67 52.0303 23.64 52.1103 23.61C52.1703 23.58 52.2603 23.52 52.3203 23.46C52.3703 23.41 52.4403 23.33 52.4603 23.3C52.4803 23.26 52.5303 23.14 52.5803 23.03C52.6303 22.89 52.6603 22.79 52.6603 22.71C52.6703 22.65 52.6703 22.56 52.6603 22.51C52.6503 22.46 52.6203 22.37 52.6003 22.32C52.5803 22.26 52.5103 22.16 52.4103 22.04C52.3303 21.93 52.2303 21.82 52.1803 21.79C52.1403 21.76 52.0503 21.71 51.9903 21.68C51.9103 21.65 51.8503 21.64 51.7303 21.63ZM2.30029 21.85C2.27029 21.85 2.11031 21.87 1.95031 21.9C1.78031 21.92 1.63031 21.96 1.58031 21.98C1.53031 22 1.46027 22.05 1.41027 22.08C1.36027 22.12 1.2903 22.19 1.2503 22.24C1.2103 22.3 1.14031 22.44 1.07031 22.61C1.01031 22.76 0.9503 22.94 0.9403 22.99C0.9303 23.07 0.9303 23.13 0.9403 23.22C0.9503 23.29 0.970288 23.38 0.990288 23.43C1.01029 23.48 1.09028 23.6 1.17028 23.7C1.25028 23.81 1.36032 23.93 1.40032 23.99C1.45032 24.04 1.53031 24.11 1.58031 24.14C1.62031 24.16 1.71032 24.2 1.77032 24.22C1.83032 24.24 1.93029 24.25 1.99029 24.25C2.06029 24.25 2.2303 24.24 2.3803 24.21C2.6103 24.18 2.68032 24.16 2.77032 24.12C2.84032 24.08 2.93029 24.02 2.99029 23.96C3.05029 23.9 3.1103 23.82 3.1303 23.77C3.1603 23.73 3.22033 23.57 3.28033 23.43C3.35033 23.23 3.3703 23.15 3.3803 23.06C3.3903 22.98 3.38028 22.89 3.36028 22.81C3.35028 22.74 3.32028 22.65 3.29028 22.61C3.27028 22.57 3.17031 22.44 3.07031 22.31C2.97031 22.19 2.87032 22.06 2.84032 22.04C2.81032 22.02 2.7403 21.97 2.6903 21.95C2.6303 21.92 2.53027 21.88 2.47027 21.87C2.41027 21.86 2.33029 21.85 2.30029 21.85ZM25.4103 21.95C25.3903 21.95 24.9703 22.01 24.4803 22.08C23.9903 22.16 23.5603 22.23 23.5303 22.24C23.4903 22.25 23.4303 22.28 23.3903 22.3C23.3403 22.33 23.2703 22.38 23.2203 22.43C23.1703 22.48 23.1103 22.55 23.0903 22.58C23.0703 22.62 22.9003 23.03 22.7203 23.49L22.3803 24.33V24.48C22.3703 24.57 22.3703 24.67 22.3903 24.73C22.4003 24.78 22.4303 24.86 22.4503 24.91C22.4703 24.96 22.7503 25.32 23.0703 25.72C23.4903 26.25 23.6603 26.45 23.7203 26.49C23.7703 26.52 23.8603 26.57 23.9203 26.59C23.9903 26.62 24.0703 26.64 24.1503 26.64C24.2503 26.65 24.4803 26.62 25.1603 26.52C25.6403 26.45 26.0703 26.38 26.1003 26.37C26.1403 26.36 26.2003 26.33 26.2503 26.3C26.2903 26.27 26.3603 26.22 26.4003 26.19C26.4403 26.15 26.5003 26.08 26.5203 26.04C26.5503 26 26.7203 25.59 26.9003 25.14C27.0703 24.68 27.2303 24.28 27.2403 24.25C27.2503 24.21 27.2603 24.13 27.2603 24.08C27.2603 24.02 27.2403 23.93 27.2303 23.87C27.2203 23.81 27.1903 23.73 27.1703 23.69C27.1503 23.65 26.8803 23.3 26.5603 22.9C26.2503 22.51 25.9703 22.16 25.9403 22.14C25.9003 22.11 25.8303 22.07 25.7803 22.04C25.7303 22.02 25.6403 21.99 25.5803 21.97C25.5203 21.96 25.4403 21.95 25.4203 21.95H25.4103ZM32.2903 22.91C32.2103 22.9 31.9203 22.94 31.2203 23.04L30.2503 23.19L30.1203 23.25C30.0503 23.29 29.9703 23.35 29.9003 23.4C29.8503 23.46 29.7903 23.54 29.7703 23.58C29.7503 23.62 29.5703 24.05 29.3803 24.55C29.0803 25.3 29.0203 25.46 29.0103 25.56C29.0003 25.63 29.0103 25.71 29.0303 25.79C29.0403 25.86 29.0703 25.95 29.0803 25.99C29.1003 26.03 29.3903 26.41 29.7303 26.83C30.0703 27.26 30.3803 27.63 30.4103 27.66C30.4503 27.69 30.5303 27.74 30.5803 27.76C30.6303 27.78 30.7203 27.81 30.7903 27.83L30.9103 27.85L31.2103 27.81C31.3703 27.79 31.8003 27.73 32.1503 27.67C32.5003 27.62 32.8303 27.57 32.8803 27.56C32.9203 27.55 32.9903 27.53 33.0403 27.51C33.0803 27.48 33.1603 27.43 33.2003 27.4C33.2503 27.36 33.3203 27.29 33.3503 27.24C33.3903 27.18 33.5403 26.83 33.7703 26.24C33.9703 25.74 34.1403 25.29 34.1503 25.24C34.1603 25.17 34.1603 25.1 34.1403 25C34.1303 24.91 34.1103 24.84 34.0603 24.75C34.0203 24.67 33.8003 24.37 33.4003 23.87C32.8803 23.22 32.7803 23.11 32.7003 23.05C32.6403 23.01 32.5503 22.97 32.4903 22.95C32.4303 22.93 32.3403 22.91 32.2903 22.91ZM38.6903 24.71C38.6303 24.7 38.5503 24.71 38.5003 24.71C38.4603 24.72 38.1103 24.77 37.7303 24.83C37.3003 24.89 36.9903 24.95 36.9303 24.97C36.8803 24.99 36.8003 25.04 36.7403 25.08C36.6903 25.12 36.6203 25.19 36.5803 25.24C36.5303 25.3 36.4403 25.5 36.2303 26.05C36.0703 26.44 35.9303 26.81 35.9203 26.86C35.9003 26.9 35.8903 26.99 35.8903 27.04C35.8903 27.09 35.9003 27.18 35.9103 27.23C35.9203 27.28 35.9503 27.36 35.9703 27.4C35.9903 27.45 36.2103 27.76 36.5003 28.12C36.7703 28.46 37.0203 28.77 37.0603 28.8C37.0903 28.83 37.1703 28.88 37.2303 28.9C37.2903 28.93 37.3903 28.97 37.4603 28.98L37.6003 29.01L38.4003 28.89C38.8503 28.82 39.2403 28.76 39.2803 28.74C39.3203 28.73 39.3803 28.7 39.4203 28.68C39.4603 28.65 39.5303 28.6 39.5803 28.56C39.6203 28.52 39.6703 28.45 39.7003 28.42C39.7203 28.38 39.8703 28.01 40.0403 27.59C40.2703 27 40.3403 26.81 40.3503 26.73C40.3503 26.67 40.3503 26.57 40.3403 26.5C40.3203 26.43 40.2903 26.33 40.2603 26.28C40.2303 26.22 39.9903 25.89 39.7103 25.55C39.3303 25.06 39.2003 24.91 39.1203 24.86C39.0703 24.82 38.9803 24.78 38.9203 24.75C38.8603 24.73 38.7603 24.71 38.6903 24.71ZM15.1903 25.58C15.1303 25.58 14.8103 25.62 14.4703 25.67L13.8603 25.76L13.7503 25.82C13.6903 25.85 13.6003 25.91 13.5403 25.98C13.4803 26.03 13.4203 26.11 13.4003 26.15C13.3803 26.18 13.2703 26.46 13.1503 26.76C13.0303 27.06 12.9203 27.34 12.9103 27.39C12.9003 27.44 12.8903 27.53 12.8903 27.57C12.8903 27.62 12.9003 27.71 12.9103 27.76C12.9303 27.82 12.9503 27.9 12.9703 27.94C12.9903 27.98 13.1903 28.24 13.4103 28.52C13.6303 28.8 13.8403 29.05 13.8703 29.07C13.9103 29.1 13.9903 29.15 14.0503 29.18C14.1103 29.21 14.2103 29.24 14.2703 29.25L14.3803 29.27L15.0403 29.17L15.6903 29.07L15.8203 29.01C15.9103 28.97 15.9803 28.92 16.0503 28.85C16.1103 28.79 16.1703 28.71 16.1903 28.67C16.2103 28.64 16.3303 28.34 16.4603 28.01L16.6903 27.42V27.28C16.6903 27.21 16.6803 27.11 16.6703 27.06C16.6603 27 16.6303 26.92 16.6003 26.88C16.5803 26.83 16.3803 26.57 16.1703 26.3C15.9603 26.03 15.7603 25.8 15.7203 25.77C15.6903 25.74 15.6303 25.7 15.5803 25.67C15.5403 25.65 15.4603 25.62 15.4003 25.6C15.3503 25.59 15.2503 25.58 15.1903 25.58ZM44.6103 26.06H44.5303C44.5003 26.07 44.2003 26.11 43.8503 26.16L43.2103 26.26L43.1103 26.31C43.0503 26.34 42.9503 26.4 42.9003 26.46C42.8403 26.51 42.7803 26.58 42.7503 26.62C42.7303 26.66 42.6003 26.96 42.4703 27.3C42.3403 27.63 42.2303 27.95 42.2103 28.01C42.2003 28.08 42.2003 28.14 42.2103 28.25C42.2303 28.33 42.2603 28.43 42.2903 28.49C42.3203 28.55 42.5003 28.79 42.7503 29.12C43.0803 29.53 43.1903 29.66 43.2703 29.71C43.3203 29.75 43.4103 29.8 43.4703 29.82C43.5303 29.84 43.6203 29.86 43.7003 29.87C43.7903 29.87 43.9803 29.85 44.4703 29.78L45.1303 29.68L45.2503 29.63C45.3103 29.59 45.4103 29.54 45.4503 29.5C45.4903 29.46 45.5503 29.39 45.5803 29.35C45.6103 29.31 45.7503 28.99 45.8903 28.64L46.1403 28.01L46.1503 27.86C46.1603 27.77 46.1503 27.67 46.1403 27.61C46.1303 27.56 46.1003 27.48 46.0703 27.43C46.0503 27.38 45.8503 27.11 45.6203 26.84C45.4003 26.56 45.1903 26.3 45.1503 26.27C45.1203 26.23 45.0403 26.18 44.9803 26.15C44.9203 26.13 44.8303 26.09 44.7703 26.08C44.7003 26.07 44.6303 26.06 44.6103 26.06ZM10.2803 26.17C10.2303 26.18 9.87027 26.23 9.47027 26.29L8.74029 26.39L8.62029 26.45C8.55029 26.48 8.46032 26.54 8.40032 26.6C8.34032 26.65 8.2803 26.73 8.2503 26.78C8.2303 26.82 8.08029 27.17 7.93029 27.56C7.69029 28.17 7.66032 28.26 7.65032 28.37C7.64032 28.44 7.65027 28.54 7.66027 28.6C7.67027 28.66 7.70027 28.75 7.72027 28.79C7.74027 28.84 7.96032 29.13 8.21032 29.44C8.45032 29.75 8.68028 30.03 8.73028 30.08C8.77028 30.12 8.85032 30.18 8.90032 30.21C8.95032 30.24 9.04027 30.27 9.10027 30.29C9.15027 30.3 9.23033 30.31 9.28033 30.31C9.32033 30.31 9.5603 30.28 9.8203 30.24C10.0703 30.21 10.4103 30.16 10.5703 30.13C10.8003 30.1 10.8803 30.08 10.9703 30.04C11.0303 30.01 11.1203 29.94 11.1803 29.89C11.2403 29.83 11.3103 29.75 11.3303 29.71C11.3503 29.66 11.5003 29.31 11.6503 28.93L11.9303 28.23V28.11C11.9403 28.04 11.9303 27.94 11.9203 27.89C11.9103 27.83 11.8803 27.75 11.8603 27.7C11.8403 27.65 11.6103 27.35 11.3403 27C11.0703 26.67 10.8303 26.38 10.8003 26.36C10.7703 26.33 10.7003 26.29 10.6503 26.27C10.6003 26.24 10.5203 26.21 10.4603 26.2C10.4003 26.18 10.3203 26.17 10.2803 26.17ZM21.2303 26.86C21.1003 26.85 20.8903 26.88 20.0103 27.01L18.9503 27.17L18.8503 27.23C18.7903 27.25 18.7003 27.31 18.6603 27.35C18.6103 27.4 18.5503 27.46 18.5203 27.5C18.4903 27.54 18.2903 28.03 18.0703 28.59C17.8503 29.15 17.6603 29.65 17.6503 29.71C17.6403 29.78 17.6403 29.84 17.6503 29.94C17.6603 30.04 17.6903 30.12 17.7303 30.19C17.7603 30.26 18.0303 30.62 18.4603 31.16C19.0403 31.88 19.1603 32.03 19.2403 32.09C19.3003 32.12 19.3903 32.17 19.4503 32.19C19.5303 32.21 19.6003 32.23 19.6803 32.23C19.7503 32.23 20.2703 32.16 20.8403 32.07C21.4103 31.99 21.9103 31.91 21.9603 31.9C22.0003 31.88 22.1003 31.83 22.1603 31.79C22.2303 31.75 22.3103 31.67 22.3503 31.62C22.4103 31.54 22.4903 31.35 22.8303 30.49C23.1103 29.78 23.2403 29.43 23.2503 29.36C23.2603 29.29 23.2603 29.21 23.2503 29.14C23.2403 29.08 23.2203 28.98 23.2003 28.93C23.1803 28.87 23.0903 28.74 22.9003 28.5C22.7503 28.32 22.4403 27.92 22.2003 27.62C21.9203 27.27 21.7303 27.05 21.6803 27.01C21.6303 26.98 21.5503 26.93 21.4903 26.91C21.4003 26.87 21.3403 26.86 21.2303 26.86ZM49.9303 26.88C49.8403 26.87 49.6903 26.88 49.4603 26.92C49.2803 26.95 49.0903 26.99 49.0403 27.01C49.0003 27.02 48.9103 27.08 48.8503 27.12C48.8003 27.16 48.7203 27.24 48.6903 27.29C48.6403 27.35 48.5703 27.51 48.4803 27.73C48.3503 28.05 48.3403 28.09 48.3303 28.22C48.3303 28.29 48.3303 28.39 48.3403 28.45C48.3503 28.5 48.3803 28.58 48.4003 28.63C48.4303 28.68 48.5403 28.84 48.6603 28.98C48.7703 29.13 48.9003 29.28 48.9403 29.32C48.9903 29.36 49.0603 29.41 49.1003 29.44C49.1503 29.46 49.2303 29.49 49.2803 29.5C49.3303 29.52 49.4103 29.53 49.4603 29.53C49.5203 29.53 49.7203 29.51 49.9103 29.48C50.2003 29.44 50.2703 29.42 50.3703 29.37C50.4403 29.34 50.5303 29.28 50.5803 29.24C50.6303 29.19 50.6903 29.12 50.7203 29.08C50.7503 29.03 50.8303 28.84 50.9103 28.64L51.0503 28.29V28.13C51.0503 28.02 51.0303 27.95 51.0103 27.87C50.9903 27.81 50.9503 27.73 50.9303 27.69C50.9103 27.65 50.7903 27.5 50.6703 27.35C50.5103 27.16 50.4303 27.07 50.3603 27.02C50.3103 26.98 50.2203 26.94 50.1603 26.92C50.1003 26.9 50.0203 26.88 49.9303 26.88ZM28.0303 27.48C27.9603 27.48 27.5103 27.54 27.0303 27.61C26.5403 27.69 26.1203 27.75 26.0903 27.76C26.0503 27.77 25.9803 27.8 25.9303 27.82C25.8703 27.85 25.7803 27.92 25.7203 27.98C25.6603 28.04 25.6003 28.11 25.5803 28.15C25.5603 28.19 25.3903 28.62 25.2003 29.1C24.9003 29.86 24.8403 30.01 24.8403 30.1C24.8303 30.17 24.8303 30.26 24.8403 30.31C24.8503 30.36 24.8803 30.45 24.9003 30.5C24.9203 30.57 25.0803 30.78 25.5503 31.38C26.1003 32.06 26.1903 32.17 26.2803 32.23C26.3303 32.27 26.4203 32.31 26.4803 32.33C26.5403 32.35 26.6203 32.37 26.6603 32.37C26.7203 32.38 26.9803 32.35 27.5003 32.27C27.9203 32.21 28.3703 32.14 28.4903 32.13C28.6403 32.1 28.7403 32.08 28.8103 32.04C28.8603 32.02 28.9503 31.96 29.0003 31.93C29.0503 31.89 29.1103 31.82 29.1403 31.77C29.1803 31.71 29.3303 31.36 29.5503 30.79C29.7503 30.3 29.9103 29.87 29.9203 29.82C29.9303 29.77 29.9403 29.67 29.9303 29.61C29.9303 29.54 29.9103 29.45 29.8903 29.39C29.8703 29.34 29.8403 29.28 29.8203 29.25C29.8103 29.22 29.5503 28.89 29.2403 28.5C28.9403 28.12 28.6603 27.77 28.6103 27.72C28.5603 27.67 28.4803 27.61 28.4303 27.58C28.3803 27.55 28.2903 27.52 28.2403 27.51C28.1903 27.49 28.1003 27.48 28.0303 27.48ZM5.35027 27.5C5.32027 27.5 5.1103 27.53 4.8803 27.56C4.5103 27.62 4.44032 27.64 4.34032 27.68C4.28032 27.71 4.1903 27.78 4.1303 27.83C4.0603 27.9 4.01032 27.96 3.96032 28.06C3.93032 28.14 3.84032 28.35 3.77032 28.53L3.64031 28.87V29.02C3.64031 29.1 3.65027 29.21 3.66027 29.25C3.68027 29.3 3.70027 29.37 3.72027 29.41C3.74027 29.45 3.87031 29.62 4.01031 29.8C4.15031 29.97 4.29032 30.14 4.33032 30.17C4.36032 30.2 4.42027 30.25 4.47027 30.27C4.51027 30.29 4.59031 30.32 4.64031 30.34C4.70031 30.36 4.78027 30.37 4.85027 30.37C4.92027 30.37 5.15028 30.34 5.36028 30.31C5.71028 30.25 5.77029 30.24 5.87029 30.19C5.94029 30.15 6.03032 30.09 6.08032 30.04C6.13032 29.99 6.19032 29.93 6.21032 29.89C6.23032 29.86 6.32027 29.65 6.41027 29.43C6.54027 29.09 6.57031 29.01 6.57031 28.91C6.58031 28.84 6.5703 28.74 6.5603 28.68C6.5503 28.62 6.52029 28.53 6.49029 28.48C6.47029 28.43 6.33029 28.24 6.18029 28.06C6.04029 27.87 5.90028 27.7 5.86028 27.68C5.83028 27.66 5.76032 27.62 5.71032 27.59C5.66032 27.57 5.57031 27.53 5.51031 27.52C5.45031 27.51 5.37027 27.5 5.35027 27.5ZM1.47027 28.62C1.40027 28.62 1.27028 28.63 1.11028 28.66C0.900283 28.69 0.830278 28.71 0.730278 28.76C0.650278 28.8 0.560298 28.86 0.500298 28.92C0.450298 28.97 0.390283 29.05 0.360283 29.1C0.340283 29.14 0.290288 29.28 0.240288 29.39C0.200288 29.5 0.150312 29.63 0.140312 29.69C0.130313 29.74 0.130313 29.83 0.140312 29.88C0.140312 29.93 0.160281 29.99 0.170281 30.03C0.180281 30.07 0.200269 30.14 0.220269 30.18C0.250269 30.22 0.330281 30.35 0.420281 30.45C0.500281 30.56 0.600312 30.67 0.640312 30.71C0.670312 30.74 0.740276 30.79 0.790276 30.81C0.830276 30.83 0.920269 30.86 0.970269 30.88C1.03027 30.89 1.11032 30.9 1.15032 30.9C1.19032 30.9 1.35029 30.89 1.49029 30.87C1.69029 30.84 1.78027 30.81 1.85027 30.78C1.90027 30.75 1.98033 30.7 2.03033 30.67C2.08033 30.63 2.14028 30.56 2.17028 30.52C2.21028 30.48 2.28032 30.32 2.34032 30.18C2.43032 29.95 2.44031 29.9 2.45031 29.77C2.46031 29.69 2.4503 29.59 2.4403 29.53C2.4303 29.48 2.4003 29.4 2.3803 29.35C2.3503 29.31 2.25032 29.17 2.15032 29.04C2.00032 28.85 1.95028 28.8 1.86028 28.75C1.80028 28.71 1.71028 28.67 1.67028 28.66C1.62028 28.64 1.53027 28.63 1.47027 28.62ZM34.7003 29.5C34.6503 29.5 34.3603 29.54 34.0603 29.58C33.7603 29.63 33.3803 29.69 33.2303 29.71C33.0303 29.74 32.9203 29.76 32.8603 29.8C32.8103 29.82 32.7303 29.87 32.6803 29.91C32.6303 29.95 32.5603 30.03 32.5303 30.08C32.4903 30.13 32.3503 30.45 32.1603 30.95C31.9703 31.42 31.8403 31.76 31.8303 31.83C31.8203 31.9 31.8203 31.97 31.8403 32.05C31.8403 32.11 31.8703 32.2 31.8903 32.26C31.9103 32.32 32.0003 32.45 32.1803 32.68C32.3203 32.86 32.5703 33.17 32.7303 33.37C32.9103 33.59 33.0503 33.75 33.1003 33.79C33.1403 33.82 33.2203 33.86 33.2803 33.89C33.3403 33.91 33.4303 33.93 33.4903 33.94C33.5703 33.95 33.6603 33.95 33.9203 33.91C34.1003 33.88 34.4903 33.82 34.7803 33.78L35.3003 33.7L35.4203 33.65C35.4903 33.62 35.5803 33.56 35.6203 33.52C35.6703 33.48 35.7303 33.41 35.7603 33.37C35.7803 33.33 35.9503 32.94 36.1203 32.51L36.4403 31.71L36.4503 31.58C36.4503 31.5 36.4503 31.41 36.4303 31.34C36.4203 31.29 36.4003 31.2 36.3703 31.15C36.3503 31.1 36.1003 30.78 35.8203 30.42C35.5403 30.07 35.2803 29.75 35.2403 29.71C35.2003 29.67 35.1203 29.62 35.0703 29.6C35.0203 29.57 34.9303 29.54 34.8803 29.52C34.8203 29.51 34.7403 29.5 34.7003 29.5ZM15.2403 30.75C15.2103 30.75 14.7803 30.82 14.2803 30.89C13.4703 31.01 13.3603 31.03 13.2703 31.07C13.2103 31.1 13.1303 31.15 13.0803 31.19C13.0303 31.23 12.9603 31.3 12.9303 31.35C12.9003 31.4 12.7203 31.82 12.5203 32.32L12.1703 33.2L12.1603 33.37C12.1503 33.49 12.1603 33.56 12.1803 33.63C12.2003 33.69 12.2303 33.76 12.2503 33.8C12.2703 33.84 12.5503 34.2 12.8703 34.6C13.1903 35.01 13.4803 35.36 13.5203 35.39C13.5603 35.42 13.6203 35.46 13.6603 35.48C13.7003 35.5 13.7703 35.53 13.8203 35.54C13.8703 35.56 13.9603 35.57 14.0203 35.57C14.0703 35.57 14.5403 35.51 15.0403 35.44C15.8603 35.32 15.9703 35.3 16.0603 35.25C16.1203 35.23 16.2103 35.17 16.2503 35.14C16.3003 35.1 16.3703 35.03 16.4003 34.98C16.4403 34.91 16.5803 34.59 16.8103 34L17.1703 33.12V32.96C17.1803 32.84 17.1703 32.77 17.1503 32.69C17.1403 32.64 17.1103 32.57 17.0903 32.53C17.0703 32.5 16.8103 32.15 16.5003 31.76C16.1903 31.37 15.9003 31.02 15.8703 30.98C15.8303 30.94 15.7603 30.89 15.7003 30.86C15.6503 30.83 15.5703 30.8 15.5203 30.78C15.4803 30.77 15.4103 30.75 15.3603 30.75H15.2403ZM41.0303 31.47C40.9603 31.47 40.6203 31.51 40.2603 31.57C39.7103 31.65 39.6103 31.67 39.5203 31.72C39.4603 31.74 39.3703 31.8 39.3203 31.84C39.2803 31.87 39.2103 31.95 39.1803 31.99C39.1403 32.05 39.0203 32.33 38.8603 32.73C38.6403 33.28 38.6003 33.4 38.5903 33.5C38.5903 33.57 38.5903 33.66 38.6003 33.72C38.6203 33.78 38.6403 33.87 38.6603 33.92C38.6903 33.97 38.8803 34.22 39.1403 34.56C39.4303 34.91 39.6203 35.13 39.6703 35.17C39.7103 35.2 39.8003 35.25 39.8603 35.28C39.9303 35.3 40.0203 35.32 40.1003 35.33C40.2003 35.33 40.3703 35.31 40.9003 35.23C41.5003 35.14 41.5803 35.13 41.6803 35.08C41.7503 35.05 41.8403 34.99 41.9003 34.93C41.9603 34.88 42.0203 34.8 42.0403 34.77C42.0603 34.73 42.1903 34.42 42.3303 34.07C42.4703 33.72 42.5903 33.4 42.5903 33.35C42.6003 33.29 42.6003 33.21 42.5903 33.13C42.5803 33.07 42.5603 32.98 42.5503 32.94C42.5303 32.9 42.5103 32.84 42.4903 32.81C42.4703 32.78 42.2703 32.52 42.0503 32.24C41.8303 31.95 41.6103 31.7 41.5703 31.66C41.5403 31.63 41.4703 31.58 41.4303 31.56C41.3803 31.54 41.3003 31.51 41.2503 31.49C41.2003 31.48 41.1103 31.47 41.0303 31.47ZM46.3303 31.98C46.2403 31.98 46.0603 32 45.7103 32.05C45.4303 32.09 45.1803 32.14 45.1303 32.15C45.0803 32.17 45.0103 32.2 44.9603 32.23C44.9203 32.26 44.8403 32.32 44.7903 32.37C44.7503 32.41 44.7003 32.48 44.6803 32.52C44.6603 32.56 44.5503 32.81 44.4503 33.08L44.2503 33.58L44.2403 33.72C44.2403 33.8 44.2403 33.91 44.2503 33.96C44.2603 34.01 44.2903 34.09 44.3103 34.14C44.3403 34.18 44.5203 34.42 44.7103 34.66C45.0003 35.03 45.0803 35.12 45.1703 35.18C45.2303 35.22 45.3303 35.26 45.3903 35.28C45.4503 35.3 45.5403 35.32 45.6003 35.32C45.6603 35.32 45.9403 35.28 46.2303 35.24L46.7603 35.16L46.8803 35.1C46.9403 35.07 47.0303 35.02 47.0803 34.98C47.1203 34.94 47.1803 34.87 47.2103 34.83C47.2303 34.79 47.3503 34.53 47.4603 34.25L47.6703 33.73V33.52C47.6703 33.34 47.6703 33.29 47.6303 33.21C47.6103 33.14 47.5103 33 47.3303 32.77C47.1803 32.59 47.0103 32.38 46.9603 32.31C46.9003 32.24 46.8103 32.15 46.7603 32.12C46.7103 32.09 46.6303 32.04 46.5703 32.02C46.5103 32 46.4203 31.98 46.3303 31.98ZM50.5803 32.46C50.4603 32.45 50.3303 32.46 50.0903 32.5C49.8603 32.54 49.7303 32.57 49.6703 32.6C49.6203 32.62 49.5303 32.67 49.4803 32.71C49.4303 32.75 49.3703 32.81 49.3303 32.86C49.3003 32.91 49.2203 33.08 49.1303 33.3L48.9803 33.66V33.81C48.9703 33.91 48.9703 33.98 48.9903 34.06C49.0103 34.12 49.0403 34.2 49.0603 34.24C49.0703 34.28 49.1903 34.44 49.3203 34.6C49.4503 34.76 49.5803 34.91 49.6103 34.93C49.6403 34.95 49.6903 34.99 49.7203 35.01C49.7503 35.03 49.8203 35.06 49.8803 35.08C49.9303 35.1 50.0103 35.12 50.0603 35.12C50.1203 35.13 50.2603 35.11 50.5403 35.07C50.8503 35.02 50.9403 35.01 51.0303 34.96C51.1003 34.93 51.1903 34.87 51.2503 34.81C51.3103 34.75 51.3803 34.67 51.4003 34.63C51.4203 34.58 51.5003 34.39 51.5803 34.21L51.7103 33.87V33.72C51.7103 33.63 51.7003 33.54 51.6803 33.48C51.6603 33.42 51.6303 33.34 51.6103 33.31C51.5903 33.27 51.4703 33.11 51.3403 32.95C51.1703 32.74 51.0803 32.64 51.0203 32.6C50.9703 32.56 50.8903 32.52 50.8403 32.5C50.7703 32.47 50.7003 32.46 50.5803 32.46ZM24.4103 32.47C24.3603 32.47 24.0203 32.51 23.6503 32.57C23.2903 32.62 22.9703 32.67 22.9503 32.68C22.9203 32.68 22.8603 32.71 22.8103 32.73C22.7603 32.76 22.6803 32.82 22.6203 32.87C22.5603 32.92 22.5003 33 22.4803 33.03C22.4603 33.06 22.3203 33.39 22.1703 33.76L21.9103 34.43L21.9003 34.58C21.8903 34.66 21.9003 34.78 21.9103 34.83C21.9203 34.88 21.9503 34.96 21.9703 35.01C22.0003 35.05 22.2303 35.35 22.4703 35.66C22.8703 36.16 22.9403 36.24 23.0303 36.3C23.0903 36.34 23.1903 36.38 23.2503 36.4C23.3103 36.42 23.4103 36.44 23.4803 36.44C23.5503 36.44 23.6503 36.43 23.7003 36.42C23.7603 36.41 24.0603 36.37 24.3803 36.32C24.9103 36.24 24.9803 36.23 25.0703 36.18C25.1303 36.15 25.2203 36.1 25.2703 36.05C25.3203 36.01 25.3803 35.94 25.4103 35.9C25.4303 35.86 25.5803 35.52 25.7303 35.15C25.9403 34.61 26.0003 34.44 26.0103 34.35C26.0203 34.29 26.0103 34.19 26.0003 34.13C25.9903 34.07 25.9603 33.98 25.9403 33.93C25.9203 33.88 25.7103 33.61 25.4603 33.28C25.2103 32.98 24.9903 32.7 24.9503 32.66C24.9103 32.63 24.8403 32.58 24.7903 32.56C24.7503 32.54 24.6703 32.51 24.6103 32.49C24.5603 32.48 24.4703 32.47 24.4103 32.47ZM9.42028 32.53C9.37028 32.53 9.00027 32.58 8.60027 32.64L7.8803 32.75L7.76031 32.81C7.69031 32.84 7.60029 32.91 7.55029 32.96C7.50029 33 7.44028 33.08 7.42028 33.11C7.40028 33.15 7.26028 33.49 7.11028 33.87L6.83032 34.56L6.82031 34.71C6.82031 34.82 6.82032 34.89 6.84032 34.97C6.86032 35.03 6.89032 35.11 6.90032 35.14C6.92032 35.17 7.13029 35.45 7.37029 35.75C7.61029 36.06 7.8403 36.34 7.8803 36.39C7.9203 36.43 8.00029 36.49 8.05029 36.51C8.11029 36.54 8.2003 36.58 8.2503 36.59C8.3103 36.61 8.39029 36.62 8.43029 36.62C8.47029 36.62 8.7803 36.58 9.1303 36.53C9.4803 36.47 9.8103 36.42 9.8803 36.41C9.9403 36.4 10.0403 36.37 10.1103 36.33C10.1803 36.3 10.2703 36.24 10.3303 36.18C10.3803 36.13 10.4503 36.05 10.4703 36C10.4903 35.95 10.6303 35.61 10.7803 35.24C10.9703 34.75 11.0503 34.54 11.0503 34.47C11.0603 34.41 11.0503 34.31 11.0403 34.24C11.0303 34.18 11.0003 34.08 10.9703 34.02C10.9403 33.96 10.7203 33.66 10.4803 33.36C10.2403 33.06 10.0003 32.78 9.96032 32.74C9.92032 32.7 9.85029 32.65 9.80029 32.62C9.75029 32.6 9.67029 32.57 9.62029 32.56C9.57029 32.54 9.48028 32.53 9.42028 32.53ZM4.1903 33.39C4.1303 33.38 4.00031 33.4 3.83031 33.42C3.69031 33.44 3.50027 33.47 3.41027 33.49C3.31027 33.5 3.22027 33.53 3.16027 33.56C3.10027 33.59 3.02027 33.65 2.97027 33.69C2.92027 33.74 2.86031 33.8 2.83031 33.84C2.80031 33.88 2.7103 34.09 2.6303 34.31C2.4903 34.64 2.47032 34.71 2.46032 34.82C2.46032 34.91 2.46028 34.99 2.48028 35.08C2.50028 35.15 2.53029 35.23 2.55029 35.27C2.57029 35.31 2.70027 35.48 2.85027 35.66C3.04027 35.91 3.13031 36 3.20031 36.05C3.25031 36.09 3.34027 36.13 3.41027 36.15C3.49027 36.18 3.55031 36.19 3.64031 36.19C3.71031 36.19 3.94032 36.17 4.15032 36.14C4.45032 36.09 4.5503 36.07 4.6303 36.03C4.6903 36 4.79027 35.94 4.85027 35.88C4.91027 35.83 4.97029 35.75 4.99029 35.71C5.02029 35.67 5.10029 35.48 5.18029 35.27C5.31029 34.95 5.33032 34.88 5.34032 34.77C5.34032 34.68 5.34031 34.6 5.32031 34.51C5.30031 34.44 5.2703 34.36 5.2503 34.32C5.2303 34.28 5.10032 34.11 4.96032 33.93C4.75032 33.67 4.68032 33.59 4.59032 33.53C4.54032 33.5 4.4403 33.45 4.3803 33.43C4.3303 33.41 4.2403 33.4 4.1903 33.39ZM30.2003 34.31C30.1703 34.31 29.8103 34.37 29.4003 34.43C28.7303 34.53 28.6303 34.55 28.5303 34.59C28.4703 34.62 28.3803 34.69 28.3203 34.74C28.2603 34.8 28.1903 34.87 28.1703 34.91C28.1503 34.95 28.0103 35.3 27.8603 35.68C27.7003 36.08 27.5703 36.41 27.5603 36.47C27.5603 36.53 27.5503 36.61 27.5603 36.64C27.5603 36.68 27.5803 36.75 27.5903 36.8C27.6003 36.84 27.6303 36.92 27.6503 36.97C27.6803 37.01 27.9103 37.32 28.1703 37.65C28.5303 38.11 28.6703 38.27 28.7303 38.31C28.7803 38.34 28.8703 38.39 28.9303 38.41C28.9903 38.44 29.0803 38.46 29.1503 38.46C29.2403 38.47 29.4703 38.44 30.0303 38.36C30.6803 38.26 30.7903 38.24 30.8803 38.2C30.9403 38.17 31.0203 38.12 31.0703 38.08C31.1203 38.05 31.1803 37.97 31.2203 37.92C31.2603 37.86 31.3803 37.59 31.5603 37.12L31.8503 36.41L31.8603 36.26C31.8603 36.18 31.8503 36.07 31.8403 36.02C31.8303 35.97 31.8103 35.89 31.7903 35.85C31.7603 35.8 31.5303 35.48 31.2603 35.15C30.9303 34.73 30.7503 34.52 30.7003 34.48C30.6503 34.45 30.5803 34.41 30.5303 34.39C30.4803 34.37 30.3903 34.34 30.3403 34.33C30.2903 34.32 30.2203 34.31 30.2003 34.31ZM19.6003 35.2C19.5603 35.2 19.1603 35.25 18.6903 35.32L17.8503 35.45L17.7303 35.51C17.6503 35.55 17.5703 35.6 17.5103 35.66C17.4503 35.72 17.3903 35.8 17.3703 35.85C17.3403 35.89 17.1903 36.27 17.0203 36.69C16.8603 37.11 16.7203 37.5 16.7103 37.55C16.6903 37.63 16.6903 37.69 16.7103 37.78C16.7203 37.85 16.7403 37.94 16.7603 37.99C16.7903 38.06 16.9303 38.26 17.3503 38.79C17.7703 39.32 17.9303 39.51 17.9903 39.55C18.0403 39.58 18.1303 39.63 18.1803 39.65C18.2403 39.67 18.3403 39.69 18.4003 39.7C18.4903 39.71 18.6403 39.69 18.9903 39.64C19.2503 39.6 19.6003 39.55 19.7503 39.53C19.9103 39.5 20.0903 39.48 20.1403 39.47C20.2003 39.46 20.2903 39.43 20.3503 39.4C20.4003 39.37 20.4803 39.32 20.5303 39.28C20.5703 39.25 20.6303 39.18 20.6703 39.13C20.7103 39.07 20.8403 38.74 21.0403 38.24L21.3603 37.44L21.3703 37.29C21.3803 37.2 21.3703 37.09 21.3603 37.04C21.3503 36.99 21.3203 36.91 21.2903 36.86C21.2703 36.81 21.0103 36.47 20.7203 36.1C20.4203 35.73 20.1603 35.41 20.1303 35.39C20.1003 35.36 20.0303 35.32 19.9803 35.29C19.9303 35.27 19.8303 35.23 19.7803 35.22C19.7203 35.21 19.6403 35.19 19.6003 35.2ZM36.7903 35.98C36.7103 35.98 36.4603 36.01 35.8903 36.09C35.4103 36.16 35.0603 36.22 35.0103 36.24C34.9603 36.26 34.8803 36.31 34.8203 36.35C34.7603 36.4 34.6903 36.47 34.6503 36.51C34.6003 36.57 34.5203 36.76 34.2903 37.36C34.0903 37.86 33.9703 38.17 33.9603 38.23V38.44C33.9703 38.51 33.9903 38.6 34.0103 38.66C34.0403 38.72 34.1103 38.83 34.1903 38.94C34.2703 39.04 34.5103 39.34 34.7203 39.6C35.0503 40.01 35.1203 40.1 35.2103 40.16C35.2703 40.2 35.3703 40.25 35.4403 40.27C35.5003 40.29 35.6003 40.3 35.6603 40.3C35.7203 40.3 36.1103 40.25 36.5303 40.19C36.9403 40.13 37.3203 40.06 37.3703 40.05C37.4203 40.03 37.5103 39.99 37.5703 39.94C37.6403 39.9 37.7203 39.82 37.7603 39.77C37.8103 39.7 37.8903 39.53 38.1203 38.93C38.2903 38.52 38.4303 38.16 38.4403 38.12C38.4503 38.08 38.4603 38 38.4603 37.94C38.4603 37.88 38.4503 37.79 38.4303 37.73C38.4203 37.68 38.3903 37.6 38.3703 37.56C38.3403 37.51 38.1003 37.19 37.8203 36.84C37.3903 36.3 37.3003 36.19 37.2103 36.13C37.1503 36.09 37.0603 36.05 37.0003 36.03C36.9403 36.01 36.8403 35.99 36.7903 35.98ZM13.7803 37.23C13.7303 37.23 13.4303 37.27 13.1003 37.32C12.7603 37.37 12.4203 37.43 12.3303 37.44C12.2203 37.46 12.1403 37.48 12.0603 37.53C12.0003 37.56 11.9103 37.63 11.8603 37.67C11.8103 37.72 11.7503 37.79 11.7303 37.83C11.7103 37.87 11.5603 38.22 11.4103 38.61C11.1603 39.23 11.1203 39.34 11.1203 39.44C11.1103 39.51 11.1203 39.61 11.1303 39.66C11.1403 39.72 11.1703 39.81 11.1903 39.87C11.2203 39.93 11.4203 40.19 11.7203 40.56C11.9803 40.89 12.2203 41.18 12.2503 41.21C12.2803 41.23 12.3603 41.28 12.4303 41.31C12.4903 41.34 12.6003 41.38 12.6603 41.39L12.7803 41.41L13.5403 41.29C13.9503 41.23 14.3203 41.17 14.3503 41.16C14.3803 41.15 14.4503 41.12 14.4903 41.1C14.5403 41.08 14.6203 41.02 14.6603 40.98C14.7103 40.94 14.7703 40.87 14.7903 40.83C14.8203 40.79 14.9703 40.44 15.1203 40.05C15.2903 39.63 15.4103 39.29 15.4203 39.23C15.4303 39.17 15.4303 39.09 15.4203 39.01C15.4103 38.95 15.3903 38.85 15.3703 38.8C15.3403 38.73 15.2103 38.55 14.8703 38.12C14.6103 37.79 14.3603 37.49 14.3203 37.45C14.2703 37.4 14.1903 37.35 14.1403 37.32C14.0903 37.3 14.0103 37.27 13.9503 37.25C13.9003 37.24 13.8203 37.23 13.7803 37.23ZM47.4903 37.53C47.4103 37.52 47.2703 37.53 47.2003 37.55C47.1203 37.56 46.9603 37.59 46.8403 37.6C46.7003 37.63 46.6103 37.65 46.5403 37.69C46.4803 37.72 46.3903 37.78 46.3403 37.83C46.2903 37.88 46.2303 37.94 46.2003 37.98C46.1803 38.02 46.1003 38.21 46.0203 38.4L45.8803 38.75V38.89C45.8703 38.99 45.8803 39.08 45.8903 39.13C45.9003 39.18 45.9303 39.26 45.9503 39.31C45.9703 39.36 46.0903 39.52 46.2003 39.66C46.3203 39.81 46.4403 39.96 46.4803 40C46.5103 40.04 46.6003 40.1 46.6703 40.13C46.7503 40.17 46.8503 40.2 46.9203 40.22L47.0303 40.23L47.4203 40.18C47.6403 40.14 47.8503 40.11 47.8903 40.09C47.9303 40.08 48.0003 40.04 48.0403 40.01C48.0903 39.98 48.1603 39.92 48.2103 39.87C48.2603 39.82 48.3103 39.75 48.3303 39.71C48.3503 39.67 48.4303 39.49 48.5003 39.31C48.6103 39.03 48.6303 38.97 48.6303 38.85C48.6403 38.78 48.6303 38.67 48.6203 38.62C48.6103 38.57 48.5803 38.48 48.5503 38.43C48.5303 38.37 48.4003 38.19 48.2703 38.03C48.1003 37.81 48.0103 37.72 47.9403 37.67C47.8803 37.63 47.8003 37.59 47.7403 37.57C47.6803 37.54 47.5903 37.53 47.4903 37.53ZM42.7803 37.64C42.7603 37.64 42.6703 37.65 42.5803 37.67C42.4903 37.68 42.2403 37.72 42.0303 37.75C41.7403 37.79 41.6203 37.82 41.5503 37.85C41.5003 37.87 41.4103 37.92 41.3703 37.96C41.3203 38 41.2503 38.06 41.2203 38.11C41.1703 38.17 41.0903 38.34 40.9403 38.73C40.7703 39.16 40.7303 39.28 40.7203 39.38C40.7103 39.46 40.7203 39.54 40.7403 39.62C40.7503 39.69 40.7903 39.78 40.8103 39.83C40.8403 39.88 41.0003 40.09 41.1603 40.3C41.3303 40.51 41.5003 40.72 41.5403 40.76C41.5803 40.81 41.6603 40.86 41.7103 40.89C41.7703 40.92 41.8603 40.96 41.9103 40.97C41.9603 40.99 42.0503 41 42.0903 41C42.1403 41 42.3803 40.97 42.6303 40.93C42.8903 40.89 43.1403 40.85 43.1903 40.84C43.2403 40.83 43.3303 40.8 43.3803 40.77C43.4403 40.74 43.5303 40.68 43.5903 40.63C43.6403 40.57 43.7003 40.5 43.7303 40.46C43.7503 40.43 43.8603 40.17 43.9603 39.89L44.1603 39.39L44.1703 39.24C44.1803 39.13 44.1703 39.06 44.1503 38.98C44.1403 38.92 44.1103 38.84 44.0903 38.8C44.0603 38.76 43.9003 38.55 43.7203 38.32C43.5303 38.09 43.3503 37.87 43.3103 37.84C43.2703 37.8 43.2003 37.75 43.1503 37.73C43.1003 37.71 43.0103 37.68 42.9503 37.66C42.8803 37.65 42.8103 37.64 42.7903 37.64H42.7803ZM25.2103 38.28C25.1803 38.28 24.8603 38.33 24.4803 38.39C23.8803 38.47 23.7803 38.49 23.6903 38.53C23.6303 38.56 23.5403 38.63 23.4803 38.68C23.4203 38.74 23.3603 38.81 23.3303 38.85C23.3103 38.89 23.1703 39.22 23.0303 39.6L22.7603 40.28V40.43C22.7603 40.54 22.7703 40.61 22.7903 40.7C22.8203 40.8 22.8603 40.86 22.9603 40.99C23.0303 41.08 23.2403 41.36 23.4403 41.6C23.7003 41.93 23.8203 42.06 23.8803 42.1C23.9303 42.14 24.0203 42.18 24.0703 42.2C24.1203 42.22 24.2203 42.24 24.2903 42.25C24.3903 42.25 24.5703 42.23 25.1103 42.15C25.5403 42.09 25.8303 42.04 25.8903 42.01C25.9403 41.99 26.0303 41.95 26.0903 41.91C26.1403 41.87 26.2103 41.8 26.2403 41.77C26.2603 41.73 26.3003 41.68 26.3203 41.65C26.3303 41.62 26.4603 41.3 26.6003 40.94C26.7603 40.54 26.8603 40.26 26.8703 40.2C26.8803 40.14 26.8803 40.05 26.8703 39.98C26.8603 39.92 26.8403 39.82 26.8203 39.77C26.8003 39.72 26.7603 39.66 26.7403 39.62C26.7103 39.59 26.5103 39.33 26.2803 39.04C26.0503 38.76 25.8403 38.5 25.8103 38.47C25.7803 38.44 25.7103 38.4 25.6503 38.37C25.6003 38.34 25.5203 38.31 25.4903 38.3C25.4503 38.29 25.3803 38.28 25.3403 38.28C25.2903 38.27 25.2303 38.27 25.2103 38.28ZM5.61028 39.14C5.50028 39.13 5.37031 39.15 5.20031 39.17C4.99031 39.21 4.92031 39.23 4.82031 39.28C4.74031 39.31 4.66027 39.38 4.60027 39.43C4.54027 39.49 4.48032 39.56 4.46032 39.6C4.44032 39.64 4.38031 39.79 4.32031 39.93C4.23031 40.16 4.22032 40.21 4.21032 40.34C4.20032 40.44 4.21028 40.51 4.23028 40.59C4.24028 40.65 4.27028 40.73 4.29028 40.77C4.31028 40.81 4.39028 40.92 4.48028 41.03C4.56028 41.14 4.67032 41.26 4.71032 41.31C4.75032 41.35 4.8303 41.41 4.8803 41.44C4.9403 41.46 5.03032 41.5 5.08032 41.51C5.13032 41.53 5.22031 41.54 5.26031 41.54C5.31031 41.54 5.47029 41.52 5.62029 41.5C5.77029 41.48 5.93027 41.44 5.97027 41.43C6.01027 41.42 6.07027 41.39 6.10027 41.37C6.14027 41.35 6.20029 41.3 6.24029 41.26C6.28029 41.22 6.33028 41.16 6.36028 41.12C6.39028 41.08 6.46032 40.92 6.52032 40.76C6.62032 40.51 6.64031 40.46 6.64031 40.33C6.65031 40.25 6.6403 40.15 6.6303 40.1C6.6203 40.05 6.60031 39.97 6.57031 39.92C6.55031 39.87 6.45032 39.72 6.34032 39.59C6.23032 39.45 6.1103 39.32 6.0603 39.29C6.0203 39.25 5.9403 39.21 5.8803 39.19C5.8003 39.15 5.74028 39.14 5.61028 39.14ZM31.8903 40.09C31.7903 40.08 31.5503 40.11 30.8803 40.22C30.3903 40.29 29.9503 40.36 29.9003 40.38C29.8503 40.39 29.7803 40.43 29.7303 40.46C29.6803 40.49 29.6103 40.55 29.5703 40.59C29.5303 40.63 29.4803 40.7 29.4603 40.73C29.4403 40.77 29.2603 41.19 29.0703 41.67L28.7303 42.53L28.7203 42.7C28.7203 42.82 28.7203 42.88 28.7503 42.96C28.7603 43.01 28.7903 43.09 28.8003 43.12C28.8203 43.15 29.0903 43.5 29.3903 43.88C29.7003 44.27 29.9803 44.62 30.0203 44.67C30.0703 44.71 30.1503 44.77 30.2103 44.8C30.2603 44.83 30.3503 44.86 30.4003 44.87C30.4503 44.89 30.5203 44.9 30.5603 44.9C30.6003 44.9 30.9403 44.85 31.3303 44.8C31.7103 44.74 32.1303 44.68 32.2603 44.66C32.3903 44.64 32.5303 44.61 32.5803 44.59C32.6303 44.57 32.7103 44.53 32.7603 44.49C32.8103 44.45 32.8803 44.38 32.9203 44.34C32.9503 44.3 32.9903 44.25 33.0003 44.22C33.0103 44.2 33.1703 43.8 33.3603 43.33C33.5403 42.86 33.7003 42.44 33.7103 42.39C33.7203 42.34 33.7203 42.25 33.7203 42.18C33.7103 42.12 33.6903 42.02 33.6703 41.96L33.5803 41.78C33.5503 41.75 33.2803 41.4 32.9703 41.01C32.4803 40.39 32.3903 40.29 32.3103 40.23C32.2503 40.2 32.1703 40.15 32.1103 40.13C32.0603 40.11 31.9703 40.09 31.8903 40.09ZM9.92028 40.87C9.83028 40.86 9.6703 40.88 9.3203 40.94C8.9003 41 8.82028 41.02 8.73028 41.06C8.67028 41.09 8.59028 41.15 8.54028 41.18C8.50028 41.22 8.44027 41.29 8.41027 41.33C8.38027 41.37 8.28028 41.61 8.17028 41.87L7.98028 42.35V42.48C7.97028 42.56 7.98029 42.66 7.99029 42.71C8.00029 42.76 8.02028 42.85 8.04028 42.89C8.07028 42.94 8.23032 43.16 8.40032 43.38C8.57032 43.6 8.74032 43.8 8.77032 43.82C8.81032 43.85 8.88031 43.89 8.95031 43.92C9.01031 43.95 9.10028 43.98 9.17028 43.99L9.28033 44.01L9.78033 43.93C10.0603 43.89 10.3203 43.85 10.3703 43.83C10.4103 43.81 10.4803 43.77 10.5303 43.74C10.5803 43.71 10.6503 43.65 10.7003 43.61C10.7403 43.56 10.7803 43.5 10.8003 43.47C10.8103 43.45 10.9003 43.22 11.0003 42.97L11.1903 42.52V42.32C11.1903 42.16 11.1803 42.11 11.1403 42.03C11.1203 41.98 11.0803 41.9 11.0603 41.86C11.0303 41.82 10.8803 41.63 10.7203 41.43C10.5103 41.17 10.4103 41.06 10.3403 41.01C10.2903 40.98 10.2003 40.93 10.1503 40.91C10.0903 40.89 9.99028 40.87 9.92028 40.87ZM19.8103 41.02C19.7503 41.02 19.3603 41.07 18.9403 41.13C18.5103 41.2 18.1303 41.26 18.0903 41.28C18.0403 41.29 17.9703 41.33 17.9303 41.35C17.8903 41.38 17.8103 41.45 17.7603 41.49C17.7203 41.54 17.6603 41.61 17.6403 41.65C17.6303 41.69 17.4803 42.05 17.3203 42.46L17.0303 43.19L17.0203 43.34C17.0103 43.42 17.0203 43.53 17.0303 43.58C17.0403 43.63 17.0703 43.71 17.0903 43.75C17.1103 43.8 17.3403 44.11 17.6103 44.44C17.8703 44.77 18.1203 45.08 18.1603 45.12C18.2003 45.17 18.2903 45.23 18.3403 45.25C18.4003 45.28 18.4903 45.32 18.5503 45.33C18.6003 45.34 18.6803 45.36 18.7103 45.36C18.7403 45.36 19.1103 45.31 19.5303 45.25C19.9403 45.19 20.3203 45.13 20.3603 45.12C20.4103 45.11 20.4903 45.08 20.5403 45.05C20.6003 45.02 20.6803 44.96 20.7303 44.92C20.7703 44.87 20.8303 44.81 20.8503 44.77C20.8803 44.73 21.0303 44.37 21.1903 43.97C21.3503 43.56 21.4903 43.2 21.4903 43.18C21.5003 43.15 21.5103 43.07 21.5103 42.99C21.5103 42.92 21.5003 42.82 21.4903 42.77C21.4803 42.72 21.4503 42.64 21.4203 42.59C21.3903 42.54 21.1503 42.21 20.8703 41.86C20.4803 41.37 20.3403 41.21 20.2703 41.16C20.2203 41.13 20.1203 41.08 20.0503 41.06C19.9603 41.03 19.8803 41.02 19.8103 41.02ZM38.1903 42.05C38.1303 42.05 37.7603 42.1 37.3803 42.16C37.0003 42.22 36.6603 42.27 36.6203 42.28C36.5903 42.28 36.5303 42.31 36.4903 42.33C36.4503 42.35 36.3703 42.4 36.3303 42.44C36.2803 42.48 36.2103 42.55 36.1803 42.6C36.1403 42.65 36.0103 42.94 35.8303 43.4L35.5503 44.11L35.5403 44.26C35.5403 44.35 35.5403 44.45 35.5503 44.51C35.5703 44.56 35.6003 44.64 35.6203 44.69C35.6503 44.74 35.8703 45.04 36.1203 45.36C36.3703 45.67 36.6103 45.96 36.6503 46C36.6903 46.04 36.7603 46.09 36.8103 46.11C36.8603 46.14 36.9403 46.17 36.9903 46.18C37.0403 46.19 37.1203 46.21 37.1803 46.21C37.2403 46.21 37.6203 46.16 38.0303 46.1C38.6703 46 38.7803 45.98 38.8703 45.94C38.9303 45.91 39.0203 45.84 39.0903 45.79C39.1503 45.73 39.2203 45.65 39.2403 45.6C39.2703 45.56 39.4103 45.21 39.5603 44.82L39.8403 44.13L39.8503 43.98C39.8503 43.88 39.8503 43.81 39.8303 43.73C39.8103 43.67 39.7803 43.58 39.7503 43.54C39.7303 43.49 39.5003 43.19 39.2403 42.87C38.9903 42.55 38.7503 42.26 38.7103 42.23C38.6803 42.21 38.6103 42.16 38.5703 42.14C38.5203 42.12 38.4403 42.09 38.3903 42.07C38.3403 42.06 38.2503 42.05 38.1903 42.05ZM42.7303 43.21C42.7003 43.21 42.6303 43.21 42.5903 43.22C42.5403 43.23 42.4703 43.25 42.4303 43.26C42.3903 43.28 42.3203 43.31 42.2703 43.34C42.2303 43.37 42.1503 43.44 42.1003 43.49C42.0403 43.56 41.9903 43.63 41.9503 43.72C41.9103 43.83 41.8903 43.88 41.8903 44.01C41.8803 44.12 41.8903 44.19 41.9103 44.27C41.9303 44.33 41.9503 44.41 41.9703 44.44C41.9903 44.47 42.0403 44.55 42.0803 44.6C42.1203 44.65 42.2003 44.73 42.2603 44.77C42.3203 44.8 42.4203 44.85 42.4803 44.87C42.5803 44.9 42.6303 44.9 42.7603 44.89C42.8703 44.89 42.9603 44.87 43.0303 44.85C43.0803 44.83 43.1703 44.78 43.2303 44.73C43.2903 44.69 43.3603 44.62 43.4003 44.57C43.4303 44.52 43.4803 44.43 43.5103 44.37L43.5503 44.26V44.06C43.5503 43.89 43.5503 43.84 43.5203 43.75C43.5003 43.7 43.4403 43.6 43.3903 43.54C43.3503 43.48 43.2703 43.41 43.2203 43.37C43.1803 43.34 43.1003 43.29 43.0403 43.27C42.9903 43.25 42.9103 43.23 42.8603 43.22C42.8203 43.21 42.7603 43.2 42.7303 43.21ZM26.2703 44.04C26.1603 44.04 25.9803 44.06 25.5203 44.13C24.9803 44.21 24.9003 44.23 24.8003 44.27C24.7203 44.31 24.6503 44.36 24.5703 44.45L24.4503 44.57L24.2003 45.2L23.9503 45.82L23.9403 45.97C23.9303 46.05 23.9403 46.15 23.9503 46.2C23.9603 46.26 23.9903 46.34 24.0103 46.38C24.0403 46.43 24.2403 46.7 24.4603 46.98C24.7703 47.37 24.8803 47.5 24.9503 47.55C25.0003 47.58 25.0903 47.63 25.1403 47.65C25.2003 47.67 25.2903 47.69 25.3703 47.69C25.4803 47.7 25.6303 47.68 26.1303 47.61L26.7503 47.52L26.8703 47.46C26.9403 47.42 27.0203 47.37 27.0903 47.29C27.1503 47.23 27.2203 47.15 27.2403 47.1C27.2603 47.06 27.3703 46.78 27.4903 46.48C27.6103 46.16 27.7103 45.89 27.7203 45.83C27.7303 45.77 27.7303 45.69 27.7303 45.65C27.7203 45.62 27.7103 45.55 27.7003 45.5C27.6903 45.45 27.6603 45.38 27.6403 45.34C27.6203 45.3 27.4303 45.04 27.2103 44.76C26.9603 44.45 26.7803 44.24 26.7303 44.2C26.6803 44.17 26.5903 44.12 26.5203 44.09C26.4403 44.06 26.3603 44.05 26.2703 44.04ZM14.3503 44.43C14.2803 44.43 13.9703 44.47 13.6703 44.51C13.2403 44.58 13.1103 44.6 13.0303 44.64C12.9803 44.66 12.9003 44.71 12.8503 44.75C12.8003 44.78 12.7303 44.85 12.7003 44.9C12.6503 44.96 12.5703 45.13 12.4103 45.54C12.2603 45.92 12.1903 46.13 12.1803 46.21C12.1603 46.31 12.1603 46.36 12.1803 46.47C12.2003 46.54 12.2303 46.64 12.2503 46.69C12.2803 46.74 12.4503 46.97 12.6503 47.22C12.8403 47.46 13.0203 47.68 13.0503 47.71C13.0803 47.74 13.1603 47.8 13.2403 47.84C13.3203 47.88 13.4203 47.91 13.4903 47.92L13.6003 47.94L14.2103 47.85C14.5503 47.8 14.8503 47.75 14.9003 47.73C14.9503 47.71 15.0203 47.67 15.0603 47.65C15.1103 47.62 15.1603 47.57 15.1903 47.55C15.2103 47.52 15.2603 47.47 15.2903 47.43C15.3103 47.39 15.4303 47.13 15.5403 46.85C15.6503 46.57 15.7503 46.3 15.7703 46.26C15.7803 46.21 15.7903 46.12 15.7903 46.04C15.7903 45.94 15.7803 45.86 15.7603 45.78C15.7403 45.72 15.7103 45.65 15.6903 45.62C15.6703 45.59 15.4903 45.36 15.2903 45.11C15.1003 44.86 14.9103 44.63 14.8803 44.61C14.8503 44.58 14.7903 44.54 14.7403 44.52C14.7003 44.5 14.6203 44.47 14.5703 44.45C14.5203 44.44 14.4203 44.43 14.3503 44.43ZM21.0903 46.77C20.9703 46.77 20.7903 46.79 20.2703 46.87L19.6003 46.97L19.4803 47.03C19.4103 47.06 19.3203 47.12 19.2603 47.18C19.2003 47.23 19.1403 47.31 19.1103 47.35C19.0903 47.4 18.9503 47.73 18.8103 48.09L18.5503 48.74L18.5403 48.87C18.5403 48.96 18.5503 49.04 18.5603 49.13C18.5803 49.19 18.6103 49.28 18.6303 49.32C18.6503 49.36 18.8703 49.64 19.1103 49.95C19.3603 50.26 19.5803 50.53 19.6103 50.56C19.6403 50.58 19.7203 50.63 19.7903 50.66C19.8503 50.69 19.9603 50.73 20.0303 50.74L20.1403 50.76L20.8803 50.65C21.5003 50.55 21.6403 50.53 21.7203 50.49C21.7703 50.46 21.8503 50.42 21.9003 50.38C21.9403 50.34 22.0103 50.28 22.0403 50.23C22.0903 50.16 22.1803 49.96 22.3603 49.5C22.5003 49.15 22.6203 48.82 22.6403 48.78C22.6503 48.73 22.6603 48.64 22.6603 48.59C22.6603 48.53 22.6603 48.44 22.6403 48.39C22.6303 48.34 22.6103 48.26 22.5903 48.22C22.5603 48.17 22.3403 47.88 22.1003 47.56C21.7303 47.1 21.6303 46.98 21.5403 46.92C21.4903 46.89 21.4003 46.84 21.3503 46.81C21.2803 46.79 21.2003 46.78 21.0903 46.77ZM33.9303 46.78C33.9003 46.78 33.6503 46.82 33.3603 46.86C33.0603 46.91 32.8003 46.95 32.7503 46.97C32.7003 46.99 32.6103 47.04 32.5503 47.08C32.5003 47.12 32.4203 47.19 32.3903 47.24C32.3403 47.31 32.2603 47.48 32.1003 47.88L31.8803 48.42V48.57C31.8803 48.66 31.8803 48.77 31.8903 48.82C31.9003 48.87 31.9303 48.95 31.9603 49C31.9803 49.04 32.1403 49.26 32.3203 49.49C32.5003 49.71 32.6603 49.92 32.6903 49.94C32.7103 49.97 32.7803 50.02 32.8303 50.06C32.8903 50.1 32.9803 50.14 33.0403 50.16C33.1103 50.18 33.2003 50.19 33.2703 50.19C33.3303 50.19 33.6103 50.16 33.9103 50.12C34.2003 50.07 34.4703 50.03 34.5103 50.01C34.5503 50 34.6203 49.96 34.6603 49.94C34.7003 49.91 34.7903 49.84 34.8403 49.78L34.9403 49.67L35.1703 49.1C35.3703 48.6 35.3903 48.53 35.4003 48.42C35.4103 48.35 35.4003 48.24 35.3903 48.19C35.3803 48.13 35.3503 48.04 35.3303 47.99C35.3003 47.95 35.1203 47.7 34.9203 47.45C34.6203 47.07 34.5403 46.98 34.4503 46.92C34.3903 46.88 34.3003 46.83 34.2303 46.82C34.1703 46.8 34.0903 46.78 34.0503 46.78C34.0003 46.77 33.9503 46.77 33.9303 46.78ZM29.4203 48.54C29.4003 48.54 29.2303 48.57 29.0603 48.6C28.8203 48.64 28.7303 48.66 28.6503 48.7C28.5903 48.72 28.5003 48.79 28.4403 48.83C28.3903 48.88 28.3303 48.96 28.3003 49C28.2803 49.04 28.2103 49.2 28.1403 49.36C28.0803 49.53 28.0103 49.71 28.0003 49.77C27.9903 49.86 27.9903 49.92 28.0003 50.02C28.0203 50.09 28.0503 50.2 28.0703 50.25C28.1003 50.31 28.2203 50.48 28.3403 50.63C28.5003 50.83 28.5803 50.91 28.6603 50.97C28.7203 51 28.8003 51.05 28.8603 51.06C28.9103 51.08 29.0003 51.1 29.0703 51.1C29.1503 51.11 29.2903 51.1 29.5203 51.06C29.7003 51.03 29.8803 51 29.9103 50.98C29.9503 50.97 30.0303 50.92 30.0803 50.89C30.1303 50.85 30.2103 50.77 30.2603 50.72C30.3103 50.65 30.3603 50.54 30.4703 50.28C30.5603 50.05 30.6103 49.91 30.6103 49.84C30.6203 49.79 30.6103 49.69 30.6003 49.62C30.5903 49.55 30.5603 49.46 30.5403 49.4C30.5103 49.35 30.4003 49.19 30.2903 49.05C30.1803 48.91 30.0503 48.77 30.0203 48.74C29.9803 48.71 29.9103 48.66 29.8603 48.63C29.8103 48.61 29.7303 48.58 29.7003 48.57C29.6603 48.56 29.5903 48.55 29.5503 48.54H29.4203ZM24.9903 49.5C24.9403 49.5 24.8503 49.51 24.7903 49.52C24.7303 49.53 24.6403 49.57 24.5903 49.59C24.5403 49.62 24.4503 49.69 24.3803 49.76C24.2803 49.86 24.2503 49.9 24.2103 50.02C24.1703 50.12 24.1503 50.21 24.1403 50.29C24.1403 50.36 24.1403 50.44 24.1603 50.52C24.1803 50.58 24.2103 50.67 24.2303 50.72C24.2603 50.76 24.3203 50.85 24.3803 50.91C24.4303 50.97 24.5203 51.04 24.5803 51.07C24.6303 51.1 24.7203 51.13 24.7803 51.15C24.8303 51.16 24.9203 51.18 24.9603 51.18C25.0103 51.18 25.1003 51.16 25.1603 51.15C25.2303 51.14 25.3203 51.11 25.3703 51.08C25.4103 51.05 25.5103 50.98 25.5703 50.91C25.6703 50.82 25.7003 50.77 25.7503 50.66L25.8103 50.52V50.34C25.8103 50.19 25.8003 50.13 25.7703 50.05C25.7503 50 25.7003 49.9 25.6603 49.84C25.6203 49.79 25.5503 49.72 25.5203 49.69C25.4803 49.66 25.4103 49.62 25.3703 49.59C25.3203 49.57 25.2303 49.54 25.1803 49.52C25.1303 49.51 25.0403 49.5 24.9903 49.5Z" fill="#F26953"/>
</svg>
