<svg xmlns="http://www.w3.org/2000/svg" viewBox="0 0 1024 768"
width="1024" height="768" >
xml:space="preserve"><path style="font-variant-ligatures:none" d="M291.24 383.62q0-15.552 10.26-24.948 3.78-3.456 7.668-5.4 3.996-1.944 9.504-3.456 4.752-1.296 9.072-1.62 4.428-.432 7.236-.432 1.404 0 3.24.108t3.78.432q1.944.216 3.888.648 1.944.324 3.564.756 1.404.432 1.62 0l.864-1.728q.324-.432.864-.432l1.296.324q.54.216.54 1.08.108 2.484.324 4.86t.432 4.536q.324 2.052.54 3.672t.432 2.376q.324 1.836.108 2.484-.216.216-.432.324t-.864.108h-.648q-.432 0-.972-1.296-1.188-3.024-3.24-5.724-2.052-2.808-4.968-4.86t-6.696-3.24-8.208-1.188q-3.996 0-7.884 1.404-3.78 1.404-7.452 4.86-1.836 1.728-3.672 4.32-1.836 2.484-3.348 5.832t-2.484 7.56q-.864 4.104-.864 8.964 0 2.7.432 5.724t1.404 6.156q1.08 3.024 2.808 6.048 1.728 2.916 4.32 5.508 2.808 2.808 5.724 4.644 3.024 1.728 5.724 2.808 2.808 1.08 5.184 1.512 2.376.324 4.104.324 2.268 0 4.32-.648 2.16-.756 3.456-1.836 1.62-1.188 2.268-4.644.756-3.456.756-9.612 0-3.672-.108-6.048t-.54-3.78-1.296-2.052q-.756-.756-2.16-1.08-.972-.216-2.808-.54-1.728-.324-2.7-.54-1.188-.324-1.512-.756-.324-.54-.432-1.512 0-.54.756-.54 5.508.216 9.72.432 4.212.108 7.776.108 3.996 0 6.264-.108 2.376-.216 3.888-.324.216.432.108 1.404t-.216 1.512l-2.16.54q-1.188.324-2.052.864-.216.864-.432 7.236-.216 6.264-.324 19.44 0 1.512-.432 2.268-.324.756-1.188 1.404-.648.648-1.62.756-.972.216-1.728.216h-3.024l-4.536.324q-2.808.216-5.4.432t-5.724.216q-10.152 0-18.144-2.592-7.992-2.7-13.608-8.1-4.536-4.104-7.452-10.584t-2.916-14.904zM388.25 353.49q2.376 0 3.564 1.62t1.188 3.672q0 2.916-1.836 4.536-1.836 1.512-3.888 1.512-1.836 0-3.456-1.404-1.512-1.512-1.512-3.996 0-1.512.648-2.592.648-1.188 1.512-1.836.864-.756 1.836-1.08 1.08-.432 1.944-.432zm-7.884 31.536q0-.324-.864-.648-.756-.432-3.348-1.296-.54-.324-.324-1.08.54-1.188.972-1.296 2.7-.756 6.588-1.944 3.996-1.188 7.236-2.484.648-.216.756-.216.324 0 .216.864-.216 2.7-.432 6.588-.108 3.78-.216 7.776-.108 3.888-.216 7.452t-.108 5.832q0 3.456-.108 5.508 0 1.944.216 3.132.108.972.432 1.404.324.432 1.512.54 1.512.108 2.376.216h1.08q.216 0 .432.324.324.324.216.648l-.324 1.728q-.108.54-.324.54-.108.108-.648.108-2.268 0-4.86-.108-2.484-.108-5.076-.108-3.78 0-6.588.324t-3.132.324q-.54 0-.648-.432-.108-.216-.108-.648t0-.864q0-.324.648-.54 2.16-.54 3.132-1.404 1.08-.864 1.296-3.024.108-.648.216-2.16.216-1.62.324-3.78t.108-4.752q.108-2.592 0-5.184zM423.22 368.72q.54 0 .54 1.404 0 .648-.108 1.944 0 1.188-.108 2.484-.108 1.188-.216 2.268v1.512q1.836 0 3.888-.108t3.996-.216 3.456-.216q1.62-.108 2.484-.108.864 0 .972.216.216.108.216.648 0 .648-.216 1.728-.108 1.08-.432 2.052-.324 1.08-1.944 1.08-1.728.108-4.86.108-3.024-.108-6.804.108-.864 0-.864 1.512-.108 2.916-.216 5.94v15.66q0 3.456 2.052 5.292t4.428 1.836q1.512 0 3.132-.432 1.728-.54 3.24-1.512.972-.648 1.296-.216.432 1.08.432 1.62 0 .756-.864 1.188-4.104 2.484-7.236 3.888t-6.912 1.404q-1.836 0-4.212-.864t-3.996-2.916q-1.188-1.512-1.512-3.24-.216-1.728-.108-4.104.108-2.916.108-6.588.108-3.78.108-7.236.108-3.456.108-6.156 0-2.808.108-3.996 0-.864-.972-1.08-2.376-.216-3.78-.324-.54-.108-.756-.54-.108-.432.108-.648 1.08-.972 2.7-2.376 1.728-1.512 3.564-3.132l3.672-3.456q1.944-1.728 3.564-3.24 1.188-1.188 1.944-1.188z" fill="#f1514b" transform="translate(-81.733 -61.3) scale(1.1596)"/><path style="font-variant-ligatures:none" d="m522.37 351.76-1.944.432q-.864.216-1.728.54-1.728.54-2.16 2.916-.216.756-.432 2.592-.108 1.728-.324 5.076-.108 3.24-.324 8.316-.108 4.968-.324 12.204-.216 8.64-1.62 14.472-1.296 5.832-4.752 10.476-4.104 5.4-10.476 8.532t-13.608 3.132q-7.56 0-12.744-2.268-5.076-2.268-7.884-4.752-4.752-4.428-6.264-9.72-1.404-5.4-1.512-10.8-.108-3.888-.108-9.288.108-5.4.324-12.42.108-5.292.216-8.424t0-4.86q-.108-1.836-.324-2.484-.216-.756-.54-1.296-.756-.756-2.16-1.296-1.296-.54-3.672-1.188l.108-1.404q.108-.864 1.944-.864.864 0 2.376.108 1.512 0 3.132.108 1.728 0 3.24.108h2.376q3.456-.108 6.912-.324 3.456-.324 7.128-.324.756 0 .756.432t-.108 1.188q0 .648-.216.972-4.104.864-6.048 1.836-1.836.864-2.268 3.132-.648 2.7-.756 10.152 0 2.268-.108 5.292t-.216 6.372q0 3.348-.108 6.912v6.696q0 6.372 1.728 10.476t5.4 7.02q2.7 2.16 6.588 3.24 3.996 1.08 8.208 1.08 3.348 0 5.832-.648 2.592-.648 4.428-1.62 1.836-1.08 3.132-2.268t2.16-2.268q2.916-3.996 3.996-9.72 1.188-5.724 1.296-13.5.108-9.72 0-16.416 0-6.804-.432-10.044-.216-1.512-.756-2.376-.54-.972-1.728-1.512-1.08-.54-2.916-.756-1.836-.324-4.536-.432-.756-.216-.756-1.08.324-.324.972-1.188.324-.54 1.728-.54.648 0 1.836.108h2.484q1.296 0 2.592.108h5.076q1.62-.108 3.132-.108 1.62-.108 2.916-.216 1.404-.108 2.268-.108.432 0 .432.216.108.108-.108.648zM531.74 416.78q2.484-1.08 3.456-1.836.972-.864 1.296-3.024.108-1.08.216-2.808t.108-3.564q.108-1.944.108-3.888.108-2.052.108-3.888 0-3.24-.108-5.832-.108-2.7-.324-4.32-.108-.972-.756-1.512-.648-.648-3.672-1.836-.648-.324-.432-1.512 0-.54 1.188-.972 4.428-1.836 7.56-3.456 3.24-1.62 4.104-2.16.432-.324 1.404-.324.756 0 .864.864.108 1.188 0 2.592v2.916q0 1.188.756.756 2.7-1.512 4.644-2.592t3.996-2.052q1.404-.756 2.7-1.08 1.404-.432 3.024-.432 4.32 0 7.668 2.592 3.996 3.132 4.644 10.8.216 1.512.216 3.888t0 4.968q-.108 4.428-.108 8.1t0 6.804q0 1.296.972 1.296.864.108 2.268 0t2.268-.108q.648 0 .648.648 0 .54-.216 1.296t-.432 1.08q-.216.432-.864.432-7.344 0-11.556.216-4.212.324-6.48.324-1.188 0-1.404-.756l-.216-1.08q2.268-1.188 3.024-2.052.864-.972 1.08-2.808.432-2.16.54-5.94.216-3.888.216-11.34 0-3.78-.54-5.94t-2.052-3.564q-1.188-1.188-2.592-1.728t-3.564-.54q-1.836 0-4.212.648-2.268.648-3.24 1.188-.54.324-.648.972t-.216 2.16q0 1.404-.108 4.536V406.628q0 3.564.108 5.94 0 .648.108 1.08t.54.756q.54.324 1.404.756.972.324 2.7.864.756.432.432 1.08l-.54 1.404h-9.612q-4.104 0-6.588.216-2.376.324-3.564.324-.648 0-.54-.756zM605.14 353.49q2.376 0 3.564 1.62t1.188 3.672q0 2.916-1.836 4.536-1.836 1.512-3.888 1.512-1.836 0-3.456-1.404-1.512-1.512-1.512-3.996 0-1.512.648-2.592.648-1.188 1.512-1.836.864-.756 1.836-1.08 1.08-.432 1.944-.432zm-7.884 31.536q0-.324-.864-.648-.756-.432-3.348-1.296-.54-.324-.324-1.08.54-1.188.972-1.296 2.7-.756 6.588-1.944 3.996-1.188 7.236-2.484.648-.216.756-.216.324 0 .216.864-.216 2.7-.432 6.588-.108 3.78-.216 7.776-.108 3.888-.216 7.452t-.108 5.832q0 3.456-.108 5.508 0 1.944.216 3.132.108.972.432 1.404t1.512.54q1.512.108 2.376.216h1.08q.216 0 .432.324.324.324.216.648l-.324 1.728q-.108.54-.324.54-.108.108-.648.108-2.268 0-4.86-.108-2.484-.108-5.076-.108-3.78 0-6.588.324t-3.132.324q-.54 0-.648-.432-.108-.216-.108-.648t0-.864q0-.324.648-.54 2.16-.54 3.132-1.404 1.08-.864 1.296-3.024.108-.648.216-2.16.216-1.62.324-3.78t.108-4.752q.108-2.592 0-5.184zM683.94 416.78q2.484-1.08 3.456-1.836.972-.864 1.296-3.024.108-1.08.216-2.808t.108-3.564q.108-1.944.108-3.888.108-2.052.108-3.888 0-3.24-.108-5.832-.108-2.7-.324-4.32-.108-.972-.756-1.512-.648-.648-3.672-1.836-.648-.324-.432-1.512 0-.54 1.188-.972 4.428-1.836 7.56-3.456 3.24-1.62 4.104-2.16.432-.324 1.404-.324.756 0 .864.864.108 1.188 0 2.592v2.916q0 1.188.756.756 2.7-1.512 4.644-2.592t3.996-2.052q1.404-.756 2.7-1.08 1.404-.432 3.024-.432 4.32 0 7.668 2.592 3.996 3.132 4.644 10.8.216 1.512.216 3.888t0 4.968q-.108 4.428-.108 8.1t0 6.804q0 1.296.972 1.296.864.108 2.268 0t2.268-.108q.648 0 .648.648 0 .54-.216 1.296t-.432 1.08q-.216.432-.864.432-7.344 0-11.556.216-4.212.324-6.48.324-1.188 0-1.404-.756l-.216-1.08q2.268-1.188 3.024-2.052.864-.972 1.08-2.808.432-2.16.54-5.94.216-3.888.216-11.34 0-3.78-.54-5.94t-2.052-3.564q-1.188-1.188-2.592-1.728t-3.564-.54q-1.836 0-4.212.648-2.268.648-3.24 1.188-.54.324-.648.972t-.216 2.16q0 1.404-.108 4.536V406.628q0 3.564.108 5.94 0 .648.108 1.08t.54.756q.54.324 1.404.756.972.324 2.7.864.756.432.432 1.08l-.54 1.404h-9.612q-4.104 0-6.588.216-2.376.324-3.564.324-.648 0-.54-.756z" fill="#f49864" transform="translate(-81.733 -61.3) scale(1.1596)"/><path fill="#f49864" d="M665.432 375.707c-.07-.006-.255.016-.585.067-.265.04-.516.083-.557.095a.785.785 0 0 0-.17.083 1.22 1.22 0 0 0-.162.13.998.998 0 0 0-.104.125c-.022.032-.124.27-.226.527a5.853 5.853 0 0 0-.206.574.841.841 0 0 0-.008.202c.006.053.026.14.044.193a.862.862 0 0 0 .061.146c.017.026.17.225.342.442.172.217.34.417.373.445a.907.907 0 0 0 .327.16c.05.014.13.025.176.025.047 0 .314-.034.592-.076.432-.065.523-.084.616-.127a.916.916 0 0 0 .21-.149c.057-.053.121-.128.143-.165.022-.038.126-.286.231-.552l.191-.483v-.17a.743.743 0 0 0-.152-.492c-.04-.056-.202-.262-.359-.457-.246-.306-.3-.363-.39-.417a1.113 1.113 0 0 0-.195-.09 1.095 1.095 0 0 0-.192-.036zm6.659.027c-.08 0-.334.03-.567.067-.347.054-.44.074-.53.116a.989.989 0 0 0-.354.315 7.475 7.475 0 0 0-.202.48c-.09.227-.17.46-.179.516a.787.787 0 0 0 0 .219c.009.063.032.157.052.21.02.053.074.147.122.21l.31.393c.124.155.252.302.285.328a1.008 1.008 0 0 0 .384.164l.116.019.48-.07.481-.07.138-.067a.73.73 0 0 0 .248-.184l.11-.117.166-.42c.091-.23.176-.454.189-.496a.883.883 0 0 0 .023-.206c0-.07-.008-.162-.018-.203a.93.93 0 0 0-.059-.161 5.173 5.173 0 0 0-.339-.463c-.232-.293-.318-.39-.392-.439a1.128 1.128 0 0 0-.208-.103.643.643 0 0 0-.256-.038zm-12.52.95c-.06 0-.229.02-.373.042-.215.033-.285.051-.383.1a.978.978 0 0 0-.205.14 1 1 0 0 0-.129.15c-.023.036-.094.2-.157.363l-.116.297v.152c0 .084.01.187.021.23.012.041.04.112.062.157.023.045.13.192.237.327.14.176.22.262.284.302.05.031.135.075.19.097.086.033.132.04.28.038.109 0 .274-.018.42-.044.157-.027.274-.058.334-.087.05-.025.13-.075.176-.112a.875.875 0 0 0 .145-.156c.034-.05.114-.216.177-.37l.114-.28v-.203c-.001-.17-.008-.22-.04-.302a1.775 1.775 0 0 0-.222-.33 3.73 3.73 0 0 0-.26-.304.888.888 0 0 0-.163-.115 1.114 1.114 0 0 0-.183-.069.933.933 0 0 0-.208-.023zm18.526.95c-.06 0-.224.02-.363.04a3.055 3.055 0 0 0-.329.067.901.901 0 0 0-.157.078 1.1 1.1 0 0 0-.166.141c-.047.05-.1.12-.12.158-.019.038-.082.187-.14.33-.093.232-.106.277-.113.405a.772.772 0 0 0 .021.254c.016.06.043.138.061.173.018.035.124.177.234.316.146.183.227.269.298.316.053.035.14.08.194.099a.96.96 0 0 0 .206.042c.072.006.216-.007.416-.037.168-.025.337-.06.377-.077.039-.017.105-.055.146-.083s.107-.085.146-.127a.99.99 0 0 0 .104-.128 4.38 4.38 0 0 0 .145-.337c.097-.245.114-.302.12-.42a1.04 1.04 0 0 0-.01-.229.985.985 0 0 0-.06-.178 2.86 2.86 0 0 0-.242-.34 2.974 2.974 0 0 0-.254-.29 1.272 1.272 0 0 0-.134-.078 1.269 1.269 0 0 0-.176-.07.819.819 0 0 0-.204-.025zm-10.544 2.77c-.115-.004-.285.016-.692.078a8.438 8.438 0 0 0-.618.109.895.895 0 0 0-.158.078 1.099 1.099 0 0 0-.165.141c-.047.05-.1.12-.119.156-.018.037-.13.311-.247.61-.164.418-.216.568-.224.653a.767.767 0 0 0 .015.233c.014.067.04.155.058.195.018.04.206.293.419.562.241.305.416.51.465.546.043.032.128.078.188.103.078.032.15.048.246.053.105.006.268-.013.705-.078.312-.047.602-.098.644-.112a.902.902 0 0 0 .154-.078.85.85 0 0 0 .303-.343c.026-.058.138-.334.248-.614l.2-.51.002-.152a.795.795 0 0 0-.185-.542c-.06-.079-.244-.312-.408-.517-.221-.28-.32-.39-.387-.434a1.225 1.225 0 0 0-.193-.095.812.812 0 0 0-.254-.042zm-12.166.086a2.51 2.51 0 0 0-.458.044 4.794 4.794 0 0 0-.41.077.718.718 0 0 0-.27.16 1.27 1.27 0 0 0-.112.117c-.047.055-.103.173-.216.458-.113.285-.155.411-.163.493a.938.938 0 0 0 .009.22c.012.061.039.153.062.205.024.054.15.229.291.407.194.243.273.329.352.382a.99.99 0 0 0 .195.099c.051.017.14.035.196.04.071.006.222-.008.475-.046.205-.03.412-.07.46-.088a.902.902 0 0 0 .338-.246.905.905 0 0 0 .082-.123c.017-.032.091-.211.166-.399.119-.299.136-.357.144-.476a.755.755 0 0 0-.02-.246 1.202 1.202 0 0 0-.06-.178 4.492 4.492 0 0 0-.284-.382c-.173-.217-.278-.333-.34-.376a.975.975 0 0 0-.196-.1.963.963 0 0 0-.24-.042zm5.904.152a1.79 1.79 0 0 0-.305.02 35.41 35.41 0 0 1-.41.065c-.197.03-.285.052-.371.092a.786.786 0 0 0-.227.168.902.902 0 0 0-.149.19c-.02.042-.106.256-.192.475l-.157.399v.153c.001.106.012.187.037.265.02.061.055.141.08.178.025.036.155.205.289.374.134.17.274.335.31.368.038.033.106.08.153.104a.892.892 0 0 0 .368.094c.048 0 .27-.027.492-.06.222-.034.44-.072.484-.086a.95.95 0 0 0 .348-.232.834.834 0 0 0 .107-.148c.02-.039.105-.244.19-.455l.153-.385.008-.15c.006-.091 0-.19-.012-.247a.87.87 0 0 0-.063-.18 4.853 4.853 0 0 0-.317-.433 3.692 3.692 0 0 0-.359-.411 1.012 1.012 0 0 0-.194-.108.678.678 0 0 0-.263-.05zm22.843.029c-.042 0-.22.023-.395.05-.23.034-.346.06-.415.092a1.203 1.203 0 0 0-.184.11.886.886 0 0 0-.15.15 2.52 2.52 0 0 0-.19.412c-.07.179-.135.37-.142.425a.798.798 0 0 0 0 .196c.008.054.02.121.026.149.007.028.03.086.052.129.021.042.138.203.259.356.15.19.247.296.305.335a1.08 1.08 0 0 0 .398.148c.06.007.206-.006.445-.042.311-.046.37-.06.475-.111a.897.897 0 0 0 .219-.157.74.74 0 0 0 .163-.234c.035-.075.106-.248.159-.385l.095-.248v-.15c0-.082-.01-.188-.023-.235a.982.982 0 0 0-.062-.16 3.84 3.84 0 0 0-.256-.348c-.145-.182-.243-.29-.298-.326a1.648 1.648 0 0 0-.136-.08.98.98 0 0 0-.345-.076zm-33.038.39a3.65 3.65 0 0 0-.248.033c-.107.017-.228.04-.268.051a.794.794 0 0 0-.17.083c-.053.034-.14.109-.192.166-.083.09-.108.134-.181.321-.046.12-.093.248-.103.285a.752.752 0 0 0-.019.165c0 .053.008.137.02.186.01.05.035.128.056.175a2.711 2.711 0 0 0 .391.499.765.765 0 0 0 .157.1c.05.022.13.051.179.064a.806.806 0 0 0 .172.024c.047 0 .184-.015.306-.034a1.02 1.02 0 0 0 .341-.093.747.747 0 0 0 .23-.176.734.734 0 0 0 .167-.25c.03-.074.077-.195.104-.27a.71.71 0 0 0 .048-.28.997.997 0 0 0-.027-.238 1.12 1.12 0 0 0-.059-.154 2.484 2.484 0 0 0-.176-.245c-.08-.1-.184-.212-.23-.247a.88.88 0 0 0-.498-.165zm22.756.272c-.08 0-.165.006-.19.009l-.587.088c-.468.07-.557.089-.65.132a.969.969 0 0 0-.198.132 1.07 1.07 0 0 0-.138.151 8.714 8.714 0 0 0-.283.664l-.235.594-.006.165a.731.731 0 0 0 .03.283c.019.064.06.154.09.199.031.045.223.291.427.546.224.28.403.487.45.521.042.032.127.079.188.104.098.042.13.047.297.046.137 0 .335-.023.754-.088.5-.077.581-.094.674-.14.058-.028.147-.09.198-.136.05-.046.115-.12.143-.164.027-.045.154-.345.281-.667.19-.483.232-.607.241-.704a.785.785 0 0 0-.015-.239.976.976 0 0 0-.065-.198 8.673 8.673 0 0 0-.413-.548 15.957 15.957 0 0 0-.43-.528.868.868 0 0 0-.127-.101 1.104 1.104 0 0 0-.181-.084.63.63 0 0 0-.255-.037zm6.21 1.61c-.061.001-.376.043-.7.092-.323.049-.62.102-.661.118a.96.96 0 0 0-.354.272c-.052.067-.13.242-.31.69l-.24.6v.203c0 .173.006.22.04.308.03.082.12.207.413.577.205.26.408.508.45.552a.829.829 0 0 0 .36.207c.05.015.141.027.202.027.06 0 .37-.038.688-.085.318-.047.604-.094.637-.104a1.18 1.18 0 0 0 .137-.058.956.956 0 0 0 .302-.268c.027-.039.152-.334.28-.656.137-.347.239-.628.249-.69a.727.727 0 0 0-.001-.228.948.948 0 0 0-.067-.229c-.03-.064-.185-.277-.41-.56-.198-.25-.391-.488-.43-.529a.87.87 0 0 0-.373-.214.956.956 0 0 0-.212-.024zm-28.95 2.223c-.029 0-.22.027-.425.058s-.404.065-.441.076a.765.765 0 0 0-.144.064c-.042.024-.12.085-.174.136a.953.953 0 0 0-.137.163c-.023.038-.108.24-.189.449-.122.312-.15.4-.157.5-.005.08 0 .16.019.236.015.063.045.15.068.195.023.044.158.225.301.403.2.248.284.338.362.39.056.038.144.082.195.1.052.017.147.034.212.039.085.005.235-.01.518-.053.353-.054.412-.067.517-.119a.866.866 0 0 0 .353-.33c.023-.043.106-.239.184-.435l.142-.356v-.195c0-.163-.007-.212-.04-.299-.029-.076-.104-.186-.285-.415a9.107 9.107 0 0 0-.307-.375.85.85 0 0 0-.177-.124.96.96 0 0 0-.396-.108zm11.986.034c-.07 0-.167.008-.213.017-.047.008-.334.052-.637.097-.435.064-.572.091-.645.125a.882.882 0 0 0-.336.278c-.029.044-.16.351-.292.683-.131.333-.25.65-.265.706a.643.643 0 0 0-.016.223.834.834 0 0 0 .14.409c.026.035.204.262.394.505.191.243.385.48.432.53.047.048.128.11.18.138.052.027.136.062.187.077.05.015.137.027.191.027.054 0 .383-.042.73-.094s.65-.098.674-.104a.945.945 0 0 0 .46-.338c.027-.039.16-.355.297-.703.154-.393.253-.67.262-.731a.946.946 0 0 0-.045-.405.787.787 0 0 0-.055-.119c-.014-.023-.198-.26-.407-.526-.21-.266-.415-.52-.457-.563a.809.809 0 0 0-.358-.207.862.862 0 0 0-.22-.025zm26.125 0a6.011 6.011 0 0 0-.187.026.914.914 0 0 0-.285.084.906.906 0 0 0-.359.327c-.02.041-.064.142-.096.224a.64.64 0 0 0-.057.302c0 .103.01.186.034.261a.97.97 0 0 0 .1.21c.037.055.11.147.162.205.07.078.13.122.229.172a.782.782 0 0 0 .547.08c.096-.014.206-.036.245-.05a.843.843 0 0 0 .28-.176.917.917 0 0 0 .116-.132 1.487 1.487 0 0 0 .186-.472.994.994 0 0 0-.044-.42 1.066 1.066 0 0 0-.085-.161 1.953 1.953 0 0 0-.16-.2.689.689 0 0 0-.242-.18 1.01 1.01 0 0 0-.384-.1zm-32.683.124c-.097-.005-.258.013-.576.061l-.441.067-.124.061a.92.92 0 0 0-.355.321c-.02.037-.11.255-.2.483l-.166.416-.008.15c-.005.091 0 .19.013.247a.954.954 0 0 0 .07.188c.026.052.18.258.34.458.231.287.316.38.396.433a1 1 0 0 0 .195.1c.051.017.143.034.203.039.078.006.244-.012.56-.06.248-.038.481-.08.52-.093a.874.874 0 0 0 .398-.31c.027-.04.125-.265.219-.502a6.11 6.11 0 0 0 .189-.528.622.622 0 0 0 0-.237.936.936 0 0 0-.068-.24 4.434 4.434 0 0 0-.353-.485c-.254-.317-.321-.39-.4-.437a1.441 1.441 0 0 0-.185-.091.795.795 0 0 0-.226-.041zm12.853.215c-.07 0-.48.053-.91.117-.429.064-.818.129-.865.145a.952.952 0 0 0-.17.084c-.046.03-.12.092-.163.14a.864.864 0 0 0-.115.153c-.019.039-.17.41-.333.828a13.04 13.04 0 0 0-.318.859.66.66 0 0 0 .001.238c.014.09.039.173.076.245.032.063.277.388.585.776.438.551.547.68.626.732.053.035.146.08.208.103.077.027.15.04.236.04.067 0 .483-.054.924-.119.44-.065.828-.127.86-.138a.88.88 0 0 0 .137-.062c.042-.023.108-.069.146-.1s.098-.097.132-.146c.037-.055.165-.355.341-.8.155-.393.3-.768.323-.835a.73.73 0 0 0 .041-.238c0-.064-.011-.16-.025-.214a1.045 1.045 0 0 0-.067-.177 12.457 12.457 0 0 0-.51-.674c-.258-.327-.5-.631-.539-.677a.914.914 0 0 0-.17-.149.773.773 0 0 0-.45-.131zm16.26.51c-.029 0-.223.026-.433.058-.325.05-.399.066-.492.111a.867.867 0 0 0-.231.176l-.12.122-.16.397-.158.397v.17c0 .12.009.196.03.263.018.05.048.12.068.152.02.033.136.186.26.341.122.155.25.305.285.335a.8.8 0 0 0 .313.162c.05.015.14.028.2.028s.262-.024.45-.052c.19-.028.37-.06.403-.07a.885.885 0 0 0 .135-.061 1.062 1.062 0 0 0 .289-.267c.025-.037.11-.228.188-.424l.142-.356.006-.165a.807.807 0 0 0-.022-.263.983.983 0 0 0-.066-.166 5.223 5.223 0 0 0-.268-.357 4.557 4.557 0 0 0-.286-.336 1.016 1.016 0 0 0-.157-.098.959.959 0 0 0-.377-.097zm-39.08.135c-.071 0-.186.011-.256.023s-.162.037-.204.056a.999.999 0 0 0-.337.27 1.307 1.307 0 0 0-.126.24c-.034.084-.07.2-.078.259a.73.73 0 0 0-.001.22c.009.063.032.157.051.21.02.051.071.142.115.2.043.058.118.146.165.194a.802.802 0 0 0 .17.129c.046.023.125.055.175.071.057.02.141.03.22.03a1.206 1.206 0 0 0 .51-.108.885.885 0 0 0 .37-.37c.03-.061.074-.172.099-.247a.556.556 0 0 0 .036-.28 1.209 1.209 0 0 0-.036-.231.882.882 0 0 0-.094-.188 2.17 2.17 0 0 0-.168-.21.846.846 0 0 0-.2-.163 1.241 1.241 0 0 0-.19-.08.878.878 0 0 0-.221-.025zm29.177.492c-.023 0-.4.055-.84.12l-.797.118-.119.056a.879.879 0 0 0-.368.326c-.024.045-.17.404-.325.797s-.29.755-.3.804a.768.768 0 0 0-.009.206c.006.064.027.16.045.214.018.053.06.135.091.182.032.046.27.352.53.678.375.471.492.607.565.657.051.034.135.079.187.099.051.02.15.04.22.045.102.007.28-.014.89-.104.42-.062.805-.125.854-.14a.921.921 0 0 0 .195-.098c.058-.039.142-.116.186-.17.071-.089.117-.192.388-.873l.307-.773.01-.136a.754.754 0 0 0-.02-.244 1.366 1.366 0 0 0-.06-.178c-.016-.038-.246-.34-.51-.672a23.56 23.56 0 0 0-.547-.674.875.875 0 0 0-.415-.217.984.984 0 0 0-.158-.023zm5.972 1.968c-.023 0-.344.046-.713.102l-.67.1-.118.057c-.066.031-.156.089-.2.129a.998.998 0 0 0-.131.145c-.028.04-.165.362-.305.717-.185.467-.258.672-.266.745a.964.964 0 0 0 .01.22c.012.066.041.163.066.215.026.053.236.336.475.637.348.44.446.554.524.605.052.035.145.08.207.103.077.027.15.04.235.04.068 0 .408-.042.757-.093.349-.052.667-.105.708-.12a.89.89 0 0 0 .153-.077 1.09 1.09 0 0 0 .164-.14c.047-.05.1-.121.12-.16.02-.037.144-.342.276-.677l.24-.608.009-.136c.005-.075 0-.178-.012-.23a.963.963 0 0 0-.058-.177 7.69 7.69 0 0 0-.434-.585 17.644 17.644 0 0 0-.464-.572.873.873 0 0 0-.415-.217.98.98 0 0 0-.157-.023zm-23.088 1.493c-.07 0-.456.051-.858.11l-.729.11-.124.06a.892.892 0 0 0-.358.325c-.02.04-.164.392-.32.78l-.28.708-.009.163a.748.748 0 0 0 .09.434c.021.04.254.342.516.674.263.331.507.625.543.653.035.028.112.074.17.102.058.027.158.058.221.069l.116.02.777-.113c.428-.062.814-.124.858-.138a.95.95 0 0 0 .347-.231.822.822 0 0 0 .107-.147c.02-.038.156-.377.304-.752s.278-.714.288-.751a.752.752 0 0 0 .02-.165 1.03 1.03 0 0 0-.02-.186 1.07 1.07 0 0 0-.057-.175c-.02-.047-.243-.345-.5-.67a22.82 22.82 0 0 0-.53-.657.779.779 0 0 0-.164-.121 1.197 1.197 0 0 0-.187-.077.866.866 0 0 0-.22-.025zm-6.227.192c-.08-.004-.224.009-.39.035l-.54.083c-.24.037-.292.051-.394.105a.873.873 0 0 0-.226.177l-.108.114-.217.54-.216.541-.008.151c-.005.09 0 .189.013.246a.93.93 0 0 0 .063.179c.023.046.2.282.393.525.289.364.367.452.449.505.055.035.142.08.194.1.052.02.14.04.197.044.075.007.253-.013.638-.07.294-.044.575-.093.624-.11a.958.958 0 0 0 .353-.249.92.92 0 0 0 .081-.12c.016-.03.117-.278.224-.549a5.62 5.62 0 0 0 .213-.596.701.701 0 0 0-.001-.22 1.256 1.256 0 0 0-.05-.198.841.841 0 0 0-.083-.157 20.692 20.692 0 0 0-.372-.473c-.247-.308-.34-.413-.412-.46a1.157 1.157 0 0 0-.195-.1.85.85 0 0 0-.23-.043zm38.324.045a4.84 4.84 0 0 0-.444.049 4.641 4.641 0 0 0-.382.068.911.911 0 0 0-.142.064 1.115 1.115 0 0 0-.297.275c-.02.033-.1.22-.178.416l-.141.356-.008.15c-.005.09 0 .19.013.247.011.052.04.132.063.178.023.046.141.21.263.365.121.155.248.307.282.337.034.031.104.078.155.104a.804.804 0 0 0 .374.103c.054 0 .253-.023.443-.05.19-.029.372-.06.405-.07.032-.011.1-.042.15-.07.05-.028.13-.09.18-.139a.811.811 0 0 0 .132-.172 8.36 8.36 0 0 0 .174-.414c.117-.298.132-.346.14-.475a.776.776 0 0 0-.088-.436 4.837 4.837 0 0 0-.254-.341 4.624 4.624 0 0 0-.288-.34.852.852 0 0 0-.158-.11 1.276 1.276 0 0 0-.174-.07.865.865 0 0 0-.22-.025zm-43.498.144a2.871 2.871 0 0 0-.474.05c-.279.043-.405.07-.474.102a.93.93 0 0 0-.335.265c-.036.049-.118.226-.202.437-.084.21-.15.4-.16.466a.666.666 0 0 0-.001.218c.01.058.024.131.033.162.01.03.034.088.056.128.022.039.138.195.257.345.119.151.247.303.285.337a.938.938 0 0 0 .427.193c.099.014.173.008.516-.042.334-.048.417-.066.508-.109a.917.917 0 0 0 .211-.149c.057-.053.122-.13.144-.168s.104-.226.179-.416l.137-.345.008-.142c.005-.083 0-.181-.012-.237a1.008 1.008 0 0 0-.062-.18c-.022-.047-.15-.224-.284-.392s-.27-.327-.301-.35a.95.95 0 0 0-.278-.138 1.028 1.028 0 0 0-.178-.035zm18.076.116c-.105-.004-.34.025-1.035.13l-.9.135-.123.06a.907.907 0 0 0-.356.322c-.02.038-.185.449-.369.913-.204.515-.34.886-.352.952a.635.635 0 0 0 0 .223c.01.064.034.158.054.21.027.071.174.269.605.814.314.397.598.75.632.785.034.036.12.094.192.13.074.037.18.074.248.086l.118.021.948-.139.948-.14.12-.055a.854.854 0 0 0 .367-.327c.024-.044.195-.463.38-.93l.338-.848v-.203c-.001-.172-.007-.22-.04-.301a1.24 1.24 0 0 0-.139-.23 93.016 93.016 0 0 0-.605-.767c-.412-.519-.523-.648-.599-.698a1.18 1.18 0 0 0-.195-.099.805.805 0 0 0-.237-.043zm21.103.373c-.098-.004-.258.013-.576.062-.353.055-.462.078-.543.116a.984.984 0 0 0-.178.11 1.229 1.229 0 0 0-.14.143c-.047.058-.11.196-.236.512-.094.238-.178.455-.187.483a.98.98 0 0 0-.016.192c0 .081.011.18.028.237.015.053.042.123.058.156.017.033.162.224.323.425.16.2.315.384.345.408.03.024.08.06.113.08.033.019.108.051.169.071.075.026.149.037.237.036.07 0 .325-.03.566-.067.377-.057.453-.074.543-.119.058-.028.144-.086.192-.128a.916.916 0 0 0 .139-.158c.028-.044.13-.276.224-.513l.173-.433.008-.153a.795.795 0 0 0-.02-.262 1.046 1.046 0 0 0-.06-.17 7.224 7.224 0 0 0-.344-.45c-.26-.324-.328-.4-.406-.446a1.441 1.441 0 0 0-.185-.091.783.783 0 0 0-.227-.04zm-14.4.352a.84.84 0 0 0-.147-.006c-.033.003-.514.073-1.07.156-.554.083-1.041.162-1.081.176a.945.945 0 0 0-.323.221.802.802 0 0 0-.105.146c-.02.039-.208.504-.418 1.032l-.382.961-.01.13a.996.996 0 0 0 .012.238.974.974 0 0 0 .062.192c.022.046.327.447.677.89.351.444.667.835.7.87a.874.874 0 0 0 .193.13.992.992 0 0 0 .246.085l.117.02 1.051-.154a36.056 36.056 0 0 0 1.112-.173c.032-.01.097-.038.144-.061a.974.974 0 0 0 .195-.155.903.903 0 0 0 .143-.179c.017-.036.197-.487.4-1.002.203-.514.378-.965.388-1.002a.728.728 0 0 0 .019-.162c0-.052-.007-.136-.017-.186a.93.93 0 0 0-.072-.202c-.035-.07-.292-.408-.704-.927-.357-.45-.677-.84-.713-.867a.94.94 0 0 0-.264-.14 1.011 1.011 0 0 0-.152-.031zm6.292 1.373c-.057.001-.507.063-1 .136l-.898.134-.107.053a1.09 1.09 0 0 0-.206.142.82.82 0 0 0-.143.172c-.025.045-.196.464-.38.93l-.335.849-.007.164a.7.7 0 0 0 .027.28c.02.064.058.15.085.192.028.042.3.393.608.78.432.545.578.717.649.767.05.035.134.08.186.1.053.02.139.042.192.051.084.014.219-.002 1.018-.12.507-.075.959-.148 1.004-.163a.877.877 0 0 0 .17-.082c.048-.03.13-.102.183-.16l.096-.103.24-.607c.133-.334.295-.744.36-.912l.118-.304v-.154a.875.875 0 0 0-.035-.264.848.848 0 0 0-.082-.18 45.136 45.136 0 0 0-.582-.745 23.612 23.612 0 0 0-.597-.738.845.845 0 0 0-.564-.218zm-34.922.05a.75.75 0 0 0-.215.03.994.994 0 0 0-.171.085c-.047.03-.125.096-.174.148a.803.803 0 0 0-.128.184 1.04 1.04 0 0 0-.06.203.638.638 0 0 0 0 .23.775.775 0 0 0 .133.358 1.1 1.1 0 0 0 .104.116.804.804 0 0 0 .155.104c.052.026.139.061.193.077.07.02.14.027.238.021a.56.56 0 0 0 .265-.067 1.09 1.09 0 0 0 .215-.14.829.829 0 0 0 .133-.156c.024-.04.059-.114.077-.162a.622.622 0 0 0 .033-.233.873.873 0 0 0-.033-.252 1.045 1.045 0 0 0-.075-.178.846.846 0 0 0-.294-.272 1.26 1.26 0 0 0-.175-.07.935.935 0 0 0-.22-.026zm40.426 2.211c-.11-.005-.296.018-.794.094-.582.089-.66.104-.755.151a1.073 1.073 0 0 0-.192.129.913.913 0 0 0-.139.158c-.028.044-.163.363-.3.708l-.25.628-.009.145c-.004.08 0 .187.012.238.01.05.037.13.06.177.021.047.235.33.473.63.35.44.453.557.53.608.052.035.138.079.19.098a.96.96 0 0 0 .216.042c.089.006.285-.016.78-.088l.662-.097.124-.057a.888.888 0 0 0 .364-.326c.023-.044.152-.355.284-.691l.242-.611.008-.142c.005-.084 0-.182-.013-.238a1.02 1.02 0 0 0-.06-.18 8.925 8.925 0 0 0-.47-.626c-.343-.433-.448-.555-.525-.608a1.059 1.059 0 0 0-.195-.101.84.84 0 0 0-.243-.04zm-29.088.53c-.07-.006-.274.018-.702.083-.33.05-.635.1-.675.112a.787.787 0 0 0-.17.083 1.211 1.211 0 0 0-.162.129 1 1 0 0 0-.105.125 9.772 9.772 0 0 0-.269.642c-.126.32-.238.628-.248.683a.69.69 0 0 0 0 .232c.01.075.039.175.066.233.028.06.196.29.408.56.198.252.394.493.436.536a.837.837 0 0 0 .553.236c.054 0 .377-.042.717-.093.51-.076.634-.1.712-.137.052-.024.132-.073.177-.11a.944.944 0 0 0 .145-.15c.045-.061.137-.27.302-.686l.238-.597.008-.15c.006-.088 0-.19-.012-.248a.895.895 0 0 0-.066-.186 9.083 9.083 0 0 0-.442-.587c-.328-.414-.414-.512-.498-.568a.965.965 0 0 0-.208-.1 1.2 1.2 0 0 0-.206-.042zm6.169.178c-.033.001-.434.058-.891.127l-.831.125-.124.061a.937.937 0 0 0-.223.157.842.842 0 0 0-.134.167c-.02.038-.175.42-.345.848l-.308.778-.008.145c-.005.1 0 .178.02.254a.91.91 0 0 0 .074.19c.026.044.273.365.55.714s.537.664.575.698a.95.95 0 0 0 .42.195c.075.011.15.011.238 0l.876-.128.746-.109.107-.052c.058-.029.152-.095.208-.147a.937.937 0 0 0 .143-.164c.022-.038.179-.42.349-.85l.309-.78.008-.154c.005-.085 0-.195-.012-.246a.856.856 0 0 0-.065-.182 13.67 13.67 0 0 0-.571-.752 13.883 13.883 0 0 0-.586-.71 1.092 1.092 0 0 0-.15-.093 1 1 0 0 0-.376-.092zm-11.785.06c-.07-.007-.253.014-.6.066l-.5.076-.12.059c-.066.032-.156.09-.2.128a.962.962 0 0 0-.13.144 5.94 5.94 0 0 0-.241.554l-.19.48-.007.147c-.004.08.002.187.012.237.01.05.036.127.057.171.02.044.173.25.338.46.164.208.334.41.375.448a.856.856 0 0 0 .159.112.83.83 0 0 0 .37.096c.056 0 .307-.03.559-.068.251-.037.476-.073.5-.079a.914.914 0 0 0 .458-.334c.026-.039.134-.288.24-.553l.192-.484.007-.145a.83.83 0 0 0-.087-.43 8.854 8.854 0 0 0-.362-.477c-.26-.327-.343-.42-.422-.47a.984.984 0 0 0-.203-.097 1.18 1.18 0 0 0-.206-.041zm40.303.076c-.08.001-.41.042-.735.091l-.59.09-.112.056a.872.872 0 0 0-.35.333c-.023.044-.143.337-.268.65l-.226.568-.006.154a.891.891 0 0 0 .021.263c.015.06.05.143.075.186.027.042.22.295.432.561.211.267.41.504.44.527a1.138 1.138 0 0 0 .317.156c.05.015.135.027.187.027.052 0 .369-.041.705-.092.336-.05.643-.103.683-.118a.95.95 0 0 0 .315-.213.967.967 0 0 0 .101-.139c.024-.04.147-.336.273-.656.186-.47.233-.605.241-.696a.923.923 0 0 0-.007-.206 1.302 1.302 0 0 0-.052-.188c-.026-.07-.14-.226-.443-.61a10.265 10.265 0 0 0-.466-.563 1 1 0 0 0-.156-.097 1.202 1.202 0 0 0-.167-.067.99.99 0 0 0-.212-.017zm4.3.514a1.845 1.845 0 0 0-.344.026 1.058 1.058 0 0 0-.3.084.862.862 0 0 0-.354.335 3.63 3.63 0 0 0-.114.271 1.09 1.09 0 0 0-.079.303.774.774 0 0 0 .019.233c.014.062.042.148.062.19.02.04.102.157.183.258.086.108.184.21.237.247.05.034.138.079.195.098.058.02.151.04.207.046.066.006.181-.003.33-.027.16-.025.262-.051.336-.086a.91.91 0 0 0 .21-.148c.057-.054.12-.129.143-.166.021-.037.074-.158.118-.269.054-.137.081-.236.087-.314a.993.993 0 0 0-.008-.206 1.316 1.316 0 0 0-.052-.187 1.322 1.322 0 0 0-.189-.284 1.876 1.876 0 0 0-.233-.25 1.084 1.084 0 0 0-.19-.103.674.674 0 0 0-.264-.051zm-49.426.216c-.033 0-.19.022-.348.047a2.21 2.21 0 0 0-.373.084 1.09 1.09 0 0 0-.173.105.953.953 0 0 0-.156.156 2.008 2.008 0 0 0-.18.369c-.06.154-.12.327-.13.384a.637.637 0 0 0 .001.225c.01.066.034.16.052.21.019.05.097.17.178.275.08.103.184.23.231.285.047.054.125.12.174.148a.84.84 0 0 0 .419.118c.062 0 .238-.019.39-.042.222-.034.297-.053.387-.098a.94.94 0 0 0 .363-.343c.023-.047.086-.2.14-.34.077-.198.1-.28.106-.375a.881.881 0 0 0-.089-.443 4.164 4.164 0 0 0-.222-.302 3.327 3.327 0 0 0-.233-.272.992.992 0 0 0-.366-.17.976.976 0 0 0-.172-.021zm23.114.101c-.028 0-.45.061-.937.134-.488.073-.915.142-.95.153a.926.926 0 0 0-.14.064 1.098 1.098 0 0 0-.168.13.893.893 0 0 0-.13.153c-.022.038-.19.446-.373.908l-.334.84-.008.15a.986.986 0 0 0 .012.247c.012.052.04.133.064.18.023.046.301.409.617.805.426.535.595.736.657.778.045.03.131.076.19.1.073.03.152.046.237.05.097.007.332-.022 1.005-.12.483-.071.908-.14.944-.152.037-.013.103-.044.147-.07a1.08 1.08 0 0 0 .154-.115.89.89 0 0 0 .122-.145c.028-.044.196-.45.373-.902.177-.453.33-.854.34-.891a.781.781 0 0 0 .019-.17.975.975 0 0 0-.087-.386 18.07 18.07 0 0 0-.604-.788 15.488 15.488 0 0 0-.63-.766 1.11 1.11 0 0 0-.153-.095.998.998 0 0 0-.367-.092zm6.87.957c-.073-.005-.368.032-1.068.136l-.967.144-.124.06a.855.855 0 0 0-.359.328 40.72 40.72 0 0 0-.393.971c-.298.754-.355.914-.364 1.01a.808.808 0 0 0 .016.238c.014.068.04.156.058.196.018.04.31.42.647.844.338.425.645.797.683.827.038.03.11.074.162.099.05.024.147.055.213.069l.12.025.298-.043.943-.137c.354-.051.681-.101.725-.11a.782.782 0 0 0 .329-.168.878.878 0 0 0 .147-.158c.04-.058.188-.41.42-.996.197-.498.366-.95.375-1.006a.696.696 0 0 0 0-.23.761.761 0 0 0-.083-.255c-.042-.081-.268-.38-.665-.88-.52-.655-.614-.765-.7-.821a1.085 1.085 0 0 0-.206-.1 1.058 1.058 0 0 0-.206-.042zm6.408 1.799a.891.891 0 0 0-.19.007c-.042.008-.392.061-.777.119-.425.063-.738.118-.794.138a.92.92 0 0 0-.189.108 1 1 0 0 0-.163.16c-.05.066-.136.264-.352.81-.158.398-.298.761-.312.808a.784.784 0 0 0-.006.372c.01.05.036.128.056.175.022.048.25.352.534.712.274.345.525.652.559.682a.96.96 0 0 0 .169.108c.059.03.165.064.237.078l.13.025.806-.119c.444-.065.839-.13.878-.144a1.02 1.02 0 0 0 .145-.069 1.008 1.008 0 0 0 .273-.258c.024-.036.177-.407.341-.824.235-.598.3-.782.309-.866.005-.059 0-.161-.01-.227a.933.933 0 0 0-.075-.224 11.46 11.46 0 0 0-.55-.73c-.385-.485-.517-.64-.588-.688a1.092 1.092 0 0 0-.204-.104.998.998 0 0 0-.227-.049zm-23.499.874c-.061.001-.385.043-.72.093l-.611.091-.109.054a.953.953 0 0 0-.355.33c-.02.037-.132.312-.25.61-.12.299-.227.585-.24.636a.893.893 0 0 0-.022.178.984.984 0 0 0 .087.37c.02.039.216.3.436.578.22.278.429.528.463.555a1.044 1.044 0 0 0 .395.173l.11.019.658-.097.658-.098.127-.061a.9.9 0 0 0 .368-.336c.02-.038.14-.335.268-.662l.234-.593.001-.136c.001-.075-.009-.178-.021-.23a.893.893 0 0 0-.068-.177 9.417 9.417 0 0 0-.432-.573 9.245 9.245 0 0 0-.446-.537 1.062 1.062 0 0 0-.14-.092.955.955 0 0 0-.18-.07.96.96 0 0 0-.21-.025zm29.417.476a1.06 1.06 0 0 0-.085.01l-.679.1-.636.092-.106.052a.946.946 0 0 0-.351.31c-.023.039-.149.344-.28.678a9.256 9.256 0 0 0-.26.71.658.658 0 0 0 .001.239c.012.08.04.18.07.24.03.063.21.307.466.629.332.418.438.54.518.596.055.039.145.088.2.109a.874.874 0 0 0 .226.045c.097.006.283-.015.78-.087l.653-.096.12-.058c.066-.032.156-.09.2-.128a.981.981 0 0 0 .133-.148c.03-.042.167-.36.307-.706l.254-.63.008-.153c.005-.086 0-.195-.012-.246a.855.855 0 0 0-.065-.182 8.901 8.901 0 0 0-.45-.596 11.344 11.344 0 0 0-.47-.568.932.932 0 0 0-.388-.19.91.91 0 0 0-.155-.022zm-34.336.118c-.042.001-.405.051-.806.112l-.73.11-.118.055a.879.879 0 0 0-.368.327 19.07 19.07 0 0 0-.32.777c-.244.616-.276.71-.283.818-.005.068 0 .171.012.23a.982.982 0 0 0 .06.19c.023.047.24.337.484.645.243.308.478.596.52.64a.861.861 0 0 0 .175.13.87.87 0 0 0 .374.103c.043 0 .288-.03.544-.068l.753-.111c.225-.034.312-.055.395-.094a.918.918 0 0 0 .364-.331c.024-.046.168-.395.32-.778l.275-.695.008-.128a1 1 0 0 0-.011-.22 1.006 1.006 0 0 0-.061-.184c-.024-.051-.249-.35-.525-.697a12.086 12.086 0 0 0-.54-.65 1.155 1.155 0 0 0-.144-.087.894.894 0 0 0-.378-.093zm10.95.684c-.126-.005-.332.021-1.212.154l-1.06.16-.105.052a1.019 1.019 0 0 0-.192.13c-.047.043-.109.11-.136.15-.026.039-.23.528-.45 1.087s-.41 1.061-.42 1.116a.668.668 0 0 0 .001.237.804.804 0 0 0 .075.25c.036.07.305.423.74.97.57.717.698.87.778.922.052.035.145.08.207.102.076.027.15.04.23.04.066 0 .585-.068 1.154-.153a28.23 28.23 0 0 0 1.12-.179.957.957 0 0 0 .394-.279c.06-.077.14-.266.48-1.124.283-.713.415-1.065.425-1.137a.854.854 0 0 0-.001-.218 1.246 1.246 0 0 0-.05-.204c-.024-.063-.117-.196-.303-.43l-.703-.885c-.28-.351-.465-.568-.517-.606a1.097 1.097 0 0 0-.191-.104.679.679 0 0 0-.263-.051zm28.706.017a2.508 2.508 0 0 0-.466.046c-.182.029-.37.067-.42.085a.952.952 0 0 0-.192.11.958.958 0 0 0-.169.17 2.816 2.816 0 0 0-.206.445c-.125.314-.14.364-.147.486-.005.075.001.179.012.23.01.05.038.133.06.182.024.05.137.21.253.357.116.146.245.298.287.337a.85.85 0 0 0 .159.112.798.798 0 0 0 .362.096c.052 0 .251-.023.442-.051.293-.044.365-.06.466-.108.065-.03.158-.091.206-.135a.968.968 0 0 0 .14-.16c.028-.045.114-.241.19-.437l.14-.355-.002-.153a.848.848 0 0 0-.117-.443 9.816 9.816 0 0 0-.258-.334c-.159-.2-.24-.286-.312-.334a1.183 1.183 0 0 0-.195-.103.807.807 0 0 0-.233-.042zm-21.9.605c-.067.001-.518.061-1.003.134-.485.072-.909.137-.941.144a.84.84 0 0 0-.367.221.885.885 0 0 0-.137.17c-.02.037-.192.467-.386.954-.298.754-.352.904-.36 1.001-.005.063-.001.156.008.208.01.051.033.135.053.186.026.072.182.28.657.88.541.685.636.796.722.852a1.05 1.05 0 0 0 .386.143c.053.007.319-.025.84-.1l.984-.147a1.22 1.22 0 0 0 .323-.082c.056-.026.14-.08.188-.118a.892.892 0 0 0 .148-.159c.039-.058.185-.406.41-.975.19-.487.356-.926.367-.975a.876.876 0 0 0-.098-.568 42.736 42.736 0 0 0-.58-.744 26.29 26.29 0 0 0-.636-.784.861.861 0 0 0-.18-.138 1.209 1.209 0 0 0-.186-.077.87.87 0 0 0-.212-.026zm-22.684.018c-.027 0-.24.03-.47.065-.366.056-.436.071-.531.118-.06.03-.156.097-.213.15a.667.667 0 0 0-.167.231 9.392 9.392 0 0 0-.195.47l-.129.334v.15c0 .083.011.189.024.236a.952.952 0 0 0 .058.155c.02.038.15.214.29.39.139.177.28.346.315.376.034.03.097.072.141.094.044.022.122.054.173.07.057.02.14.03.213.03.065 0 .294-.028.508-.062.344-.054.405-.068.511-.12a.931.931 0 0 0 .336-.295c.021-.034.11-.241.197-.46.135-.342.16-.417.166-.522a1.066 1.066 0 0 0-.012-.229.967.967 0 0 0-.067-.2 4.406 4.406 0 0 0-.31-.423 4.374 4.374 0 0 0-.321-.376 1.226 1.226 0 0 0-.15-.09 1.008 1.008 0 0 0-.366-.092zm-3.876 1.125a1.938 1.938 0 0 0-.365.035c-.205.034-.278.053-.378.103a.856.856 0 0 0-.363.338 4.645 4.645 0 0 0-.121.288 2.335 2.335 0 0 0-.097.304.694.694 0 0 0-.007.186.896.896 0 0 0 .085.303c.022.044.109.166.193.272.084.106.183.221.22.255.038.034.106.08.151.103a.871.871 0 0 0 .362.095c.041 0 .195-.018.342-.04.196-.03.292-.052.36-.086a.935.935 0 0 0 .322-.26c.033-.044.106-.198.164-.343.092-.23.106-.28.113-.405a1.026 1.026 0 0 0-.013-.237 1.017 1.017 0 0 0-.061-.18 2.55 2.55 0 0 0-.223-.313c-.151-.188-.202-.239-.293-.293a1.087 1.087 0 0 0-.195-.092 1.049 1.049 0 0 0-.196-.032zm33.225.876c-.047.001-.334.039-.637.085l-.831.125c-.201.03-.305.055-.37.087a.925.925 0 0 0-.33.281c-.039.057-.175.378-.37.868-.186.474-.313.819-.323.881a.691.691 0 0 0 0 .219c.01.063.034.158.054.21.025.067.11.19.293.42l.548.69c.177.223.32.387.369.422.043.03.124.075.18.098.056.022.15.048.208.056.085.012.17.006.436-.033l.857-.126.526-.078.118-.057c.066-.03.156-.089.2-.128a.998.998 0 0 0 .132-.146c.028-.04.192-.43.366-.868l.314-.794.01-.13a.996.996 0 0 0-.012-.238.989.989 0 0 0-.06-.191 11.89 11.89 0 0 0-.55-.73 16.77 16.77 0 0 0-.584-.712.846.846 0 0 0-.545-.21zm-19.332 1.25a.794.794 0 0 0-.127 0l-.957.14c-.804.12-.917.14-1.01.183a.828.828 0 0 0-.34.28c-.033.05-.21.47-.41.97l-.35.882-.009.163a.747.747 0 0 0 .09.435c.022.04.3.4.618.801.319.401.611.756.65.787.04.032.102.073.14.092a.84.84 0 0 0 .359.089c.058 0 .52-.06 1.026-.135.817-.12.93-.141 1.022-.184.057-.027.142-.08.189-.117a.88.88 0 0 0 .148-.16c.042-.06.18-.387.414-.973l.35-.882.009-.163a.737.737 0 0 0-.022-.263 1.164 1.164 0 0 0-.06-.162 19.626 19.626 0 0 0-.595-.772 33.61 33.61 0 0 0-.631-.781.754.754 0 0 0-.163-.121.913.913 0 0 0-.341-.108zm25.669.718c-.07.001-.417.047-.769.1-.555.086-.654.105-.746.149a1.147 1.147 0 0 0-.193.12.891.891 0 0 0-.148.16c-.038.054-.158.336-.317.738-.215.545-.258.668-.266.767a.95.95 0 0 0 .01.222c.012.058.039.145.06.193.023.053.216.31.482.642.283.355.472.575.524.613.044.033.13.08.19.104.072.03.156.048.238.053.1.006.276-.014.8-.093.6-.09.686-.106.786-.153a1.001 1.001 0 0 0 .358-.317c.021-.037.15-.35.288-.694.138-.348.255-.67.264-.724a.787.787 0 0 0-.001-.214 1.267 1.267 0 0 0-.043-.192.93.93 0 0 0-.061-.133 16.434 16.434 0 0 0-.44-.57 11.26 11.26 0 0 0-.474-.574.806.806 0 0 0-.543-.197zm5.3.514c-.096-.003-.277.016-.627.07-.271.04-.53.085-.578.1a.85.85 0 0 0-.167.078c-.045.029-.12.09-.165.138a.798.798 0 0 0-.118.153c-.019.037-.123.29-.232.562l-.197.496-.007.145c-.004.08.001.186.012.235.01.049.038.128.06.176.024.049.201.287.395.53.293.366.37.452.46.512.059.04.157.087.218.106a.892.892 0 0 0 .215.035c.057 0 .34-.035.63-.077l.526-.077.12-.059c.066-.032.156-.09.2-.128a.954.954 0 0 0 .13-.142c.026-.04.142-.304.257-.588l.209-.516v-.212c0-.182-.006-.226-.04-.31-.027-.068-.123-.205-.307-.437a43.064 43.064 0 0 0-.371-.465 1.143 1.143 0 0 0-.195-.187 1.072 1.072 0 0 0-.19-.096.855.855 0 0 0-.237-.042zm4.25.475a2.58 2.58 0 0 0-.492.046c-.23.036-.359.064-.423.093a1.12 1.12 0 0 0-.183.112.932.932 0 0 0-.152.153 2.929 2.929 0 0 0-.205.443l-.143.36-.009.144a.754.754 0 0 0 .019.254c.016.06.043.14.061.178.018.037.138.199.267.358a4.6 4.6 0 0 0 .284.332c.028.023.079.059.113.08a.988.988 0 0 0 .34.112c.064.008.203-.006.475-.048.32-.048.404-.067.497-.11a.953.953 0 0 0 .368-.338c.025-.044.103-.233.176-.42l.132-.34v-.143c0-.09-.01-.183-.03-.246a1.039 1.039 0 0 0-.067-.17 5.24 5.24 0 0 0-.27-.358c-.167-.21-.256-.308-.323-.352a1.222 1.222 0 0 0-.183-.097.713.713 0 0 0-.252-.043zm-26.168.012a32.518 32.518 0 0 0-1.465.21.964.964 0 0 0-.134.054 1.082 1.082 0 0 0-.337.297c-.022.034-.16.363-.306.73l-.265.667-.009.154c-.004.084.001.195.012.246.01.05.04.131.066.18.025.048.25.344.5.658.393.493.467.578.558.637.058.037.154.083.214.101.066.02.157.034.23.034.067 0 .167-.007.223-.016.056-.01.364-.055.684-.102.523-.076.594-.09.689-.137a1.08 1.08 0 0 0 .194-.129c.048-.042.11-.11.138-.15.027-.04.172-.381.321-.758.213-.538.273-.708.282-.794a.938.938 0 0 0-.01-.221.99.99 0 0 0-.06-.2c-.023-.052-.225-.323-.481-.647a13.22 13.22 0 0 0-.51-.617.845.845 0 0 0-.152-.105 1.096 1.096 0 0 0-.182-.068.89.89 0 0 0-.2-.024zm-14.99.064c-.057 0-.426.05-.82.108l-.72.107-.12.06a.952.952 0 0 0-.212.148.974.974 0 0 0-.13.158c-.023.039-.164.38-.315.758l-.274.687-.01.152a.76.76 0 0 0 .02.262c.016.06.043.137.06.17.018.033.227.308.467.612.239.303.47.587.513.63.042.044.12.103.172.13a.88.88 0 0 0 .373.104c.038 0 .354-.041.702-.093.348-.051.684-.101.748-.112a.924.924 0 0 0 .234-.078.847.847 0 0 0 .357-.336c.024-.046.163-.387.308-.757.194-.49.269-.699.276-.772a1 1 0 0 0-.01-.225.936.936 0 0 0-.075-.228 9.273 9.273 0 0 0-.49-.655 13.18 13.18 0 0 0-.514-.623.821.821 0 0 0-.542-.207zm-5.235.858a1.823 1.823 0 0 0-.356.032l-.42.066a.953.953 0 0 0-.255.076 1.032 1.032 0 0 0-.187.13 1.06 1.06 0 0 0-.138.15c-.028.04-.12.247-.205.461-.135.337-.157.406-.165.517a.871.871 0 0 0 .086.448c.022.038.155.215.297.393.197.248.281.34.354.389.052.034.145.08.207.103.08.027.15.04.24.04.07 0 .296-.026.503-.058.305-.046.397-.066.484-.107a1.027 1.027 0 0 0 .36-.317c.023-.038.108-.237.189-.443.128-.323.148-.39.156-.503a.886.886 0 0 0-.086-.447 6.799 6.799 0 0 0-.297-.393c-.205-.258-.28-.34-.362-.394a.966.966 0 0 0-.208-.101 1.197 1.197 0 0 0-.197-.042zm26.008.923c-.024.001-.384.053-.8.116-.67.102-.77.121-.866.166a1.026 1.026 0 0 0-.362.317c-.022.039-.163.383-.314.765-.16.404-.281.738-.29.797a.657.657 0 0 0-.007.17c.006.037.019.106.029.153.01.047.038.123.063.17.025.046.26.355.523.687.357.45.498.616.56.658.047.03.133.076.193.1a.755.755 0 0 0 .227.051c.088.006.313-.021.874-.105.651-.097.769-.119.857-.16a1.12 1.12 0 0 0 .186-.115.883.883 0 0 0 .149-.16c.041-.06.16-.338.345-.804l.283-.712.008-.145c.004-.08 0-.187-.012-.238a.978.978 0 0 0-.058-.177 10.623 10.623 0 0 0-.526-.7c-.332-.418-.511-.63-.564-.666a1.237 1.237 0 0 0-.166-.093 1.024 1.024 0 0 0-.332-.075zm-10.595.882c-.037 0-.446.058-.908.128l-.84.125-.123.06a.861.861 0 0 0-.363.337c-.024.047-.179.428-.344.846-.165.418-.309.806-.319.861a.606.606 0 0 0 0 .226c.011.068.036.166.055.217.026.07.17.263.593.795.423.533.578.717.642.76a.896.896 0 0 0 .408.15c.083.007.238-.01.588-.061.262-.039.605-.09.764-.112.158-.024.334-.05.39-.06a.952.952 0 0 0 .204-.069c.056-.027.136-.08.179-.116a.947.947 0 0 0 .14-.157c.038-.057.178-.384.378-.887l.317-.798.008-.153c.005-.085 0-.195-.011-.246a.855.855 0 0 0-.066-.182c-.025-.05-.285-.39-.577-.759a17.857 17.857 0 0 0-.584-.712.972.972 0 0 0-.357-.17.847.847 0 0 0-.174-.023zm17.185.787c-.073-.006-.327.026-.895.11-.48.073-.829.133-.882.153a.952.952 0 0 0-.356.266c-.05.063-.132.254-.37.851-.198.499-.31.805-.319.868-.007.054-.008.15 0 .214.006.064.028.16.048.214.023.06.092.167.18.28.078.1.316.4.528.665.325.406.404.495.494.556.059.039.158.087.22.107.064.02.162.036.224.037.06 0 .45-.05.865-.113.416-.062.796-.125.845-.14a.91.91 0 0 0 .389-.28c.056-.073.13-.24.367-.837.163-.41.304-.777.314-.814a.834.834 0 0 0-.006-.387 1.035 1.035 0 0 0-.067-.177c-.023-.044-.27-.367-.548-.717-.429-.538-.523-.647-.61-.706a1.034 1.034 0 0 0-.212-.106 1.074 1.074 0 0 0-.209-.044zm-23.012 1.248c-.042.001-.348.043-.68.092-.33.05-.673.103-.76.118a.85.85 0 0 0-.273.086 1.02 1.02 0 0 0-.203.148.974.974 0 0 0-.13.157c-.021.037-.166.388-.322.78-.244.617-.283.728-.291.831-.005.066 0 .164.01.22.01.056.041.147.068.204.03.064.223.32.523.696.26.326.5.616.532.643a1.025 1.025 0 0 0 .415.181l.118.02.755-.113c.415-.062.782-.122.815-.132.032-.01.096-.037.142-.06a.889.889 0 0 0 .3-.27c.027-.038.175-.39.33-.783.165-.42.288-.755.297-.815a.759.759 0 0 0 0-.22 1.194 1.194 0 0 0-.053-.211c-.027-.07-.157-.248-.501-.686a14.039 14.039 0 0 0-.55-.67.823.823 0 0 0-.176-.123 1.304 1.304 0 0 0-.19-.069.78.78 0 0 0-.175-.024zm33.717.296a1.817 1.817 0 0 0-.297.02l-.352.057a1.051 1.051 0 0 0-.307.084c-.055.028-.143.09-.196.139a.875.875 0 0 0-.137.158 5.916 5.916 0 0 0-.18.417l-.138.348-.01.146c-.005.09 0 .181.013.238.012.05.04.13.061.176.022.046.136.207.254.356.117.15.241.3.276.336a.87.87 0 0 0 .192.13.996.996 0 0 0 .246.084l.116.02.39-.06c.215-.032.425-.07.466-.085a.913.913 0 0 0 .155-.078 1.09 1.09 0 0 0 .164-.14.886.886 0 0 0 .123-.164c.02-.04.095-.219.165-.397.113-.286.13-.34.136-.46.005-.076 0-.18-.011-.231a1.002 1.002 0 0 0-.068-.194 3.625 3.625 0 0 0-.284-.397c-.172-.216-.26-.313-.332-.361a1.054 1.054 0 0 0-.195-.102.812.812 0 0 0-.25-.04zm-4.708.114c-.023 0-.115.013-.204.026l-.548.082c-.292.044-.411.07-.483.102a1.113 1.113 0 0 0-.181.11.99.99 0 0 0-.15.15c-.046.06-.124.235-.275.617-.173.438-.213.554-.222.65a.789.789 0 0 0 .016.242.935.935 0 0 0 .075.213c.026.048.184.26.35.47.166.21.337.417.38.46.042.045.12.103.173.132a.878.878 0 0 0 .377.103 22.974 22.974 0 0 0 1.1-.155.939.939 0 0 0 .193-.07 1.02 1.02 0 0 0 .34-.31c.023-.037.13-.293.24-.568l.198-.5.008-.154a.825.825 0 0 0-.086-.44 9.052 9.052 0 0 0-.37-.484 6.956 6.956 0 0 0-.405-.48.917.917 0 0 0-.16-.106 1.07 1.07 0 0 0-.366-.09zm-17.449.637a.595.595 0 0 0-.127 0c-.023.005-.35.053-.728.108-.596.087-.698.106-.789.149a1.019 1.019 0 0 0-.357.315c-.022.038-.16.375-.308.748l-.267.679v.153c-.001.112.008.184.037.275.03.095.066.16.164.288.069.092.284.365.478.607.26.325.378.458.445.504.05.035.134.08.187.1.052.02.152.04.222.044.1.007.277-.014.817-.095.428-.064.726-.116.784-.138a.95.95 0 0 0 .344-.247.922.922 0 0 0 .08-.12c.015-.03.143-.347.284-.703.16-.404.261-.684.27-.746a.975.975 0 0 0-.001-.215.779.779 0 0 0-.131-.36 86.24 86.24 0 0 0-.457-.58 11.85 11.85 0 0 0-.472-.572.9.9 0 0 0-.475-.194zm-19.721.86a2.219 2.219 0 0 0-.416.037c-.206.033-.278.053-.378.102a.934.934 0 0 0-.222.157.85.85 0 0 0-.136.17c-.02.04-.083.189-.14.33-.088.223-.103.278-.111.402a.76.76 0 0 0 .019.255c.015.06.043.14.061.178.019.037.103.155.188.263.085.107.19.23.232.275.042.043.12.102.173.13.053.029.142.064.196.078a.882.882 0 0 0 .182.026c.046 0 .206-.019.357-.042a3.17 3.17 0 0 0 .35-.068.858.858 0 0 0 .135-.064 1.032 1.032 0 0 0 .259-.245c.027-.04.1-.2.162-.357.1-.254.113-.3.12-.43.005-.08 0-.186-.012-.237a.97.97 0 0 0-.058-.177 2.776 2.776 0 0 0-.235-.331 2.353 2.353 0 0 0-.275-.303 1.1 1.1 0 0 0-.184-.1.658.658 0 0 0-.267-.048zm26.279.951c-.097-.005-.34.026-1.018.128-.49.073-.929.146-.976.162a.885.885 0 0 0-.44.355c-.022.038-.195.458-.384.934l-.343.865-.007.163a.737.737 0 0 0 .021.263c.016.054.043.127.06.16.018.034.28.378.586.764.304.387.589.74.632.784a.789.789 0 0 0 .182.133c.057.027.144.061.195.075.051.013.124.024.163.025.038 0 .382-.046.763-.103l.93-.137c.13-.019.275-.05.322-.067a.904.904 0 0 0 .34-.252.868.868 0 0 0 .085-.119c.012-.024.172-.425.354-.892s.341-.89.352-.94a.79.79 0 0 0 .01-.207 1.094 1.094 0 0 0-.051-.226.828.828 0 0 0-.089-.174c-.026-.036-.3-.384-.608-.775-.485-.615-.574-.72-.66-.776a1.237 1.237 0 0 0-.195-.1.846.846 0 0 0-.223-.043zm-21.97.781c-.093-.005-.256.013-.606.067-.419.064-.493.08-.586.126a1.08 1.08 0 0 0-.187.123.921.921 0 0 0-.13.142 5.93 5.93 0 0 0-.24.545l-.189.474-.008.135c-.005.075 0 .178.01.23.01.05.039.133.062.183.023.05.182.268.355.485.172.217.34.416.373.44a1.057 1.057 0 0 0 .392.168l.113.02.502-.073c.276-.04.54-.087.584-.104.045-.017.12-.055.166-.085a.976.976 0 0 0 .264-.274c.014-.026.106-.251.207-.501l.181-.455v-.195c0-.16-.007-.212-.038-.29a1.073 1.073 0 0 0-.088-.17c-.027-.04-.178-.234-.335-.43-.212-.266-.308-.373-.378-.42a1.018 1.018 0 0 0-.195-.098.99.99 0 0 0-.229-.043zm9.885.146c-.057.001-.45.054-.873.118-.422.063-.803.127-.846.142a.898.898 0 0 0-.16.078 1.1 1.1 0 0 0-.164.142c-.047.05-.1.12-.12.156-.018.037-.165.399-.326.805l-.294.738-.007.145c-.004.08.002.186.012.237.01.051.038.131.06.178.022.046.255.355.518.687.263.33.513.638.556.681a.812.812 0 0 0 .385.209.835.835 0 0 0 .162.026c.033 0 .4-.05.814-.11.416-.061.793-.118.839-.128a.83.83 0 0 0 .49-.348c.024-.037.175-.4.335-.805.16-.406.298-.761.307-.79a1.12 1.12 0 0 0-.003-.407.943.943 0 0 0-.07-.177c-.028-.052-.277-.38-.554-.73-.39-.491-.525-.65-.596-.7a.996.996 0 0 0-.226-.106.782.782 0 0 0-.238-.04zm18.378 1.036c-.06 0-.424.05-.806.107-.383.058-.722.112-.755.12a.703.703 0 0 0-.136.051.895.895 0 0 0-.311.266c-.04.058-.163.347-.344.802l-.281.713-.01.15c-.005.089 0 .188.012.247a.882.882 0 0 0 .066.185c.025.048.25.347.501.664.251.318.49.608.53.645a.863.863 0 0 0 .337.181.906.906 0 0 0 .19.023c.057 0 .438-.05.846-.11.65-.096.756-.116.847-.159a1.01 1.01 0 0 0 .369-.336c.025-.045.169-.395.32-.777l.276-.696.007-.145a.835.835 0 0 0-.02-.254.912.912 0 0 0-.075-.19 15.684 15.684 0 0 0-.51-.666 12.093 12.093 0 0 0-.525-.637.904.904 0 0 0-.328-.162.894.894 0 0 0-.201-.022zm4.54 1.153a1.273 1.273 0 0 0-.298.057.923.923 0 0 0-.157.08 1.12 1.12 0 0 0-.172.15.767.767 0 0 0-.148.232.685.685 0 0 0-.063.285.845.845 0 0 0 .081.432.922.922 0 0 0 .293.325c.057.037.157.083.221.103.096.029.146.034.28.027a.865.865 0 0 0 .263-.047 1 1 0 0 0 .203-.116c.057-.044.133-.117.168-.164.036-.046.085-.134.111-.195l.047-.11v-.204c0-.171-.006-.22-.039-.305a1.006 1.006 0 0 0-.292-.383.882.882 0 0 0-.498-.166zm-16.458.837c-.103-.005-.284.016-.745.087-.54.082-.622.099-.721.146a.812.812 0 0 0-.232.174l-.12.121-.252.627-.251.627-.008.142c-.005.083 0 .182.012.238.012.052.04.134.062.18.022.047.221.313.443.592.31.39.425.523.497.572.051.035.135.08.186.1.056.022.149.04.23.045.107.007.265-.011.76-.084l.623-.093.114-.055a.865.865 0 0 0 .225-.168.889.889 0 0 0 .147-.188c.019-.042.132-.323.25-.625.124-.315.223-.593.232-.652a.72.72 0 0 0 .007-.172 2.988 2.988 0 0 0-.029-.154.832.832 0 0 0-.057-.161 9.24 9.24 0 0 0-.435-.577c-.249-.313-.429-.524-.48-.564a.98.98 0 0 0-.203-.107.809.809 0 0 0-.255-.05zm-11.917.384c-.07.001-.375.04-.676.084-.435.066-.568.092-.644.127a1.12 1.12 0 0 0-.181.11.988.988 0 0 0-.15.15c-.047.061-.125.238-.285.642-.15.378-.227.595-.24.676a.587.587 0 0 0 .009.253 1.1 1.1 0 0 0 .07.22c.024.048.2.285.392.527.193.243.374.467.403.498.03.03.115.087.19.124.078.039.184.076.25.087l.113.02.606-.09c.346-.052.644-.104.694-.123a.863.863 0 0 0 .383-.3c.028-.039.141-.3.253-.582.111-.28.215-.546.23-.589a.808.808 0 0 0 .025-.223.856.856 0 0 0-.102-.42c-.019-.03-.197-.259-.396-.509s-.387-.476-.418-.502a.863.863 0 0 0-.306-.154.866.866 0 0 0-.22-.026zm6.743 2.347c-.119-.003-.302.018-.823.097l-.67.101-.12.056a.878.878 0 0 0-.368.327c-.024.045-.16.376-.302.735l-.258.653-.008.13a.884.884 0 0 0 .087.449c.022.038.239.322.482.63.244.308.468.581.5.607a1.009 1.009 0 0 0 .411.18l.119.019.741-.111c.62-.094.757-.12.836-.157.052-.024.131-.073.176-.11a.952.952 0 0 0 .147-.152c.046-.063.137-.27.317-.727.139-.352.264-.677.277-.723a.806.806 0 0 0 .025-.19c0-.058-.008-.147-.019-.196a.955.955 0 0 0-.059-.175 9.616 9.616 0 0 0-.49-.653c-.362-.458-.469-.582-.55-.638a1.144 1.144 0 0 0-.2-.11.727.727 0 0 0-.251-.042zm12.952.005a.598.598 0 0 0-.118 0l-.568.084a6.302 6.302 0 0 0-.615.11.98.98 0 0 0-.19.108.987.987 0 0 0-.169.164c-.05.067-.125.233-.284.633l-.217.543-.007.152c-.003.086.002.194.014.246.012.052.04.132.063.178.024.047.188.268.366.492.177.224.342.43.367.457a.934.934 0 0 0 .356.215c.064.02.16.034.222.035.06 0 .349-.036.64-.078.292-.043.562-.09.602-.103a.9.9 0 0 0 .152-.077c.044-.029.125-.1.18-.16l.101-.107.225-.565c.2-.501.227-.58.234-.689a1.046 1.046 0 0 0-.013-.23.974.974 0 0 0-.06-.19 6.942 6.942 0 0 0-.407-.546c-.303-.382-.384-.474-.47-.53a.94.94 0 0 0-.404-.142zm-4.495 1.765a.722.722 0 0 0-.127 0c-.028.003-.19.028-.361.055-.238.037-.335.06-.416.098a.913.913 0 0 0-.345.302 4.68 4.68 0 0 0-.16.366 3.012 3.012 0 0 0-.139.408.657.657 0 0 0 .001.246c.012.073.043.178.07.234.027.056.147.224.266.373.164.204.244.289.32.34a.998.998 0 0 0 .195.1c.052.017.147.034.212.039.083.005.219-.007.45-.044a3.22 3.22 0 0 0 .398-.079.937.937 0 0 0 .341-.26c.057-.073.108-.178.211-.437.092-.23.14-.373.146-.442a1.04 1.04 0 0 0-.009-.221 1.025 1.025 0 0 0-.068-.22 2.935 2.935 0 0 0-.25-.353 3.966 3.966 0 0 0-.266-.31.949.949 0 0 0-.325-.17 1.16 1.16 0 0 0-.144-.025zm-4.563.956a.91.91 0 0 0-.395.095c-.05.025-.143.1-.21.167a.588.588 0 0 0-.175.263.783.783 0 0 0-.045.496c.014.063.046.152.07.198.023.046.087.133.143.192.058.062.143.131.2.161.053.029.144.064.202.08a.902.902 0 0 0 .186.025.933.933 0 0 0 .401-.096c.049-.026.143-.1.209-.166a.66.66 0 0 0 .178-.255l.057-.135v-.187a.726.726 0 0 0-.038-.286 1.083 1.083 0 0 0-.113-.206.936.936 0 0 0-.14-.157 1.097 1.097 0 0 0-.153-.095.869.869 0 0 0-.377-.094z"/></svg>
